<?xml version="1.0" encoding="UTF-8"?>
<svg width="424px" height="182px" viewBox="0 0 424 182" version="1.1" xmlns="http://www.w3.org/2000/svg" xmlns:xlink="http://www.w3.org/1999/xlink">
    <!-- Generator: Sketch 51.2 (57519) - http://www.bohemiancoding.com/sketch -->
    <title>Group 2@3x</title>
    <desc>Created with Sketch.</desc>
    <defs></defs>
    <g id="Page-1" stroke="none" stroke-width="1" fill="none" fill-rule="evenodd">
        <g id="Group-2" transform="translate(-2.000000, 0.000000)" fill="#CCCCCC">
            <text id="Cardiac-Rehab" font-family="AvenirNext-Bold, Avenir Next" font-size="64" font-weight="bold" letter-spacing="-1.543529">
                <tspan x="0.5449385" y="180">Cardiac Rehab</tspan>
            </text>
            <g id="Pill" transform="translate(156.000000, 0.000000)" fill-rule="nonzero">
                <path d="M107.952941,10.2117647 L106.494118,8.75294118 C101.388235,2.91764706 93.3647059,0 86.0705882,0 C78.7764706,0 70.7529412,2.91764706 64.9176471,8.75294118 L8.75294118,64.9176471 C-2.91764706,76.5882353 -2.91764706,94.8235294 8.75294118,106.494118 L10.2117647,107.952941 C15.3176471,113.788235 23.3411765,116.705882 30.6352941,116.705882 C37.9294118,116.705882 45.9529412,113.788235 51.7882353,107.952941 L108.682353,51.0588235 C119.623529,40.1176471 119.623529,21.1529412 107.952941,10.2117647 Z M102.847059,46.6823529 L74.4,75.1294118 L48.8705882,48.8705882 L21.1529412,76.5882353 C13.1294118,84.6117647 13.1294118,94.8235294 13.8588235,102.117647 C5.10588235,93.3647059 5.10588235,79.5058824 13.8588235,70.7529412 L70.7529412,13.8588235 C74.4,9.48235294 80.2352941,7.29411765 86.0705882,7.29411765 C91.9058824,7.29411765 97.7411765,9.48235294 102.117647,13.8588235 L103.576471,15.3176471 C107.223529,18.9647059 109.411765,24.8 109.411765,30.6352941 C109.411765,36.4705882 107.223529,42.3058824 102.847059,46.6823529 Z" id="Shape"></path>
            </g>
        </g>
    </g>
</svg>