<?xml version="1.0" encoding="UTF-8"?>
<svg width="300px" height="266px" viewBox="0 0 300 266" version="1.1" xmlns="http://www.w3.org/2000/svg" xmlns:xlink="http://www.w3.org/1999/xlink">
    <!-- Generator: Sketch 51.2 (57519) - http://www.bohemiancoding.com/sketch -->
    <title>Group 4@3x</title>
    <desc>Created with Sketch.</desc>
    <defs></defs>
    <g id="Page-1" stroke="none" stroke-width="1" fill="none" fill-rule="evenodd">
        <g id="Group-4" transform="translate(-2.000000, 0.000000)" fill="#CCCCCC">
            <text id="Opioid-Rx" font-family="AvenirNext-Bold, Avenir Next" font-size="64" font-weight="bold" letter-spacing="-1.543529">
                <tspan x="0.7418805" y="250">Opioid Rx</tspan>
            </text>
            <g id="Drug,-Capsule,-Pill,-Medication,-Medicines,-Prescribe" transform="translate(76.000000, 0.000000)" fill-rule="nonzero">
                <g id="svg4858">
                    <g id="layer1" transform="translate(0.000000, 0.370111)">
                        <path d="M37.4664352,0.481740741 C30.8806531,0.012829463 24.1130358,1.43808796 17.9814815,4.97826852 C1.63067239,14.4180648 -4.09176269,35.5200556 5.34837963,51.8706296 C14.7885219,68.2218889 35.8899351,73.944213 52.2407407,64.5037315 C68.5915546,55.0639352 74.3139815,33.9626296 64.8738426,17.6113704 C58.9737541,7.39226157 48.4427394,1.26326022 37.4664352,0.481740741 Z M37.0381944,7.33359259 C44.73408,7.87236672 52.0645385,11.7842452 56.9513889,18.2537315 L9.84490741,45.2328981 C4.57469456,32.6761842 9.29361357,17.9673481 21.4074074,10.9736389 C26.3363706,8.12797917 31.7759154,6.96519044 37.0381944,7.33359259 Z M139.173611,19.110213 C133.033009,19.110213 126.934367,21.2856759 122.258102,25.9620648 L100.631944,47.8023426 C100.121848,48.0476172 99.6804605,48.4154405 99.3472222,48.8729444 L78.5775463,69.6426204 C69.225022,78.994713 69.225022,94.1208611 78.5775463,103.473639 C87.9300774,112.826417 103.056034,112.826417 112.408565,103.473639 L133.606481,82.4898426 C133.680926,82.4216077 133.752367,82.3501667 133.820602,82.2757222 L134.034722,82.0616019 C134.291712,81.8109272 134.508393,81.5220196 134.677083,81.2051204 L156.08912,60.0072037 C165.441645,50.6551111 165.441645,35.3148426 156.08912,25.9620648 C151.412855,21.2856759 145.314213,19.110213 139.173611,19.110213 Z M60.1631944,24.0349815 C65.6068674,36.6468248 61.011118,51.4670213 48.8148148,58.5083611 C36.6256246,65.5462339 21.4745932,62.0191198 13.2708333,51.0141481 L60.1631944,24.0349815 Z M139.173611,25.7479444 C143.541797,25.7479444 147.788246,27.5105833 151.164352,30.8868333 C157.916571,37.6393333 157.916571,48.3306204 151.164352,55.0824352 L131.465278,74.9956296 L107.269676,50.8000278 L126.96875,30.8868333 C130.344863,27.5105833 134.805425,25.7479444 139.173611,25.7479444 Z M102.344907,55.5106759 L126.540509,79.9203981 L107.697917,98.7629907 C100.945698,105.515491 90.2545407,105.515491 83.5023148,98.7629907 C76.7500957,92.0104907 76.7500957,81.3192037 83.5023148,74.5673889 L102.344907,55.5106759 Z M24.8333333,82.703963 C18.6927311,82.703963 12.5940883,85.0935463 7.91782407,89.7699352 C-1.4347043,99.1220278 -1.4347043,114.462981 7.91782407,123.815074 L29.5439815,145.227111 C29.8757129,145.870333 30.3996024,146.394222 31.0428241,146.725954 L51.3842593,167.281509 C60.7367835,176.633602 76.0768739,176.633602 85.4293981,167.281509 C94.7819293,157.928731 94.7819293,142.803269 85.4293981,133.450491 L64.4456019,112.680815 C64.2351542,112.269888 63.9438288,111.905731 63.5891204,111.610213 L41.7488426,89.7699352 C37.0725784,85.0935463 30.9739356,82.703963 24.8333333,82.703963 Z M24.8333333,89.5558148 C29.2015163,89.5558148 33.4479632,91.3184537 36.8240741,94.6947037 L56.7372685,114.607898 L32.5416667,138.8035 L12.6284722,118.890306 C5.87625041,112.137806 5.87625041,101.446519 12.6284722,94.6947037 C16.0045831,91.3184537 20.4651503,89.5558148 24.8333333,89.5558148 Z M144.740741,96.4076667 C137.694166,96.4076667 130.593064,98.9928704 125.255787,104.33012 C114.581219,115.00462 114.581219,132.625528 125.255787,143.300028 C135.930349,153.975213 153.551133,153.975213 164.225694,143.300028 C174.900263,132.625528 174.900263,115.00462 164.225694,104.33012 C158.888417,98.9928704 151.787315,96.4076667 144.740741,96.4076667 Z M144.740741,103.259519 C148.853181,103.259519 152.989,104.621372 156.517361,107.113685 L128.039352,135.591694 C122.378701,127.577577 122.984062,116.451622 130.180556,109.254889 C134.208622,105.226685 139.512524,103.259519 144.740741,103.259519 Z M161.44213,111.824333 C167.208532,119.849346 166.538352,131.137593 159.300926,138.375259 C152.0635,145.612925 140.774909,146.283057 132.75,140.516463 L161.44213,111.824333 Z M61.4479167,119.318546 L80.5046296,138.161139 C87.2568487,144.913639 87.2568487,155.818361 80.5046296,162.570861 C73.7524037,169.322676 63.0612469,169.322676 56.3090278,162.570861 L37.2523148,143.514148 L61.4479167,119.318546 Z" id="path8153"></path>
                    </g>
                </g>
            </g>
        </g>
    </g>
</svg>