<?xml version="1.0" encoding="UTF-8"?>
<svg width="100px" height="94px" viewBox="0 0 100 94" version="1.1" xmlns="http://www.w3.org/2000/svg" xmlns:xlink="http://www.w3.org/1999/xlink">
    <!-- Generator: Sketch 51.2 (57519) - http://www.bohemiancoding.com/sketch -->
    <title>Analytics</title>
    <desc>Created with Sketch.</desc>
    <defs></defs>
    <g id="Page-1" stroke="none" stroke-width="1" fill="none" fill-rule="evenodd">
        <g id="Analytics" fill-rule="nonzero">
            <g id="Multicolor_1_">
                <polygon id="Shape" fill="#FFFFFF" points="21.875 0 100 0 100 93.75 21.875 93.75"></polygon>
                <path d="M66.75625,71.875 C66.75625,78.7785594 72.3526906,84.375 79.25625,84.375 C86.159375,84.375 92.40625,78.7484375 91.75625,71.875 C91.0953125,64.88125 85.6734375,59.309375 79.25625,59.375 C72.353125,59.446875 66.75625,64.971875 66.75625,71.875 Z" id="Shape" fill="#FBE158"></path>
                <path d="M66.75625,71.875 C66.75625,78.78125 72.35,84.375 79.25625,84.375 C84.3519928,84.3774212 88.9390968,81.2863808 90.85,76.5625 L67.75625,66.9484375 C67.0929443,68.5060269 66.752741,70.1820597 66.75625,71.875 Z" id="Shape" fill="#059BBF"></path>
                <path d="M66.7375,71.8796875 C66.7364173,76.1295373 68.8946776,80.0888001 72.4671875,82.390625 L79.228125,71.734375 L67.7390625,66.953125 C67.0746366,68.5104204 66.7338763,70.1865786 66.7375,71.8796875 Z" id="Shape" fill="#4AC3AF"></path>
                <path d="M67.75625,66.9484375 L79.25625,71.740625 L79.25625,59.375 C74.1,59.375 69.6734375,62.5 67.75625,66.9484375 Z" id="Shape" fill="#FA5655"></path>
                <polygon id="Shape" fill="#4AC3AF" points="84.375 20.3125 90.625 20.3125 90.625 48.4375 84.375 48.4375"></polygon>
                <polygon id="Shape" fill="#4AC3AF" points="72.9875 32.8125 79.2375 32.8125 79.2375 48.4375 72.9875 48.4375"></polygon>
                <g id="Group" transform="translate(35.937500, 60.937500)" fill="#CFD3D4">
                    <circle id="Oval" cx="22.3953125" cy="3.3859375" r="2.34375"></circle>
                    <polygon id="Shape" points="1.1125 2.6046875 16.7375 2.6046875 16.7375 4.1671875 1.1125 4.1671875"></polygon>
                </g>
                <g id="Group" transform="translate(35.937500, 68.750000)" fill="#CFD3D4">
                    <circle id="Oval" cx="22.3953125" cy="3.6453125" r="2.34375"></circle>
                    <polygon id="Shape" points="1.1125 2.8640625 16.7375 2.8640625 16.7375 4.4265625 1.1125 4.4265625"></polygon>
                </g>
                <g id="Group" transform="translate(35.937500, 78.125000)" fill="#CFD3D4">
                    <circle id="Oval" cx="22.3953125" cy="2.34375" r="2.34375"></circle>
                    <polygon id="Shape" points="1.1125 1.5625 16.7375 1.5625 16.7375 3.125 1.1125 3.125"></polygon>
                </g>
                <path d="M26.159375,48.4703125 L9.2875,65.3421875 C7.92905342,66.7006341 5.94907439,67.2311679 4.09340184,66.7339419 C2.2377293,66.2367159 0.788284053,64.7872707 0.291058094,62.9315982 C-0.206167865,61.0759256 0.324365917,59.0959466 1.6828125,57.7375 L18.59375,40.8296875 C20.4645947,43.947831 23.0598374,46.568801 26.159375,48.4703125 Z" id="Shape" fill="#84462D"></path>
                <path d="M21.8625,45.040625 L1.6265625,65.2765625 C-0.418152019,63.1725801 -0.397286791,59.8174514 1.6734375,57.7390625 L18.59375,40.8203125 C19.5164541,42.3487621 20.6133706,43.7650009 21.8625,45.040625 Z" id="Shape" fill="#9C6144"></path>
                <path d="M38.125,51.71875 C25.6328125,51.71875 15.46875,41.5546875 15.46875,29.0625 C15.46875,16.5703125 25.6328125,6.40625 38.125,6.40625 C50.6171875,6.40625 60.78125,16.5703125 60.78125,29.0625 C60.78125,41.5546875 50.61875,51.71875 38.125,51.71875 Z" id="Shape" fill="#FFFFFF"></path>
                <path d="M38.125,6.3875 C50.64375,6.3875 60.8,16.54375 60.8,29.0625 C60.8,41.58125 50.64375,51.7375 38.125,51.7375 C25.5609375,51.7375 15.45,41.4859375 15.45,29.0625 C15.45,16.54375 25.60625,6.3875 38.125,6.3875 Z M38.125,3.28125 C23.909375,3.28125 12.34375,14.846875 12.34375,29.0625 C12.34375,43.278125 23.909375,54.84375 38.125,54.84375 C52.340625,54.84375 63.90625,43.278125 63.90625,29.0625 C63.90625,14.846875 52.3421875,3.28125 38.125,3.28125 Z" id="Shape" fill="#CFD3D4"></path>
                <circle id="Oval" fill="#6FDAF1" cx="38.125" cy="29.0625" r="18.059375"></circle>
                <path d="M38.125,11.003125 C28.1515625,11.003125 20.065625,19.0890625 20.065625,29.0625 C20.065625,33.996875 22.05,38.465625 25.2578125,41.725 L50.7875,16.1953125 C47.4157617,12.8636261 42.8651185,10.9976603 38.125,11.003125 Z" id="Shape" fill="#9CE5F4"></path>
            </g>
        </g>
    </g>
</svg>