<?xml version="1.0" encoding="UTF-8"?>
<svg width="453px" height="452px" viewBox="0 0 453 452" version="1.1" xmlns="http://www.w3.org/2000/svg" xmlns:xlink="http://www.w3.org/1999/xlink">
    <!-- Generator: Sketch 51.2 (57519) - http://www.bohemiancoding.com/sketch -->
    <title>Crab</title>
    <desc>Created with Sketch.</desc>
    <defs></defs>
    <g id="Page-1" stroke="none" stroke-width="1" fill="none" fill-rule="evenodd">
        <g id="Crab" transform="translate(0.000000, -30.000000)" fill-rule="nonzero">
            <g id="svg2">
                <g id="layer1" transform="translate(0.000000, 19.209035)">
                    <g id="g9550">
                        <path d="M165.795518,86.2117647 C165.796019,110.575115 151.120078,132.539702 128.611277,141.863153 C106.103163,151.186778 80.1949301,146.03385 62.9674496,128.807153 C45.7400269,111.57987 40.5865353,85.6712794 49.9100823,63.1627294 C59.2327322,40.6535533 81.1968419,25.9768083 105.560233,25.9764706 L105.56023,86.2117647 L165.795518,86.2117647 Z" id="path2532" fill="#F97286"></path>
                        <path d="M151.165067,236.790965 L301.324619,236.790965 C343.275128,236.790965 377.047552,270.561882 377.047552,312.512753 L377.047552,341.775059 C377.047552,383.725929 343.275128,417.496847 301.324619,417.496847 L151.165067,417.496847 C109.214554,417.496847 75.4421158,383.725929 75.4421158,341.775059 L75.4421158,312.512753 C75.4421158,270.561882 109.214554,236.790965 151.165067,236.790965 Z" id="rect2530" fill="#EA506C"></path>
                        <path d="M151.176469,221.705035 C101.144209,221.705035 60.4117655,262.496376 60.4117655,312.530824 L60.4117655,341.766024 C60.4117655,391.797459 101.144209,432.528565 151.176469,432.528565 L301.35293,432.528565 C351.385208,432.528565 392.11764,391.797459 392.11764,341.766024 L392.11764,312.530824 C392.11764,262.496376 351.385208,221.705035 301.35293,221.705035 L151.176469,221.705035 Z M151.176469,251.822682 L301.35293,251.822682 C335.2217,251.822682 361.999992,278.660518 361.999992,312.530824 L361.999992,341.766024 C361.999992,375.633318 335.2217,402.410918 301.35293,402.410918 L151.176469,402.410918 C117.307708,402.410918 90.5294125,375.633318 90.5294125,341.766024 L90.5294125,312.530824 C90.5294125,278.660518 117.307708,251.822682 151.176469,251.822682 Z" id="rect5013" fill="#000000"></path>
                        <path d="M105.588236,10.9417412 C75.1772491,10.9417412 47.6367631,29.3165176 36,57.4102588 C24.3621165,85.5070118 30.7904211,117.967812 52.2941169,139.471812 C73.797888,160.9728 106.257754,167.402918 134.352941,155.765459 C162.448983,144.128 180.882977,116.645647 180.882354,86.2358588 C180.881523,77.9194443 174.139945,71.1778658 165.82353,71.1770353 L120.64706,71.1770353 L120.64706,26.0005647 C120.646229,17.6841502 113.904651,10.9425717 105.588236,10.9417412 Z M90.5294125,45.5890824 L90.5294125,86.2358588 C90.530243,94.5522734 97.2718215,101.293852 105.588236,101.294682 L146.17647,101.294682 C141.88319,112.832753 134.661355,123.036612 122.823529,127.939765 C105.90249,134.951153 86.5394266,131.126212 73.588236,118.175624 C60.6370846,105.225035 56.8143179,85.8624 63.8235287,68.9423059 C68.7319191,57.0910118 78.9723708,49.8778353 90.5294125,45.5890824 Z" id="path5015" fill="#000000"></path>
                        <path d="M406.749254,86.2117647 C406.749755,110.575115 392.073814,132.539702 369.565013,141.863153 C347.0569,151.186775 321.148671,146.033848 303.921192,128.807153 C286.693773,111.579868 281.540286,85.671277 290.863836,63.1627294 C300.186487,40.6535523 322.150598,25.9768071 346.51399,25.9764706 L346.51399,86.2117647 L406.749254,86.2117647 Z" id="path2534" fill="#F97286" transform="translate(346.513006, 86.213461) scale(-1, 1) translate(-346.513006, -86.213461) "></path>
                        <path d="M346.5294,10.9417412 C376.940393,10.9417412 404.422054,29.3165176 416.05882,57.4102588 C427.6967,85.5070118 421.26839,117.967812 399.764721,139.471812 C378.260932,160.9728 345.801065,167.402918 317.705879,155.765459 C289.609848,144.128 271.23468,116.645647 271.235283,86.2358588 C271.236113,77.9194443 277.977692,71.1778658 286.294106,71.1770353 L331.470577,71.1770353 L331.470577,26.0005647 C331.471407,17.6841502 338.212986,10.9425717 346.5294,10.9417412 Z M361.588224,45.5890824 L361.588224,86.2358588 C361.587393,94.5522734 354.845815,101.293852 346.5294,101.294682 L305.941173,101.294682 C310.235859,112.829741 317.400787,123.039624 329.235305,127.939765 C346.156333,134.951153 365.51939,131.126212 378.470581,118.175624 C391.421741,105.225035 395.244514,85.8624 388.235294,68.9423059 C383.326901,57.0910118 373.145269,49.8778353 361.588224,45.5890824 Z" id="path5017" fill="#000000"></path>
                        <path d="M75.8235287,313.175341 C74.9537077,313.200771 74.0877273,313.30154 73.2353084,313.476518 C46.9872218,317.382776 22.7667245,329.839435 4.35295473,348.949082 C0.552447735,352.81354 -0.878336254,358.422133 0.606515157,363.634916 C2.09136657,368.847698 6.26279061,372.860513 11.5291899,374.142279 C16.7955891,375.424045 22.3445349,373.777029 26.0588393,369.829647 C39.8631635,355.505694 58.0276314,346.172235 77.7058967,343.241788 C85.5865698,342.23904 91.3331747,335.287436 90.8356957,327.358815 C90.3382168,319.430194 83.7677502,313.251421 75.8235437,313.2416 L75.8235287,313.175341 Z" id="path5019" fill="#000000"></path>
                        <path d="M195.912349,221.732141 C195.91235,229.719837 192.739251,237.380378 187.091097,243.028533 C181.442944,248.676687 173.782403,251.849788 165.794708,251.849788 C157.807011,251.849788 150.14647,248.676688 144.498316,243.028534 C138.850162,237.380379 135.677063,229.719838 135.677064,221.732141 C135.677063,213.744445 138.850162,206.083903 144.498316,200.435749 C150.14647,194.787594 157.807011,191.614494 165.794708,191.614494 C173.782403,191.614495 181.442944,194.787595 187.091097,200.43575 C192.739251,206.083904 195.91235,213.744445 195.912349,221.732141 Z" id="circle5021" fill="#FFFFFF"></path>
                        <path d="M316.383051,221.732141 C316.383052,229.719838 313.209952,237.38038 307.561798,243.028535 C301.913643,248.676689 294.253101,251.849789 286.265404,251.849788 C278.277706,251.849791 270.617163,248.676692 264.969007,243.028537 C259.320851,237.380382 256.14775,229.719839 256.147751,221.732141 C256.14775,213.744443 259.320851,206.0839 264.969007,200.435746 C270.617163,194.787591 278.277706,191.614492 286.265404,191.614494 C294.253101,191.614493 301.913643,194.787593 307.561798,200.435748 C313.209952,206.083902 316.383052,213.744444 316.383051,221.732141 Z" id="circle5023" fill="#FFFFFF"></path>
                        <path d="M59.5294118,113.293553 C57.1793023,113.466592 54.9025901,114.188692 52.8823537,115.401788 C17.4998197,135.830588 -2.95185378,174.929318 0.529411012,215.639341 C4.01071285,256.346353 30.7810605,291.454494 69.1176478,305.579671 C74.2228636,307.711168 80.0857315,306.872019 84.388065,303.394027 C88.6903984,299.916034 90.739488,294.35918 89.7251207,288.920654 C88.7107535,283.482128 84.7962504,279.037574 79.5294118,277.344376 C52.0889073,267.233882 33.0212533,242.188047 30.5294125,213.049224 C28.0375989,183.913412 42.6151153,156.084706 67.9411772,141.462588 C74.1103042,138.02605 77.0632016,130.764545 75.0432097,123.997895 C73.0232178,117.231245 66.5728597,112.776815 59.5294118,113.284518 L59.5294118,113.293553 Z" id="path5025" fill="#000000"></path>
                        <path d="M392.529408,113.293553 C394.879516,113.466592 397.156228,114.188693 399.176463,115.401788 C434.559006,135.830588 455.010665,174.929318 451.529427,215.639341 C448.048098,256.346353 421.277756,291.454494 382.941184,305.579671 C377.835967,307.711172 371.973095,306.872026 367.670759,303.394032 C363.368422,299.916038 361.319332,294.359181 362.333702,288.920653 C363.348072,283.482124 367.26258,279.03757 372.529423,277.344376 C399.969912,267.233882 419.037576,242.188047 421.529419,213.049224 C424.021353,183.913412 409.44372,156.084706 384.11764,141.462588 C377.948512,138.02605 374.995614,130.764544 377.015607,123.997893 C379.0356,117.231243 385.485959,112.776814 392.529408,113.284518 L392.529408,113.293553 Z" id="path5027" fill="#000000"></path>
                        <path d="M91.9411772,376.588047 C90.0801603,376.641704 88.2452243,377.039965 86.5294125,377.762635 C58.0064828,389.249506 37.0438174,414.217035 30.6470581,444.292518 C29.5326853,449.557216 31.3118779,455.016489 35.3143386,458.613596 C39.3167992,462.210704 44.9343585,463.39907 50.0506435,461.730986 C55.1669284,460.062903 59.0045254,455.791833 60.1176486,450.526871 C64.4363716,430.221553 78.5059087,413.458071 97.7647074,405.702776 C104.62212,403.07586 108.585231,395.886234 107.145086,388.685485 C105.70494,381.484736 99.2814498,376.372424 91.9411772,376.585035 L91.9411772,376.588047 Z" id="path5029" fill="#000000"></path>
                        <path d="M361.411765,376.822965 C363.280474,376.914748 365.115722,377.353929 366.823544,378.118024 C394.47558,390.110871 414.611034,414.816376 420.882342,444.295529 C421.996002,449.55994 420.216537,455.018587 416.214254,458.61525 C412.211971,462.211913 406.594912,463.400174 401.478968,461.732427 C396.363025,460.064679 392.525432,455.794293 391.411772,450.529882 C387.16148,430.549835 373.566464,413.891765 354.823529,405.766024 C348.055305,402.948965 344.298824,395.667556 345.925956,388.51933 C347.553089,381.371105 354.091067,376.432998 361.411765,376.822965 Z" id="path5031" fill="#000000"></path>
                        <path d="M378.58822,313.530729 C379.458071,313.556154 380.324082,313.656923 381.176531,313.831906 C406.486709,318.141741 429.714462,330.459859 447.529472,348.949082 C451.611796,352.746358 453.262275,358.488262 451.819475,363.873705 C450.376674,369.259148 446.076688,373.406877 440.642751,374.654675 C435.208814,375.902473 429.530115,374.046155 425.882413,369.829647 C412.527315,355.972518 395.092329,346.768565 376.1177,343.536941 C368.317237,342.320116 362.780385,335.286114 363.429633,327.418054 C364.07888,319.549995 370.693837,313.518722 378.58825,313.596988 L378.58822,313.530729 Z" id="path5033" fill="#000000"></path>
                        <path d="M286.294106,176.528565 C261.522203,176.528565 241.117645,196.933271 241.117648,221.705035 C241.117645,246.4768 261.522203,266.881506 286.294106,266.881506 C311.066022,266.881506 331.470577,246.4768 331.470577,221.705035 C331.470577,196.933271 311.066022,176.528565 286.294106,176.528565 Z M286.294106,206.646212 C294.78924,206.646212 301.35293,213.211859 301.35293,221.705035 C301.35293,230.201224 294.78924,236.763859 286.294106,236.763859 C277.799002,236.763859 271.235283,230.201224 271.235283,221.705035 C271.235283,213.211859 277.799002,206.646212 286.294106,206.646212 Z" id="path9524" fill="#000000"></path>
                        <path d="M165.82353,176.528565 C141.051621,176.528565 120.647057,196.933271 120.64706,221.705035 C120.647057,246.4768 141.051621,266.881506 165.82353,266.881506 C190.595436,266.881506 211.000004,246.4768 211.000001,221.705035 C211.000004,196.933271 190.595436,176.528565 165.82353,176.528565 Z M165.82353,206.646212 C174.318652,206.646212 180.882354,213.211859 180.882354,221.705035 C180.882354,230.201224 174.318652,236.763859 165.82353,236.763859 C157.328405,236.763859 150.764704,230.201224 150.764707,221.705035 C150.764704,213.211859 157.328405,206.646212 165.82353,206.646212 Z" id="path9526" fill="#000000"></path>
                    </g>
                </g>
            </g>
        </g>
    </g>
</svg>