<?xml version="1.0" encoding="UTF-8"?>
<svg width="512px" height="472px" viewBox="0 0 512 472" version="1.1" xmlns="http://www.w3.org/2000/svg" xmlns:xlink="http://www.w3.org/1999/xlink">
    <!-- Generator: Sketch 51.2 (57519) - http://www.bohemiancoding.com/sketch -->
    <title>Colon</title>
    <desc>Created with Sketch.</desc>
    <defs></defs>
    <g id="Page-1" stroke="none" stroke-width="1" fill="none" fill-rule="evenodd">
        <g id="Colon" fill-rule="nonzero">
            <g id="Layer_1">
                <path d="M330.105263,464.842105 C322.667789,464.842105 316.631579,458.792421 316.631579,451.368421 L316.631579,424.421053 C316.631579,423.477895 316.739368,422.561684 316.914526,421.672421 C318.868211,399.885474 336.074105,384 357.052632,384 C363.493053,384 369.839158,385.657263 375.969684,388.931368 C378.347839,390.185207 381.241291,389.921206 383.353263,388.257684 C385.456344,386.571727 386.352057,383.79449 385.630316,381.197474 C384.606743,377.730528 384.058302,374.140733 384,370.526316 C384,355.813053 392.165053,342.258526 405.342316,335.144421 C407.077102,334.201914 408.311141,332.545873 408.718257,330.614019 C409.125372,328.682165 408.664583,326.668959 407.457684,325.106526 C401.023552,316.925821 397.509268,306.828777 397.473684,296.421053 C397.473684,276.601263 410.138947,258.816 429.015579,252.146526 C431.377558,251.308703 433.079228,249.228986 433.432862,246.747891 C433.786496,244.266795 432.733634,241.794471 430.699789,240.330105 C418.363412,231.496202 411.01638,217.278242 410.947368,202.105263 C410.947368,188.308211 417.172211,175.184842 428.045474,166.103579 C430.082425,164.392677 430.921872,161.64334 430.187998,159.08643 C429.454125,156.529521 427.284363,154.643874 424.650105,154.273684 C401.475368,151.026526 384,131.058526 384,107.789474 C384.094316,107.223579 384.161684,106.725053 384.188632,106.226526 C384.319201,103.046507 382.206482,100.208946 379.122526,99.4223158 C369.904397,97.0666367 361.62302,91.9577509 355.381895,84.7764211 C354.102726,83.3170931 352.256385,82.4802567 350.315789,82.4802567 C348.375194,82.4802567 346.528853,83.3170931 345.249684,84.7764211 C336.361998,95.0447103 323.474983,100.977452 309.894737,101.052632 C292.64219,100.972934 276.816153,91.459733 268.651789,76.2610526 C267.471491,74.0960494 265.202677,72.7488716 262.736842,72.7488716 C260.271007,72.7488716 258.002193,74.0960494 256.821895,76.2610526 C248.657532,91.459733 232.831494,100.972934 215.578947,101.052632 C202.172632,101.052632 189.278316,95.1242105 180.224,84.7764211 C178.951998,83.3048684 177.103006,82.4591132 175.157895,82.4591132 C173.212784,82.4591132 171.363791,83.3048684 170.091789,84.7764211 C161.204103,95.0447103 148.317088,100.977452 134.736842,101.052632 C130.829474,101.052632 126.746947,100.405895 121.909895,99.0315789 C120.114548,98.5082747 118.181687,98.7676207 116.587789,99.7456842 C114.984606,100.706944 113.856184,102.29455 113.475368,104.124632 C111.145287,114.677386 105.261404,124.109674 96.8084211,130.842947 C94.2777686,132.886901 93.5691065,136.44722 95.1242105,139.304421 C99.0585263,146.526316 101.052632,154.058105 101.052632,161.684211 C101.052632,175.104 95.1242105,187.984842 84.7629474,197.039158 C83.3116304,198.322986 82.4806114,200.167601 82.4806114,202.105263 C82.4806114,204.042926 83.3116304,205.88754 84.7629474,207.171368 C95.0420211,216.052221 100.981114,228.942362 101.052632,242.526316 C101.052632,250.165895 99.0585263,257.684211 95.1376842,264.906105 C93.5795434,267.760187 94.2824207,271.31992 96.8084211,273.367579 C107.954111,282.221553 114.472769,295.660398 114.526316,309.894737 C114.526316,319.353263 111.737263,328.474947 106.442105,336.289684 C105.254527,338.016479 104.943868,340.199673 105.602632,342.189193 C106.261397,344.178714 107.813599,345.745083 109.797053,346.421895 C128.692501,352.971549 141.392518,370.738608 141.473684,390.736842 C141.473684,416.741053 120.32,437.894737 94.3157895,437.894737 C68.3115789,437.894737 47.1578947,416.741053 47.1578947,390.736842 C47.1578947,381.278316 49.9469474,372.156632 55.2421053,364.341895 C56.4296839,362.6151 56.7403423,360.431906 56.0815781,358.442386 C55.4228139,356.452865 53.8706116,354.886496 51.8871579,354.209684 C32.9917095,347.66003 20.291692,329.892971 20.2105263,309.894737 C20.2105263,302.268632 22.2046316,294.736842 26.1389474,287.514947 C27.6940514,284.657746 26.9853893,281.097428 24.4547368,279.053474 C13.3090466,270.199499 6.79038915,256.760655 6.73684211,242.526316 C6.73684211,229.106526 12.6652632,216.225684 23.0265263,207.171368 C24.4778432,205.88754 25.3088623,204.042926 25.3088623,202.105263 C25.3088623,200.167601 24.4778432,198.322986 23.0265263,197.039158 C12.7474525,188.158305 6.80835928,175.268164 6.73684211,161.684211 C6.73684211,147.563789 13.1907368,134.251789 24.4547368,125.157053 C26.9807372,123.109394 27.6836145,119.54966 26.1254737,116.695579 C22.3003811,109.852895 20.265794,102.154833 20.2105263,94.3157895 C20.2105263,68.3115789 41.3642105,47.1578947 67.3684211,47.1578947 C71.2757895,47.1578947 75.3583158,47.8046316 80.1953684,49.1789474 C81.9907151,49.7022516 83.9235763,49.4429056 85.5174737,48.4648421 C87.1206572,47.5035824 88.2490791,45.9159759 88.6298947,44.0858947 C93.3241037,22.3553729 112.505228,6.81765291 134.736842,6.73684211 C148.143158,6.73684211 161.037474,12.6652632 170.091789,23.0130526 C171.363791,24.4846053 173.212784,25.3303605 175.157895,25.3303605 C177.103006,25.3303605 178.951998,24.4846053 180.224,23.0130526 C189.111686,12.7447634 201.998701,6.81202168 215.578947,6.73684211 C232.704,6.73684211 248.495158,16.2357895 256.821895,31.5284211 C258.002193,33.6934243 260.271007,35.0406021 262.736842,35.0406021 C265.202677,35.0406021 267.471491,33.6934243 268.651789,31.5284211 C276.816153,16.3297407 292.64219,6.81653931 309.894737,6.73684211 C323.301053,6.73684211 336.195368,12.6652632 345.249684,23.0130526 C346.521686,24.4846053 348.370679,25.3303605 350.315789,25.3303605 C352.2609,25.3303605 354.109893,24.4846053 355.381895,23.0130526 C364.269581,12.7447634 377.156596,6.81202168 390.736842,6.73684211 C416.741053,6.73684211 437.894737,27.8905263 437.894737,53.8947368 C437.802677,54.4117812 437.739701,54.9335838 437.706105,55.4576842 C437.576978,58.6416562 439.696356,61.4806111 442.785684,62.2618947 C463.645183,67.5295411 478.274433,86.2751742 478.315789,107.789474 C478.315789,109.406316 478.073263,110.955789 477.871158,112.518737 L477.655579,114.014316 C477.303471,116.739487 478.641757,119.405394 481.037474,120.751158 C495.910372,129.02132 505.169981,144.666867 505.263158,161.684211 C505.183461,178.936757 495.670259,194.762795 480.471579,202.927158 C478.314311,204.113471 476.973979,206.380166 476.973979,208.842105 C476.973979,211.304045 478.314311,213.570739 480.471579,214.757053 C495.668158,222.923621 505.180528,238.748275 505.263158,256 C505.265559,271.751296 497.392537,286.460752 484.284632,295.194947 C482.72076,296.247356 481.66817,297.90573 481.381541,299.76882 C481.094912,301.63191 481.600356,303.529982 482.775579,305.003789 C488.677053,312.360421 491.789474,321.050947 491.789474,330.105263 C491.695527,345.734664 482.634416,359.921145 468.493474,366.578526 C466.233923,367.638623 464.749493,369.865268 464.64,372.358737 C463.730743,393.91654 445.998016,410.930453 424.421053,410.947368 C421.793684,410.947368 419.247158,410.650947 416.768,410.165895 C413.436605,409.521692 410.146012,411.455637 409.088,414.679579 C404.624805,428.492098 391.778831,437.862806 377.263158,437.894737 C368.95909,437.85244 360.965785,434.731931 354.829474,429.136842 C352.846808,427.3667 350.012443,426.918891 347.580632,427.991579 C345.146984,429.072759 343.578609,431.486048 343.578947,434.149053 L343.578947,451.368421 C343.578947,458.792421 337.542737,464.842105 330.105263,464.842105 Z" id="Shape" fill="#F78F8F"></path>
                <path d="M390.736842,13.4736842 C412.819408,13.5002695 430.80506,31.222132 431.157895,53.3018947 C431.071606,53.9593399 431.013167,54.6201412 430.982737,55.2825263 C430.766973,61.6078338 434.982738,67.2307219 441.114947,68.7966316 C458.990399,73.3003573 471.533786,89.3554484 471.578947,107.789474 C471.578947,109.123368 471.349895,110.403368 471.174737,111.696842 L470.986105,113.098105 C470.261914,118.559196 472.935187,123.911078 477.736421,126.612211 C490.484523,133.697788 498.428834,147.099629 498.526316,161.684211 C498.444593,176.469165 490.281235,190.024785 477.251368,197.012211 C472.921362,199.372807 470.227006,203.910435 470.227006,208.842105 C470.227006,213.773776 472.921362,218.311404 477.251368,220.672 C490.281235,227.659426 498.444593,241.215046 498.526316,256 C498.522339,269.499791 491.779224,282.106485 480.552421,289.603368 C477.417909,291.702868 475.307204,295.020357 474.733542,298.74916 C474.15988,302.477964 475.175816,306.276475 477.534316,309.221053 C480.956632,313.505684 485.052632,320.619789 485.052632,330.105263 C485.052632,343.201684 477.601684,354.829474 465.623579,360.474947 C461.107348,362.607825 458.137636,367.059801 457.903158,372.048842 C457.159664,390.007537 442.395119,404.189818 424.421053,404.210526 C422.426947,404.210526 420.338526,403.994947 418.034526,403.550316 C411.384656,402.275446 404.821563,406.133714 402.701474,412.564211 C399.138778,423.613649 388.872691,431.117462 377.263158,431.157895 C370.616013,431.139262 364.217284,428.629768 359.329684,424.124632 C355.382249,420.559504 349.704291,419.656313 344.845474,421.820632 C339.980519,423.985734 336.844887,428.810596 336.842105,434.135579 L336.842105,451.368421 C336.842105,455.019789 333.756632,458.105263 330.105263,458.105263 C326.453895,458.105263 323.368421,455.019789 323.368421,451.368421 L323.368421,424.421053 C323.365169,423.959497 323.410328,423.498873 323.503158,423.046737 C323.605821,422.539007 323.682273,422.026329 323.732211,421.510737 C325.084902,404.118816 339.608214,390.705454 357.052632,390.736842 C362.361263,390.736842 367.656421,392.124632 372.789895,394.873263 C377.541246,397.410087 383.346898,396.873489 387.552789,393.508776 C391.75868,390.144063 393.556602,384.597802 392.124632,379.405474 C391.264962,376.521604 390.798158,373.534966 390.736842,370.526316 C390.736842,358.292211 397.554526,347.001263 408.549053,341.059368 C412.01648,339.169721 414.48393,335.857997 415.302667,331.994903 C416.121405,328.13181 415.20951,324.103873 412.806737,320.970105 C407.273817,313.980213 404.246805,305.335675 404.210526,296.421053 C404.210526,279.457684 415.083789,264.218947 431.252211,258.506105 C435.977393,256.828906 439.382146,252.668887 440.092026,247.705378 C440.801907,242.741869 438.699729,237.79425 434.634105,234.859789 C423.98451,227.355742 417.659496,215.13308 417.684211,202.105263 C417.684211,190.302316 423.033263,179.065263 432.357053,171.264 C436.439312,167.845749 438.125729,162.34408 436.660309,157.225308 C435.19489,152.106536 430.852509,148.330813 425.579789,147.590737 C405.93058,144.822025 391.183535,128.220903 390.750316,108.382316 C390.831158,107.735579 390.898526,107.075368 390.925474,106.401684 C391.141237,100.076377 386.925473,94.4534887 380.793263,92.8875789 C372.899711,90.8685897 365.810862,86.4874181 360.474947,80.3301053 C357.906811,77.4136872 354.208503,75.7425341 350.322526,75.7425341 C346.436549,75.7425341 342.738241,77.4136872 340.170105,80.3301053 C332.611025,89.1975685 321.546842,94.3086596 309.894737,94.3157895 C295.109783,94.2340664 281.554163,86.0707088 274.566737,73.0408421 C272.20614,68.7108356 267.668512,66.0164801 262.736842,66.0164801 C257.805172,66.0164801 253.267544,68.7108356 250.906947,73.0408421 C243.919521,86.0707088 230.363902,94.2340664 215.578947,94.3157895 C203.926842,94.3086596 192.86266,89.1975685 185.303579,80.3301053 C182.744978,77.402193 179.046224,75.7223817 175.157895,75.7223817 C171.269565,75.7223817 167.570811,77.402193 165.012211,80.3301053 C157.45313,89.1975685 146.388947,94.3086596 134.736842,94.3157895 C131.476211,94.3157895 127.986526,93.7498947 123.755789,92.5507368 C120.167502,91.5316943 116.317148,92.048979 113.125053,93.9789474 C109.916605,95.8956533 107.654993,99.0658174 106.886737,102.723368 C104.884739,111.765944 99.8322202,119.844265 92.5776842,125.601684 C87.5163793,129.689592 86.0990552,136.810228 89.2092632,142.524632 C92.6046316,148.749474 94.3157895,155.189895 94.3157895,161.684211 C94.3157895,173.325474 89.344,184.077474 80.3301053,191.959579 C77.402193,194.51818 75.7223817,198.216933 75.7223817,202.105263 C75.7223817,205.993593 77.402193,209.692347 80.3301053,212.250947 C89.1975685,219.810028 94.3086596,230.874211 94.3157895,242.526316 C94.3157895,249.020632 92.6046316,255.461053 89.2092632,261.685895 C86.0990552,267.400298 87.5163793,274.520934 92.5776842,278.608842 C102.137353,286.185404 107.734432,297.696847 107.789474,309.894737 C107.789474,318.005895 105.391158,325.820632 100.877474,332.517053 C98.5252413,335.978638 97.9170043,340.337419 99.231753,344.310706 C100.546502,348.283993 103.634629,351.419658 107.587368,352.794947 C123.772092,358.399084 134.655982,373.609522 134.736842,390.736842 C134.736842,413.022316 116.601263,431.157895 94.3157895,431.157895 C79.379695,431.124755 65.6757683,422.868548 58.6655879,409.679712 C51.6554074,396.490877 52.4784644,380.513232 60.8067368,368.114526 C63.1589693,364.652941 63.7672062,360.29416 62.4524575,356.320873 C61.1377088,352.347586 58.049582,349.211921 54.0968421,347.836632 C37.9121187,342.232495 27.0282288,327.022057 26.9473684,309.894737 C26.9473684,303.400421 28.6585263,296.96 32.0538947,290.735158 C35.1641027,285.020755 33.7467786,277.900118 28.6854737,273.812211 C19.1258053,266.235649 13.5287255,254.724206 13.4736842,242.526316 C13.4736842,230.885053 18.4454737,220.133053 27.4593684,212.250947 C30.3872807,209.692347 32.067092,205.993593 32.067092,202.105263 C32.067092,198.216933 30.3872807,194.51818 27.4593684,191.959579 C18.5919052,184.400498 13.4808141,173.336316 13.4736842,161.684211 C13.5287255,149.486321 19.1258053,137.974878 28.6854737,130.398316 C33.7467786,126.310408 35.1641027,119.189772 32.0538947,113.475368 C28.759382,107.623231 27.0024649,101.031315 26.9473684,94.3157895 C26.9473684,72.0303158 45.0829474,53.8947368 67.3684211,53.8947368 C70.6290526,53.8947368 74.1187368,54.4606316 78.3494737,55.6597895 C81.9377607,56.678832 85.7881151,56.1615474 88.9802105,54.2315789 C92.1886581,52.314873 94.4502698,49.1447089 95.2185263,45.4871579 C99.2419788,26.8616985 115.681896,13.5438525 134.736842,13.4736842 C146.378105,13.4736842 157.130105,18.4454737 165.012211,27.4593684 C167.570811,30.3872807 171.269565,32.067092 175.157895,32.067092 C179.046224,32.067092 182.744978,30.3872807 185.303579,27.4593684 C192.86266,18.5919052 203.926842,13.4808141 215.578947,13.4736842 C230.224842,13.4736842 243.765895,21.6252632 250.906947,34.7486316 C253.267544,39.0786381 257.805172,41.7729936 262.736842,41.7729936 C267.668512,41.7729936 272.20614,39.0786381 274.566737,34.7486316 C281.554163,21.7187649 295.109783,13.5554073 309.894737,13.4736842 C321.536,13.4736842 332.288,18.4454737 340.170105,27.4593684 C342.728706,30.3872807 346.42746,32.067092 350.315789,32.067092 C354.204119,32.067092 357.902873,30.3872807 360.461474,27.4593684 C368.020554,18.5919052 379.084737,13.4808141 390.736842,13.4736842 Z M390.736842,5.53942856e-15 C375.203218,0.037991539 360.452519,6.823313 350.315789,18.5936842 C340.17906,6.823313 325.428361,0.037991539 309.894737,-4.4408921e-16 C289.441684,-4.4408921e-16 271.872,11.52 262.736842,28.3082105 C253.601684,11.52 236.032,5.53942856e-15 215.578947,5.53942856e-15 C200.045323,0.037991539 185.294624,6.823313 175.157895,18.5936842 C165.021165,6.823313 150.270466,0.037991539 134.736842,1.15229463e-14 C109.295398,0.0109900697 87.3267214,17.8117405 82.0412632,42.6981053 C77.2803523,41.258916 72.3415927,40.4924786 67.3684211,40.4210526 C37.6031798,40.4210526 13.4736842,64.5505482 13.4736842,94.3157895 C13.4736842,103.639579 16.0606316,112.276211 20.224,119.915789 C7.48756209,130.04339 0.0461531537,145.412056 -6.66133815e-16,161.684211 C-6.66133815e-16,177.879579 7.28926316,192.229053 18.5936842,202.105263 C6.823313,212.241993 0.037991539,226.992692 1.13009017e-14,242.526316 C1.13009017e-14,259.476211 7.98989474,274.418526 20.224,284.294737 C15.8550955,292.123906 13.5332613,300.929266 13.4736842,309.894737 C13.4736842,333.419789 28.6450526,353.212632 49.6505263,360.569263 C36.7119868,379.730183 37.4361328,405.008925 51.4503388,423.397744 C65.4645447,441.786564 89.6462564,449.188184 111.552231,441.793935 C133.458206,434.399686 148.207498,413.857107 148.210526,390.736842 C148.210526,367.211789 133.039158,347.418947 112.033684,340.062316 C127.723153,316.89324 122.93292,285.551261 101.039158,268.126316 C105.408062,260.297146 107.729897,251.491787 107.789474,242.526316 C107.751482,226.992692 100.966161,212.241993 89.1957895,202.105263 C100.966161,191.968534 107.751482,177.217835 107.789474,161.684211 C107.789474,152.360421 105.202526,143.723789 101.039158,136.084211 C110.710665,128.387234 117.430368,117.589071 120.064,105.512421 C124.824911,106.95161 129.76367,107.718048 134.736842,107.789474 C150.270466,107.751482 165.021165,100.966161 175.157895,89.1957895 C185.294624,100.966161 200.045323,107.751482 215.578947,107.789474 C236.032,107.789474 253.601684,96.2694737 262.736842,79.4812632 C271.872,96.2694737 289.441684,107.789474 309.894737,107.789474 C325.428361,107.751482 340.17906,100.966161 350.315789,89.1957895 C357.45102,97.4011348 366.916448,103.238306 377.451789,105.930105 C377.424842,106.563368 377.263158,107.156211 377.263158,107.789474 C377.263158,135.006316 397.500632,157.278316 423.706947,160.929684 C411.403553,171.068938 404.256892,186.16237 404.210526,202.105263 C404.210526,220.146526 413.157053,236.018526 426.765474,245.800421 C405.226178,253.312755 390.78033,273.609333 390.736842,296.421053 C390.736842,308.816842 395.088842,320.107789 402.135579,329.216 C386.8654,337.350268 377.307549,353.224793 377.263158,370.526316 C377.263158,374.878316 378.044632,379.001263 379.136,382.989474 C372.361689,379.283856 364.774034,377.316343 357.052632,377.263158 C332.409263,377.263158 312.400842,396.247579 310.298947,420.352 C310.029474,421.658947 309.894737,423.019789 309.894737,424.421053 L309.894737,451.368421 C309.894737,462.484211 318.989474,471.578947 330.105263,471.578947 C341.221053,471.578947 350.315789,462.484211 350.315789,451.368421 L350.315789,434.135579 C357.681351,440.862144 367.288319,444.604058 377.263158,444.631579 C394.686637,444.590942 410.109481,433.354066 415.488,416.781474 C418.384842,417.333895 421.362526,417.684211 424.421053,417.684211 C449.592925,417.656983 470.281807,397.817272 471.363368,372.668632 C487.906208,364.949561 498.49305,348.360358 498.526316,330.105263 C498.526316,318.962526 494.497684,308.870737 488.043789,300.8 C503.019155,290.812993 512.009655,274.000049 512,256 C512,235.546947 500.48,217.977263 483.691789,208.842105 C500.48,199.706947 512,182.137263 512,161.684211 C512,141.500632 500.762947,124.106105 484.338526,114.876632 C484.648421,112.532211 485.052632,110.214737 485.052632,107.789474 C485.016942,83.192711 468.292521,61.7572637 444.442947,55.7406316 C444.469895,55.1208421 444.631579,54.528 444.631579,53.8947368 C444.631579,24.1294956 420.502083,5.53942856e-15 390.736842,5.53942856e-15 Z" id="Shape" fill="#C74343"></path>
            </g>
        </g>
    </g>
</svg>