<?xml version="1.0" encoding="UTF-8"?>
<svg width="100px" height="100px" viewBox="0 0 100 100" version="1.1" xmlns="http://www.w3.org/2000/svg" xmlns:xlink="http://www.w3.org/1999/xlink">
    <!-- Generator: Sketch 51.2 (57519) - http://www.bohemiancoding.com/sketch -->
    <title>Compass</title>
    <desc>Created with Sketch.</desc>
    <defs>
        <polygon id="path-1" points="0.09375 100 0.09375 0.0625 100 0.0625 100 100"></polygon>
    </defs>
    <g id="Page-1" stroke="none" stroke-width="1" fill="none" fill-rule="evenodd">
        <g id="Compass">
            <g id="compass">
                <g id="Page-1">
                    <g id="compass">
                        <g id="Group-3">
                            <g id="Fill-1-Clipped">
                                <mask id="mask-2" fill="white">
                                    <use xlink:href="#path-1"></use>
                                </mask>
                                <g id="path-1"></g>
                                <path d="M100,50 C100,77.6140625 77.6140625,100 50,100 C22.3859375,100 0,77.6140625 0,50 C0,22.3859375 22.3859375,0 50,0 C77.6140625,0 100,22.3859375 100,50" id="Fill-1" fill="#4C5665" fill-rule="nonzero" mask="url(#mask-2)"></path>
                            </g>
                        </g>
                        <path d="M84.375,50 C84.375,68.984375 68.984375,84.375 50,84.375 C31.015625,84.375 15.625,68.984375 15.625,50 C15.625,31.015625 31.015625,15.625 50,15.625 C68.984375,15.625 84.375,31.015625 84.375,50" id="Fill-4" fill="#76ABC4" fill-rule="nonzero"></path>
                        <path d="M50,87.5 C31.015625,87.5 15.625,72.109375 15.625,53.125 C15.625,52.6015625 15.6359375,52.08125 15.659375,51.5625 C16.4765625,69.821875 31.5390625,84.375 50,84.375 C68.4609375,84.375 83.5234375,69.821875 84.340625,51.5625 C84.3640625,52.08125 84.375,52.6015625 84.375,53.125 C84.375,72.109375 68.984375,87.5 50,87.5" id="Fill-5" fill="#414A55" fill-rule="nonzero"></path>
                        <path d="M78.08125,51.5625 C77.26875,36.778125 64.984375,25 50,25 C35.015625,25 22.73125,36.778125 21.9171875,51.5625 C21.8889698,51.0421451 21.8749021,50.5211194 21.875,50 C21.875,34.4921875 34.4921875,21.875 50,21.875 C65.5078125,21.875 78.125,34.4921875 78.125,50 C78.125,50.525 78.1109375,51.0453125 78.08125,51.5625" id="Fill-6" fill="#638DA0" fill-rule="nonzero"></path>
                        <path d="M50,15.625 C31.015625,15.625 15.625,31.015625 15.625,50 C15.625,68.984375 31.015625,84.375 50,84.375 C68.984375,84.375 84.375,68.984375 84.375,50 C84.375,31.015625 68.984375,15.625 50,15.625 M50,21.875 C65.5078125,21.875 78.125,34.4921875 78.125,50 C78.125,65.5078125 65.5078125,78.125 50,78.125 C34.4921875,78.125 21.875,65.5078125 21.875,50 C21.875,34.4921875 34.4921875,21.875 50,21.875" id="Fill-7" fill="#FFFFFE" fill-rule="nonzero"></path>
                        <path d="M36.328125,68.75 C35.8234375,68.75 35.325,68.5546875 34.9453125,68.1796875 C34.3005586,67.5380969 34.1869586,66.5351718 34.671875,65.765625 L35.053125,65.1546875 C35.70422,65.7077673 36.6377081,65.7778262 37.3640625,65.328125 L44.6328125,60.7890625 L46.0828125,59.8859375 C47.1081169,60.4815114 48.2562335,60.8342846 49.4390625,60.9171875 L44.6328125,63.9140625 L37.3640625,68.453125 C37.053772,68.6480558 36.6945636,68.7509964 36.328125,68.75 M57.7921875,52.5640625 C57.7330135,51.7207084 57.5366863,50.8926509 57.2109375,50.1125 C57.5578125,49.7453125 57.7640625,49.515625 57.7609375,49.4890625 L64.9453125,37.9765625 C65.6811102,38.6016959 65.8443627,39.673165 65.328125,40.4890625 L57.7921875,52.5640625" id="Fill-8" fill="#638DA0" fill-rule="nonzero"></path>
                        <path d="M46.09375,50 C46.09375,52.1573623 47.8426377,53.90625 50,53.90625 C52.1573623,53.90625 53.90625,52.1573623 53.90625,50 C53.90625,47.8426377 52.1573623,46.09375 50,46.09375 C47.8426377,46.09375 46.09375,47.8426377 46.09375,50 M65.328125,37.3625 L57.7609375,49.4890625 C57.7734375,49.6609375 49.659375,57.7734375 49.4890625,57.7609375 L44.6328125,60.7890625 L37.3640625,65.328125 C36.5915737,65.8072102 35.591352,65.694136 34.9453125,65.0546875 C34.3005586,64.4130969 34.1869586,63.4101718 34.671875,62.640625 L42.2375,50.515625 C42.2265625,50.340625 50.3390625,42.2265625 50.5109375,42.2375 L55.3671875,39.2109375 L62.6375,34.671875 C63.4081663,34.1908164 64.4090131,34.306199 65.05,34.95 C65.7,35.590625 65.8125,36.5890625 65.328125,37.3625" id="Fill-9" fill="#B85756" fill-rule="nonzero"></path>
                        <path d="M50,60.9375 C49.8109375,60.9375 49.6234375,60.93125 49.4390625,60.9171875 L49.4890625,60.8875 C49.671875,60.8875 57.7734375,52.784375 57.7609375,52.6140625 L57.7921875,52.5640625 C57.9479524,54.7278903 57.1969619,56.8590549 55.7190574,58.4472022 C54.2411529,60.0353494 52.169427,60.9374587 50,60.9375 M50.315625,57.01875 C51.1640625,56.2078125 52.5453125,54.8453125 53.8890625,53.4984375 C53.7082043,55.3826986 52.2023835,56.866133 50.315625,57.01875" id="Fill-10" fill="#638DA0" fill-rule="nonzero"></path>
                        <path d="M49.4390625,60.9171875 C48.2562335,60.8342846 47.1081169,60.4815114 46.0828125,59.8859375 L49.4890625,57.7609375 C49.5234375,57.7609375 49.8328125,57.4796875 50.315625,57.01875 C52.2023835,56.866133 53.7082043,55.3826986 53.8890625,53.4984375 C55.215625,52.1703125 56.50625,50.859375 57.2109375,50.1125 C57.5296875,50.8765625 57.73125,51.7 57.7921875,52.5640625 L57.7609375,52.6140625 C57.7734375,52.784375 49.671875,60.8875 49.4890625,60.8875 L49.4390625,60.9171875" id="Fill-11" fill="#577685" fill-rule="nonzero"></path>
                        <path d="M50,53.90625 C48.4465058,53.9062858 47.0405204,52.9861383 46.41875,51.5625 C47.0404581,50.1387811 48.4464568,49.2185439 50,49.2185439 C51.5535432,49.2185439 52.9595419,50.1387811 53.58125,51.5625 C52.9594796,52.9861383 51.5534942,53.9062858 50,53.90625 M46.1109375,49.6265625 C46.2917957,47.7423014 47.7976165,46.258867 49.684375,46.10625 C48.8359375,46.9171875 47.4546875,48.28125 46.1109375,49.6265625" id="Fill-12" fill="#638DA0" fill-rule="nonzero"></path>
                        <path d="M53.58125,51.5625 C52.9595419,50.1387811 51.5535432,49.2185439 50,49.2185439 C48.4464568,49.2185439 47.0404581,50.1387811 46.41875,51.5625 C46.1525956,50.9540361 46.046628,50.2875699 46.1109375,49.6265625 C47.4546875,48.28125 48.8359375,46.9171875 49.684375,46.10625 C51.0539719,45.9947715 52.3814121,46.6111189 53.1800462,47.7293347 C53.9786803,48.8475505 54.1310327,50.3031502 53.58125,51.5625" id="Fill-13" fill="#577685" fill-rule="nonzero"></path>
                        <path d="M42.984375,49.684375 C43.730234,48.1691863 44.9451167,46.9351242 46.4484375,46.165625 C45.121875,47.490625 43.784375,48.8453125 42.984375,49.684375" id="Fill-14" fill="#638DA0" fill-rule="nonzero"></path>
                        <path d="M46.0828125,59.8859375 C42.5283008,57.8290737 41.174171,53.3706202 42.984375,49.684375 C43.784375,48.8453125 45.121875,47.490625 46.4484375,46.165625 C48.3864383,45.1774179 50.6485735,45.0414715 52.6909743,45.7904704 C54.7333752,46.5394693 56.3712938,48.1056619 57.2109375,50.1125 C56.50625,50.859375 55.215625,52.1703125 53.8890625,53.4984375 C52.5453125,54.8453125 51.1640625,56.2078125 50.315625,57.01875 C49.8328125,57.4796875 49.5234375,57.7609375 49.4890625,57.7609375 L46.0828125,59.8859375 M46.41875,51.5625 C46.9775357,52.8419575 48.1764574,53.7261163 49.5638929,53.8819224 C50.9513284,54.0377285 52.3164932,53.4415112 53.145143,52.3178598 C53.9737927,51.1942085 54.1400358,49.7138324 53.58125,48.434375 C52.7174421,46.4565053 50.4138073,45.5533798 48.4359376,46.4171877 C46.4580679,47.2809955 45.5549423,49.5846303 46.41875,51.5625" id="Fill-15" fill="#974D4C" fill-rule="nonzero"></path>
                        <path d="M57.8125,50 C57.8122209,52.7914166 56.3227601,55.370643 53.9051828,56.7661096 C51.4876056,58.1615761 48.5091996,58.1612783 46.0919015,56.7653283 C43.6746034,55.3693783 42.1856583,52.7898541 42.1859375,49.9984375 C42.1863691,45.6832815 45.684844,42.1855062 50,42.1859377 C54.315156,42.1863691 57.8129314,45.684844 57.8125,50" id="Fill-16" fill="#FFFFFE" fill-rule="nonzero"></path>
                    </g>
                </g>
            </g>
        </g>
    </g>
</svg>