<?xml version="1.0" encoding="UTF-8"?>
<svg width="213px" height="171px" viewBox="0 0 213 171" version="1.1" xmlns="http://www.w3.org/2000/svg" xmlns:xlink="http://www.w3.org/1999/xlink">
    <!-- Generator: Sketch 51.2 (57519) - http://www.bohemiancoding.com/sketch -->
    <title>Fluvax@3x</title>
    <desc>Created with Sketch.</desc>
    <defs>
        <path d="M97.1666667,44.1666667 C95.8416667,44.1666667 94.9583333,43.725 94.075,42.8416667 L63.1583333,11.925 C61.3916667,10.1583333 61.3916667,7.50833333 63.1583333,5.74166667 C64.925,3.975 67.575,3.975 69.3416667,5.74166667 L100.258333,36.6583333 C102.025,38.425 102.025,41.075 100.258333,42.8416667 C99.375,43.725 98.4916667,44.1666667 97.1666667,44.1666667 Z M101.583333,26.5 C100.258333,26.5 99.375,26.0583333 98.4916667,25.175 L80.825,7.50833333 C79.0583333,5.74166667 79.0583333,3.09166667 80.825,1.325 C82.5916667,-0.441666667 85.2416667,-0.441666667 87.0083333,1.325 L104.675,18.9916667 C106.441667,20.7583333 106.441667,23.4083333 104.675,25.175 C103.791667,26.0583333 102.908333,26.5 101.583333,26.5 Z M4.41666667,106 C3.09166667,106 2.20833333,105.558333 1.325,104.675 C-0.441666667,102.908333 -0.441666667,100.258333 1.325,98.4916667 L30.0333333,69.7833333 C31.8,68.0166667 34.45,68.0166667 36.2166667,69.7833333 C37.9833333,71.55 37.9833333,74.2 36.2166667,75.9666667 L7.50833333,104.675 C6.625,105.558333 5.74166667,106 4.41666667,106 Z" id="path-1"></path>
    </defs>
    <g id="Page-1" stroke="none" stroke-width="1" fill="none" fill-rule="evenodd">
        <g id="Fluvax" transform="translate(-4.000000, 1.000000)">
            <text id="Flu-Vax" font-family="AvenirNext-Bold, Avenir Next" font-size="64" font-weight="bold" letter-spacing="-1.54352903" fill="#CCCCCC">
                <tspan x="0.262351618" y="169">Flu Vax</tspan>
            </text>
            <g id="Syringe" transform="translate(63.000000, 0.000000)" fill-rule="nonzero" stroke="#CCCCCC">
                <g id="Group">
                    <path d="M39.75,83.9166667 C38.425,83.9166667 37.5416667,83.475 36.6583333,82.5916667 L23.4083333,69.3416667 C21.6416667,67.575 21.6416667,64.925 23.4083333,63.1583333 L71.9916667,14.575 C73.7583333,12.8083333 76.4083333,12.8083333 78.175,14.575 L91.425,27.825 C93.1916667,29.5916667 93.1916667,32.2416667 91.425,34.0083333 L42.8416667,82.5916667 C41.9583333,83.475 41.075,83.9166667 39.75,83.9166667 Z M32.6833333,66.25 L39.75,73.3166667 L82.15,30.9166667 L75.0833333,23.85 L32.6833333,66.25 Z" id="Shape" fill="#CCCCCC"></path>
                    <g id="Shape">
                        <use fill="#CCCCCC" xlink:href="#path-1"></use>
                        <use xlink:href="#path-1"></use>
                        <use xlink:href="#path-1"></use>
                        <use xlink:href="#path-1"></use>
                    </g>
                    <path d="M81.7083333,28.7083333 C80.3833333,28.7083333 79.5,28.2666667 78.6166667,27.3833333 C76.85,25.6166667 76.85,22.9666667 78.6166667,21.2 L89.6583333,10.1583333 C91.425,8.39166667 94.075,8.39166667 95.8416667,10.1583333 C97.6083333,11.925 97.6083333,14.575 95.8416667,16.3416667 L84.8,27.3833333 C83.9166667,28.2666667 83.0333333,28.7083333 81.7083333,28.7083333 Z" id="Shape" fill="#CCCCCC"></path>
                </g>
            </g>
        </g>
    </g>
</svg>