<?xml version="1.0" encoding="UTF-8"?>
<svg width="348px" height="476px" viewBox="0 0 348 476" version="1.1" xmlns="http://www.w3.org/2000/svg" xmlns:xlink="http://www.w3.org/1999/xlink">
    <!-- Generator: Sketch 51.2 (57519) - http://www.bohemiancoding.com/sketch -->
    <title>Medical, Treatment, Pill, Bottle, Medicine, Spirit</title>
    <desc>Created with Sketch.</desc>
    <defs></defs>
    <g id="Page-1" stroke="none" stroke-width="1" fill="none" fill-rule="evenodd">
        <g id="Medical,-Treatment,-Pill,-Bottle,-Medicine,-Spirit" transform="translate(0.000000, -18.000000)" fill="#000000" fill-rule="nonzero">
            <g id="svg4679">
                <g id="layer1" transform="translate(0.000000, 11.662629)">
                    <path d="M63.6608677,6.64137143 C63.2814571,6.61755604 62.9009319,6.61755604 62.5215214,6.64137143 L38.8445477,6.64137143 C17.4865353,6.64137143 7.31428572e-05,22.8827429 7.31428572e-05,44.2953143 L7.31428572e-05,96.0841143 L7.31428572e-05,125.851429 C-0.0200411429,130.923886 4.08885943,135.041829 9.15042194,135.023543 L18.0159342,135.023543 L18.0159342,443.114057 C18.0159342,464.522971 35.5025243,482.051657 56.8604142,482.051657 L290.603758,482.051657 C311.961637,482.051657 329.448832,464.522971 329.448247,443.114057 L329.448247,135.023543 L338.313765,135.023543 C343.36139,135.021714 347.44768,130.909257 347.428498,125.851429 L347.428498,96.0841143 L347.428498,44.2953143 L347.393755,44.6244571 C348.117504,22.8608 329.946533,6.72 308.584869,6.72 L283.519323,6.72 C283.151753,6.69765181 282.783169,6.69765181 282.415598,6.72 C282.107195,6.7042804 281.798195,6.7042804 281.489792,6.72 L228.830757,6.72 C228.463186,6.69765181 228.094602,6.69765181 227.727031,6.72 C227.418628,6.7042804 227.109628,6.7042804 226.801225,6.72 L174.391442,6.72 C173.941078,6.68640377 173.488846,6.68640377 173.038482,6.72 C172.65906,6.69618308 172.278522,6.69618308 171.899099,6.72 L119.702949,6.72 C119.252585,6.68640377 118.800353,6.68640377 118.349989,6.72 C117.970566,6.69618308 117.590028,6.69618308 117.210606,6.72 L65.0144402,6.72 C64.5640701,6.68640286 64.111832,6.68640286 63.6614619,6.72 L63.6608677,6.64137143 Z M38.8445513,24.9856 L54.6885413,24.9856 L54.6885413,88.8374857 C54.6420752,92.1326133 56.3691016,95.1975663 59.2083133,96.8587231 C62.047525,98.51988 65.5590468,98.51988 68.3982586,96.8587231 C71.2374703,95.1975663 72.9644967,92.1326133 72.9180306,88.8374857 L72.9180306,24.9856 L109.377006,24.9856 L109.377006,88.8374857 C109.330728,92.132492 111.057798,95.1972503 113.896934,96.8582907 C116.736071,98.5193312 120.247445,98.5193312 123.086581,96.8582907 C125.925717,95.1972503 127.652787,92.132492 127.60651,88.8374857 L127.60651,24.9856 L164.065481,24.9856 L164.065481,88.8374857 C164.018968,92.1326435 165.745984,95.197645 168.585214,96.858831 C171.424445,98.5200169 174.936003,98.5200169 177.775234,96.858831 C180.614464,95.197645 182.34148,92.1326435 182.294967,88.8374857 L182.294967,24.9856 L218.753938,24.9856 L218.753938,88.8740571 C218.707411,92.1692242 220.434424,95.2342405 223.27366,96.8954352 C226.112896,98.5566299 229.624466,98.5566299 232.463702,96.8954352 C235.302939,95.2342405 237.029951,92.1692242 236.983424,88.8740571 L236.983424,24.9856 L273.442414,24.9856 L273.442414,88.8740571 C273.395886,92.1692242 275.122899,95.2342405 277.962135,96.8954352 C280.801372,98.5566299 284.312942,98.5566299 287.152178,96.8954352 C289.991414,95.2342405 291.718427,92.1692242 291.671899,88.8740571 L291.671899,24.9856 L308.584009,24.9856 C320.154661,24.9856 329.608101,32.7442286 329.234615,43.9753143 L329.163301,44.2861714 L329.163301,96.0749714 L329.163301,116.739657 L18.2650569,116.739657 L18.2650569,96.0749714 L18.2650569,44.2861714 C18.2650569,32.6838857 27.2701202,24.9764571 38.8444416,24.9764571 L38.8445513,24.9856 Z M36.2810295,135.023543 L311.183141,135.023543 L311.183141,226.000457 L36.2810295,226.000457 L36.2810295,135.023543 Z M36.2810295,244.2752 L311.183141,244.2752 L311.183141,353.883429 L36.2810295,353.883429 L36.2810295,244.2752 Z M100.262272,262.549943 C87.9362011,262.367086 87.9362011,280.9984 100.262272,280.824686 L246.098176,280.824686 C258.424247,281.007543 258.424247,262.376229 246.098176,262.549943 L100.262272,262.549943 Z M100.262272,317.372343 C87.9362011,317.189486 87.9362011,335.8208 100.262272,335.645257 L246.098176,335.645257 C258.424247,335.828114 258.424247,317.198629 246.098176,317.372343 L100.262272,317.372343 Z M36.2810295,372.192914 L311.183141,372.192914 L311.183141,443.114057 C311.183141,454.716343 302.177829,463.776914 290.603758,463.776914 L56.8604142,463.776914 C45.286347,463.776914 36.2810295,454.716343 36.2810295,443.114057 L36.2810295,372.192914 Z" id="path9168"></path>
                </g>
            </g>
        </g>
    </g>
</svg>