<?xml version="1.0" encoding="UTF-8"?>
<svg width="100px" height="100px" viewBox="0 0 100 100" version="1.1" xmlns="http://www.w3.org/2000/svg" xmlns:xlink="http://www.w3.org/1999/xlink">
    <!-- Generator: Sketch 51.2 (57519) - http://www.bohemiancoding.com/sketch -->
    <title>Money Exchange</title>
    <desc>Created with Sketch.</desc>
    <defs></defs>
    <g id="Page-1" stroke="none" stroke-width="1" fill="none" fill-rule="evenodd">
        <g id="Money-Exchange" fill-rule="nonzero">
            <g id="Banking-Financial-money-exchange">
                <g id="Banking-Financial-money_exchange">
                    <path d="M77.5862069,44.8275862 C89.965003,44.8275862 100,34.7925892 100,22.4137931 C100,10.034997 89.965003,1.65384947e-15 77.5862069,8.8817842e-16 C65.2074108,1.22507368e-16 55.1724138,10.034997 55.1724138,22.4137931 C55.1724138,34.7925892 65.2074108,44.8275862 77.5862069,44.8275862 Z M77.5862069,5.17241379 C87.1083578,5.17241379 94.8275862,12.8916422 94.8275862,22.4137931 C94.8275862,31.935944 87.1083578,39.6551724 77.5862069,39.6551724 C68.064056,39.6551724 60.3448276,31.935944 60.3448276,22.4137931 C60.3552799,12.8959751 68.0683889,5.18286616 77.5862069,5.17241379 Z" id="Shape" fill="#00D7DF"></path>
                    <path d="M77.5862069,39.6551724 C87.1083578,39.6551724 94.8275862,31.935944 94.8275862,22.4137931 C94.8275862,12.8916422 87.1083578,5.17241379 77.5862069,5.17241379 C68.064056,5.17241379 60.3448276,12.8916422 60.3448276,22.4137931 C60.3552799,31.9316111 68.0683889,39.6447201 77.5862069,39.6551724 Z M77.5862069,22.4137931 C74.7295616,22.4137931 72.4137931,20.0980246 72.4137931,17.2413793 C72.4137931,14.3847341 74.7295616,12.0689655 77.5862069,12.0689655 C80.4428522,12.0689655 82.7586207,14.3847341 82.7586207,17.2413793 C82.7586207,14.3847341 80.4428522,12.0689655 77.5862069,12.0689655 C74.7295616,12.0689655 72.4137931,14.3847341 72.4137931,17.2413793 C72.4137931,20.0980246 74.7295616,22.4137931 77.5862069,22.4137931 C80.4428522,22.4137931 82.7586207,24.7295616 82.7586207,27.5862069 C82.7586207,30.4428522 80.4428522,32.7586207 77.5862069,32.7586207 C74.7295616,32.7586207 72.4137931,30.4428522 72.4137931,27.5862069 C72.4137931,30.4428522 74.7295616,32.7586207 77.5862069,32.7586207 C80.4428522,32.7586207 82.7586207,30.4428522 82.7586207,27.5862069 C82.7586207,24.7295616 80.4428522,22.4137931 77.5862069,22.4137931 Z" id="Shape" fill="#FF5023"></path>
                    <path d="M22.4137931,100 C34.7925892,100 44.8275862,89.965003 44.8275862,77.5862069 C44.8275862,65.2074108 34.7925892,55.1724138 22.4137931,55.1724138 C10.034997,55.1724138 2.41952052e-15,65.2074108 8.8817842e-16,77.5862069 C2.41952052e-15,89.965003 10.034997,100 22.4137931,100 Z M22.4137931,60.3448276 C31.935944,60.3448276 39.6551724,68.064056 39.6551724,77.5862069 C39.6551724,87.1083578 31.935944,94.8275862 22.4137931,94.8275862 C12.8916422,94.8275862 5.17241379,87.1083578 5.17241379,77.5862069 C5.18286616,68.0683889 12.8959751,60.3552799 22.4137931,60.3448276 Z" id="Shape" fill="#FF5023"></path>
                    <path d="M22.4137931,94.8275862 C31.935944,94.8275862 39.6551724,87.1083578 39.6551724,77.5862069 C39.6551724,68.064056 31.935944,60.3448276 22.4137931,60.3448276 C12.8916422,60.3448276 5.17241379,68.064056 5.17241379,77.5862069 C5.18286616,87.1040249 12.8959751,94.8171338 22.4137931,94.8275862 Z M22.4137931,67.2413793 C26.2226534,67.2413793 29.3103448,70.3290707 29.3103448,74.137931 C29.3103448,77.9467914 26.2226534,81.0344828 22.4137931,81.0344828 C26.2226534,81.0344828 29.3103448,77.9467914 29.3103448,74.137931 C29.3103448,70.3290707 26.2226534,67.2413793 22.4137931,67.2413793 C18.6049328,67.2413793 15.5172414,70.3290707 15.5172414,74.137931 C15.5172414,70.3290707 18.6049328,67.2413793 22.4137931,67.2413793 Z" id="Shape" fill="#00D7DF"></path>
                    <polygon id="Shape" fill="#FF5023" points="51.6344828 24.137931 51.6155172 20.6896552 47.9517241 20.6896552 47.9517241 24.137931"></polygon>
                    <polygon id="Shape" fill="#FF5023" points="29.6327586 20.6896552 25.9689655 20.6896552 25.9689655 24.137931 29.6517241 24.137931"></polygon>
                    <polygon id="Shape" fill="#FF5023" points="40.6241379 20.6896552 36.9603448 20.6896552 36.9603448 24.137931 40.6431034 24.137931"></polygon>
                    <polygon id="Shape" fill="#FF5023" points="35.1293103 20.6896552 31.4655172 20.6896552 31.4655172 24.137931 35.1482759 24.137931"></polygon>
                    <path d="M24.1568966,24.137931 L24.137931,20.6896552 L22.4137931,20.6896552 C21.461578,20.6896552 20.6896552,21.461578 20.6896552,22.4137931 L20.6896552,24.137931 L24.1568966,24.137931 Z" id="Shape" fill="#FF5023"></path>
                    <polygon id="Shape" fill="#FF5023" points="46.1206897 20.6896552 42.4568966 20.6896552 42.4568966 24.137931 46.1396552 24.137931"></polygon>
                    <polygon id="Shape" fill="#FF5023" points="24.137931 42.4568966 24.137931 42.437931 20.6896552 42.4568966 20.6896552 46.1206897 24.137931 46.1206897"></polygon>
                    <polygon id="Shape" fill="#FF5023" points="24.137931 25.9706897 24.137931 25.9517241 20.6896552 25.9706897 20.6896552 29.6344828 24.137931 29.6344828"></polygon>
                    <polygon id="Shape" fill="#FF5023" points="24.137931 36.962069 24.137931 36.9431034 20.6896552 36.962069 20.6896552 40.6258621 24.137931 40.6258621"></polygon>
                    <polygon id="Shape" fill="#FF5023" points="24.137931 47.9534483 24.137931 47.9344828 20.6896552 47.9534483 20.6896552 51.6172414 24.137931 51.6172414 24.137931 47.9534483"></polygon>
                    <polygon id="Shape" fill="#FF5023" points="24.137931 31.4655172 24.137931 31.4465517 20.6896552 31.4655172 20.6896552 35.1293103 24.137931 35.1293103"></polygon>
                    <polygon id="Shape" fill="#00D7DF" points="48.3655172 75.862069 48.3827586 79.3103448 52.0465517 79.3103448 52.0465517 75.862069"></polygon>
                    <polygon id="Shape" fill="#00D7DF" points="70.3482759 75.862069 70.3655172 79.3103448 74.0293103 79.3103448 74.0293103 75.862069"></polygon>
                    <polygon id="Shape" fill="#00D7DF" points="64.8517241 75.862069 64.8706897 79.3103448 68.5344828 79.3103448 68.5344828 75.862069"></polygon>
                    <polygon id="Shape" fill="#00D7DF" points="59.3568966 75.862069 59.3741379 79.3103448 63.037931 79.3103448 63.037931 75.862069"></polygon>
                    <path d="M75.8431034,75.862069 L75.862069,79.3103448 L77.5862069,79.3103448 C78.538422,79.3103448 79.3103448,78.538422 79.3103448,77.5862069 L79.3103448,75.862069 L75.8431034,75.862069 Z" id="Shape" fill="#00D7DF"></path>
                    <polygon id="Shape" fill="#00D7DF" points="53.8603448 75.862069 53.8793103 79.3103448 57.5431034 79.3103448 57.5431034 75.862069"></polygon>
                    <polygon id="Shape" fill="#00D7DF" points="75.862069 63.0568966 79.3103448 63.0396552 79.3103448 59.3758621 75.862069 59.3758621"></polygon>
                    <polygon id="Shape" fill="#00D7DF" points="75.862069 68.5534483 79.3103448 68.5344828 79.3103448 64.8706897 75.862069 64.8706897"></polygon>
                    <polygon id="Shape" fill="#00D7DF" points="75.862069 57.562069 79.3103448 57.5431034 79.3103448 53.8793103 75.862069 53.8793103"></polygon>
                    <polygon id="Shape" fill="#00D7DF" points="75.862069 74.0310345 75.862069 74.0482759 79.3103448 74.0310345 79.3103448 70.3672414 75.862069 70.3672414"></polygon>
                    <polygon id="Shape" fill="#00D7DF" points="75.862069 52.0655172 79.3103448 52.0482759 79.3103448 48.3844828 75.862069 48.3844828"></polygon>
                    <path d="M77.5862069,13.7931034 C79.4906371,13.7931034 81.0344828,15.3369491 81.0344828,17.2413793 L84.4827586,17.2413793 C84.4710089,14.1061869 82.3460089,11.3734368 79.3103448,10.5896552 L79.3103448,8.62068966 L75.862069,8.62068966 L75.862069,10.5896552 C72.5029755,11.4542168 70.3120686,14.6832423 70.7499433,18.1240622 C71.1878181,21.5648821 74.1176399,24.1422496 77.5862069,24.137931 C79.4906371,24.137931 81.0344828,25.6817767 81.0344828,27.5862069 C81.0344828,29.4906371 79.4906371,31.0344828 77.5862069,31.0344828 C75.6817767,31.0344828 74.137931,29.4906371 74.137931,27.5862069 L70.6896552,27.5862069 C70.7014049,30.7213993 72.8264049,33.4541494 75.862069,34.237931 L75.862069,36.2068966 L79.3103448,36.2068966 L79.3103448,34.237931 C82.6694383,33.3733695 84.8603452,30.1443439 84.4224705,26.703524 C83.9845957,23.2627041 81.0547739,20.6853366 77.5862069,20.6896552 C75.6817767,20.6896552 74.137931,19.1458095 74.137931,17.2413793 C74.137931,15.3369491 75.6817767,13.7931034 77.5862069,13.7931034 Z" id="Shape" fill="#00D7DF"></path>
                    <path d="M22.4137931,65.5172414 C17.6550808,65.5229416 13.7988036,69.3792187 13.7931034,74.137931 L17.2413793,74.137931 C17.2413793,72.0458849 18.5015975,70.1598352 20.434396,69.3592438 C22.3671946,68.5586524 24.591942,69.0011822 26.071242,70.4804822 C27.550542,71.9597821 27.9930717,74.1845295 27.1924803,76.1173281 C26.391889,78.0501267 24.5058392,79.3103448 22.4137931,79.3103448 C21.461578,79.3103448 20.6896552,80.0822677 20.6896552,81.0344828 L20.6896552,87.9310345 L24.137931,87.9310345 L24.137931,82.5862069 C28.4782634,81.7048763 31.4446012,77.6780441 30.9995016,73.2715585 C30.5544021,68.865073 26.8426992,65.5127903 22.4137931,65.5172414 Z" id="Shape" fill="#FF5023"></path>
                    <polygon id="Shape" fill="#FF5023" points="20.6896552 89.6551724 24.137931 89.6551724 24.137931 91.3793103 20.6896552 91.3793103"></polygon>
                </g>
            </g>
        </g>
    </g>
</svg>