<?xml version="1.0" encoding="UTF-8"?>
<svg width="69px" height="84px" viewBox="0 0 69 84" version="1.1" xmlns="http://www.w3.org/2000/svg" xmlns:xlink="http://www.w3.org/1999/xlink">
    <!-- Generator: Sketch 51.2 (57519) - http://www.bohemiancoding.com/sketch -->
    <title>Nature</title>
    <desc>Created with Sketch.</desc>
    <defs></defs>
    <g id="Page-1" stroke="none" stroke-width="1" fill="none" fill-rule="evenodd">
        <g id="Nature" transform="translate(-15.000000, -12.000000)">
            <g id="Group">
                <polygon id="Frames-24px" points="0 0 100 0 100 100 0 100"></polygon>
                <g id="Outline" transform="translate(15.039062, 12.500000)" fill="#7ED321" fill-rule="nonzero">
                    <path d="M22.8859375,32.0791667 C24.6402423,30.0582446 25.5196162,27.4230498 25.3305043,24.7536026 C25.1413924,22.0841555 23.899295,19.5992522 21.8776042,17.8458333 C17.6776042,14.1958333 0.0359375,12.2416667 0.0359375,12.2416667 C0.0359375,12.2416667 3.58177083,28.6666667 8.65677083,33.0791667 C12.8631939,36.7292924 19.2313884,36.2817472 22.8859375,32.0791667 Z" id="Shape"></path>
                    <path d="M39.1359375,37.8041667 C39.1359375,36.4583333 39.5609375,34.9125 40.3234375,33.3291667 C46.1859188,37.1278008 53.91515,36.2573683 58.7859375,31.25 C64.4317708,25.4541667 68.7317708,0.025 68.7317708,0.025 C68.7317708,0.025 44.6026042,3.80833333 37.7859375,10.8083333 C33.7525422,14.958852 32.5424756,21.0957346 34.6984375,26.4666667 C32.0734375,30.3 30.8026042,34.3666667 30.8026042,37.8041667 L30.8026042,50.0083333 L39.1359375,50.0083333 L39.1359375,37.8041667 Z" id="Shape"></path>
                    <path d="M58.6109375,54.175 L11.3276042,54.175 C10.0196189,54.173844 8.78715858,54.7875621 7.99987889,55.8320799 C7.21259921,56.8765977 6.96207156,58.2304235 7.3234375,59.4875 L13.2776042,80.3208333 C13.7888842,82.1083513 15.4225702,83.3408407 17.2817708,83.3416667 L52.6609375,83.3416667 C54.521079,83.3436516 56.1562686,82.1100278 56.6651042,80.3208333 L62.6192708,59.4875 C62.9826979,58.2295844 62.7324242,56.8739645 61.943793,55.8287412 C61.1551618,54.783518 59.9202935,54.1707843 58.6109375,54.175 Z" id="Shape"></path>
                </g>
            </g>
        </g>
    </g>
</svg>