<?xml version="1.0" encoding="UTF-8"?>
<svg width="100px" height="100px" viewBox="0 0 100 100" version="1.1" xmlns="http://www.w3.org/2000/svg" xmlns:xlink="http://www.w3.org/1999/xlink">
    <!-- Generator: Sketch 51.2 (57519) - http://www.bohemiancoding.com/sketch -->
    <title>Network</title>
    <desc>Created with Sketch.</desc>
    <defs></defs>
    <g id="Page-1" stroke="none" stroke-width="1" fill="none" fill-rule="evenodd">
        <g id="Network" transform="translate(50.000000, 50.000000) rotate(270.000000) translate(-50.000000, -50.000000) " fill="#4A90E2" fill-rule="nonzero">
            <g id="Group">
                <path d="M12.5,100 C5.41666667,100 0,94.5833333 0,87.5 C0,80.4166667 5.41666667,75 12.5,75 C19.5833333,75 25,80.4166667 25,87.5 C25,94.5833333 19.5833333,100 12.5,100 Z M12.5,83.3333333 C10,83.3333333 8.33333333,85 8.33333333,87.5 C8.33333333,90 10,91.6666667 12.5,91.6666667 C15,91.6666667 16.6666667,90 16.6666667,87.5 C16.6666667,85 15,83.3333333 12.5,83.3333333 Z M87.5,100 C80.4166667,100 75,94.5833333 75,87.5 C75,80.4166667 80.4166667,75 87.5,75 C94.5833333,75 100,80.4166667 100,87.5 C100,94.5833333 94.5833333,100 87.5,100 Z M87.5,83.3333333 C85,83.3333333 83.3333333,85 83.3333333,87.5 C83.3333333,90 85,91.6666667 87.5,91.6666667 C90,91.6666667 91.6666667,90 91.6666667,87.5 C91.6666667,85 90,83.3333333 87.5,83.3333333 Z M50,100 C42.9166667,100 37.5,94.5833333 37.5,87.5 C37.5,80.4166667 42.9166667,75 50,75 C57.0833333,75 62.5,80.4166667 62.5,87.5 C62.5,94.5833333 57.0833333,100 50,100 Z M50,83.3333333 C47.5,83.3333333 45.8333333,85 45.8333333,87.5 C45.8333333,90 47.5,91.6666667 50,91.6666667 C52.5,91.6666667 54.1666667,90 54.1666667,87.5 C54.1666667,85 52.5,83.3333333 50,83.3333333 Z M50,25 C42.9166667,25 37.5,19.5833333 37.5,12.5 C37.5,5.41666667 42.9166667,0 50,0 C57.0833333,0 62.5,5.41666667 62.5,12.5 C62.5,19.5833333 57.0833333,25 50,25 Z M50,8.33333333 C47.5,8.33333333 45.8333333,10 45.8333333,12.5 C45.8333333,15 47.5,16.6666667 50,16.6666667 C52.5,16.6666667 54.1666667,15 54.1666667,12.5 C54.1666667,10 52.5,8.33333333 50,8.33333333 Z" id="Shape"></path>
                <path d="M87.5,83.3333333 C85,83.3333333 83.3333333,81.6666667 83.3333333,79.1666667 L83.3333333,58.3333333 C83.3333333,55.8333333 81.6666667,54.1666667 79.1666667,54.1666667 L20.8333333,54.1666667 C18.3333333,54.1666667 16.6666667,55.8333333 16.6666667,58.3333333 L16.6666667,79.1666667 C16.6666667,81.6666667 15,83.3333333 12.5,83.3333333 C10,83.3333333 8.33333333,81.6666667 8.33333333,79.1666667 L8.33333333,58.3333333 C8.33333333,51.25 13.75,45.8333333 20.8333333,45.8333333 L79.1666667,45.8333333 C86.25,45.8333333 91.6666667,51.25 91.6666667,58.3333333 L91.6666667,79.1666667 C91.6666667,81.6666667 90,83.3333333 87.5,83.3333333 Z" id="Shape"></path>
                <path d="M50,83.3333333 C47.5,83.3333333 45.8333333,81.6666667 45.8333333,79.1666667 L45.8333333,50 C45.8333333,47.5 47.5,45.8333333 50,45.8333333 C52.5,45.8333333 54.1666667,47.5 54.1666667,50 L54.1666667,79.1666667 C54.1666667,81.6666667 52.5,83.3333333 50,83.3333333 Z" id="Shape"></path>
                <path d="M50,54.1666667 C47.5,54.1666667 45.8333333,52.5 45.8333333,50 L45.8333333,20.8333333 C45.8333333,18.3333333 47.5,16.6666667 50,16.6666667 C52.5,16.6666667 54.1666667,18.3333333 54.1666667,20.8333333 L54.1666667,50 C54.1666667,52.5 52.5,54.1666667 50,54.1666667 Z" id="Shape"></path>
            </g>
        </g>
    </g>
</svg>