<?xml version="1.0" encoding="UTF-8"?>
<svg width="100px" height="97px" viewBox="0 0 100 97" version="1.1" xmlns="http://www.w3.org/2000/svg" xmlns:xlink="http://www.w3.org/1999/xlink">
    <!-- Generator: Sketch 51.2 (57519) - http://www.bohemiancoding.com/sketch -->
    <title>Open Source</title>
    <desc>Created with Sketch.</desc>
    <defs></defs>
    <g id="Page-1" stroke="none" stroke-width="1" fill="none" fill-rule="evenodd">
        <g id="Open-Source" fill="#4CAF50" fill-rule="nonzero">
            <g id="Layer_1">
                <path d="M50,0 C22.43125,0 0,22.43125 0,50 C0,70.56875 12.89375,89.3 32.075,96.60625 C32.8804013,96.9088221 33.7747172,96.8673804 34.5486853,96.4916218 C35.3226534,96.1158632 35.9083583,95.4387605 36.16875,94.61875 L45.54375,64.68125 C45.987701,63.2647078 45.3738299,61.7313361 44.075,61.0125 C40.0411227,58.8132293 37.5222725,54.5943946 37.5,50 C37.5,43.10625 43.10625,37.5 50,37.5 C56.89375,37.5 62.5,43.10625 62.5,50 C62.5,54.55625 59.98125,58.775 55.925,61.01875 C54.6222915,61.7341575 54.0071259,63.2707625 54.45625,64.6875 L63.83125,94.625 C64.0916417,95.4450105 64.6773466,96.1221132 65.4513147,96.4978718 C66.2252828,96.8736304 67.1195987,96.9150721 67.925,96.6125 C87.1125,89.3 100,70.56875 100,50 C100,22.43125 77.56875,0 50,0 Z" id="Shape"></path>
            </g>
        </g>
    </g>
</svg>