<?xml version="1.0" encoding="UTF-8"?>
<svg width="100px" height="101px" viewBox="0 0 100 101" version="1.1" xmlns="http://www.w3.org/2000/svg" xmlns:xlink="http://www.w3.org/1999/xlink">
    <!-- Generator: Sketch 51.2 (57519) - http://www.bohemiancoding.com/sketch -->
    <title>Graph</title>
    <desc>Created with Sketch.</desc>
    <defs></defs>
    <g id="Page-1" stroke="none" stroke-width="1" fill="none" fill-rule="evenodd">
        <g id="Graph" fill="#7ED321">
            <g id="svg4051">
                <g id="layer1" transform="translate(0.000000, 0.066182)">
                    <path d="M49.9552809,0.177740629 C22.3780717,0.177740629 0,22.5558123 0,50.1330215 C0,77.710314 22.3780717,100.088302 49.9552809,100.088302 C77.5324901,100.088302 99.9105618,77.710314 99.9105618,50.1330215 C99.9105618,22.5558123 77.5324901,0.177740629 49.9552809,0.177740629 Z M49.9552809,2.25921067 C76.4075805,2.25921067 97.8290918,23.680722 97.8290918,50.1330215 C97.8290918,76.5853835 76.4075805,98.0068324 49.9552809,98.0068324 C23.5029814,98.0068324 2.08147004,76.5853835 2.08147004,50.1330215 C2.08147004,23.680722 23.5029814,2.25921067 49.9552809,2.25921067 Z M22.8616149,18.910971 C22.3042669,18.910971 21.8554354,19.3918384 21.8554354,19.9882941 L21.8554354,76.151397 L19.8105534,76.151397 C19.2141051,76.151397 18.7332303,76.6002629 18.7332303,77.1575765 L18.7332303,77.2266876 C18.7332303,77.7840012 19.2141051,78.2325548 19.8105534,78.2328671 L21.8554354,78.2328671 L21.8554354,80.277749 C21.8554354,80.8741943 22.3042669,81.3550721 22.8616149,81.3550721 L22.9307259,81.3550721 C23.4880656,81.3559047 23.9369054,80.8741943 23.9369054,80.277749 L23.9369054,78.2328671 L80.1000084,78.2328671 C80.6964578,78.2328671 81.1773315,77.7840012 81.1773315,77.2266876 L81.1773315,77.1575765 C81.1773315,76.6002629 80.6964578,76.151397 80.1000084,76.151397 L23.9369054,76.151397 L23.9369054,19.9882941 C23.9369054,19.3918384 23.4880739,18.910971 22.9307259,18.910971 L22.8616149,18.910971 Z M66.6070412,34.5219963 C65.7920687,34.5219963 65.0881499,35.0009571 64.7471343,35.688758 L51.4147494,40.3293788 C51.0380741,39.9572953 50.5223462,39.7256714 49.9552809,39.7256714 C48.8118805,39.7256714 47.8738109,40.6637899 47.8738109,41.8071414 C47.8738109,42.3109924 48.0641301,42.7669915 48.3657205,43.1283868 L43.7433938,52.2185567 C43.7322995,52.2183485 43.7219963,52.2185567 43.7108708,52.2185567 C42.5674704,52.2185567 41.6294008,53.1566752 41.6294008,54.3000267 C41.6294008,54.314597 41.6331537,54.3281432 41.6334659,54.3427135 L32.4152366,58.8471448 C32.076008,58.6070472 31.6662113,58.4629668 31.2220506,58.4629668 C30.0786502,58.4629668 29.1405805,59.4010854 29.1405805,60.5444368 C29.1405805,60.9083819 29.2444875,61.2458277 29.4109281,61.5445187 L24.9776405,68.199531 L24.9776405,71.9518689 L31.1895276,62.6177767 C31.2006114,62.6179848 31.2109251,62.6177767 31.2220506,62.6177767 C32.3005788,62.6177767 33.1850121,61.7797144 33.283194,60.7253457 L42.7250179,56.1111502 C43.020339,56.2726723 43.3527528,56.3733666 43.7108708,56.3733666 C44.8542712,56.3733666 45.7923408,55.4353521 45.7923408,54.2918965 C45.7923408,53.9296167 45.6890989,53.5916015 45.5240269,53.2938472 L50.3272625,43.8459246 C51.1185573,43.7010543 51.7503833,43.104275 51.9574761,42.3356391 L64.9321083,37.8190125 C65.3118964,38.3376004 65.9198616,38.6808712 66.6070412,38.6808712 C67.4055577,38.6808712 68.0959386,38.2181865 68.444589,37.5527301 L79.3946658,39.9045477 C80.7672299,40.2252918 81.2146824,38.1461926 79.8316934,37.8738947 L68.2982356,35.402149 C67.9197401,34.8715927 67.3035563,34.5219963 66.6070412,34.5219963 Z M66.6070412,35.5627313 C67.1879868,35.5627313 67.6477762,36.022528 67.6477762,36.6034663 C67.6477762,37.1844046 67.1879868,37.6442013 66.6070412,37.6442013 C66.0260957,37.6442013 65.5663062,37.1844046 65.5663062,36.6034663 C65.5663062,36.022528 66.0260957,35.5627313 66.6070412,35.5627313 Z M66.6070412,39.7256714 L52.036751,44.9293465 L45.7923408,57.4181667 L33.3035206,62.6218418 L24.9776405,74.2772612 L24.9776405,75.110662 L78.0551264,75.110662 L78.0551264,41.8071414 L66.6070412,39.7256714 Z M49.9552809,40.7664064 C50.5362265,40.7664064 50.9960159,41.2262031 50.9960159,41.8071414 C50.9960159,42.3880797 50.5362265,42.8478764 49.9552809,42.8478764 C49.3743353,42.8478764 48.9145459,42.3880797 48.9145459,41.8071414 C48.9145459,41.2262031 49.3743353,40.7664064 49.9552809,40.7664064 Z M43.7108708,53.2552266 C44.2918164,53.2552266 44.7516058,53.7150233 44.7516058,54.2959616 C44.7516058,54.8768999 44.2918164,55.3366966 43.7108708,55.3366966 C43.1299252,55.3366966 42.6701358,54.8768999 42.6701358,54.2959616 C42.6701358,53.7150233 43.1299252,53.2552266 43.7108708,53.2552266 Z M31.2220506,59.4996367 C31.8029961,59.4996367 32.2627856,59.9594334 32.2627856,60.5403717 C32.2627856,61.12131 31.8029961,61.5811068 31.2220506,61.5811068 C30.641105,61.5811068 30.1813156,61.12131 30.1813156,60.5403717 C30.1813156,59.9594334 30.641105,59.4996367 31.2220506,59.4996367 Z" id="path6447-8"></path>
                </g>
            </g>
        </g>
    </g>
</svg>