<?xml version="1.0" encoding="UTF-8"?>
<svg width="499px" height="499px" viewBox="0 0 499 499" version="1.1" xmlns="http://www.w3.org/2000/svg" xmlns:xlink="http://www.w3.org/1999/xlink">
    <!-- Generator: Sketch 51.2 (57519) - http://www.bohemiancoding.com/sketch -->
    <title>Pill</title>
    <desc>Created with Sketch.</desc>
    <defs></defs>
    <g id="Page-1" stroke="none" stroke-width="1" fill="none" fill-rule="evenodd">
        <g id="Pill" transform="translate(-13.000000, 0.000000)" fill-rule="nonzero">
            <g id="Layer_1">
                <path d="M170.772757,164.933189 L292.435027,43.2709189 C315.783316,19.8676294 347.523975,6.77772197 380.582054,6.91891892 C413.986595,6.91891892 445.287784,19.8296216 468.729081,43.2709189 C517.327568,91.8832432 517.327568,170.966486 468.729081,219.564973 L347.066811,341.227243 L170.772757,164.933189 Z" id="Shape" fill="#8BB7F0"></path>
                <path d="M380.582054,13.8378378 C412.132324,13.8378378 441.703784,26.028973 463.830486,48.1695135 C509.730595,94.0696216 509.730595,168.76627 463.830486,214.680216 L347.052973,331.45773 L180.556108,164.933189 L297.333622,48.1556757 C319.386718,26.0581602 349.363142,13.7008578 380.582054,13.8378378 Z M380.582054,-6.14525791e-15 C345.702761,-0.0885221662 312.224816,13.7199476 287.55027,38.3723243 L160.989405,164.933189 L347.066811,351.010595 L473.627676,224.44973 C524.8,173.277405 524.8,89.5446486 473.627676,38.3723243 C448.948013,13.7191389 415.465537,-0.0891460018 380.582054,-6.14525791e-15 Z" id="Shape" fill="#4E7AB5"></path>
                <path d="M145.255784,491.492324 C112.354685,491.634968 80.7637592,478.609939 57.5238919,455.320216 C8.31654054,406.099027 8.31654054,327.403243 56.6797838,279.026162 L176.792216,158.91373 L353.08627,335.207784 L232.973838,455.320216 C209.739097,478.609138 178.152697,491.634355 145.255784,491.492324 Z" id="Shape" fill="#F78F8F"></path>
                <path d="M176.806054,168.697081 L343.316757,335.207784 L228.102919,450.421622 C206.162272,472.413263 176.334155,484.711257 145.269622,484.573405 C114.205693,484.708168 84.3787187,472.410645 62.4363243,450.421622 L61.6060541,449.591351 C39.6144128,427.650705 27.3164186,397.822588 27.4542703,366.758054 C27.4542703,335.36 39.5900541,305.940757 61.6060541,283.924757 L176.806054,168.697081 Z M176.806054,149.130378 L51.795027,274.127568 C0.857945946,325.064649 0.857945946,408.423784 51.795027,459.360865 L52.6252973,460.191135 C77.1891433,484.735022 110.517639,498.483711 145.241946,498.397405 C178.812541,498.397405 212.396973,485.666595 237.858595,460.191135 L362.855784,335.193946 L176.806054,149.130378 Z" id="Shape" fill="#C74343"></path>
            </g>
        </g>
    </g>
</svg>