<?xml version="1.0" encoding="UTF-8"?>
<svg width="100px" height="100px" viewBox="0 0 100 100" version="1.1" xmlns="http://www.w3.org/2000/svg" xmlns:xlink="http://www.w3.org/1999/xlink">
    <!-- Generator: Sketch 51.2 (57519) - http://www.bohemiancoding.com/sketch -->
    <title>Seo</title>
    <desc>Created with Sketch.</desc>
    <defs></defs>
    <g id="Page-1" stroke="none" stroke-width="1" fill="none" fill-rule="evenodd">
        <g id="Seo" fill-rule="nonzero">
            <g id="seo-performance">
                <g id="seo-performance-seo-performance">
                    <path d="M99.3600396,88.9408506 L97.9986152,87.5748764 L78.4510386,68.0362018 C78.1064314,67.6882624 77.6370394,67.4925096 77.1473294,67.4925096 C76.6576194,67.4925096 76.1882273,67.6882624 75.8436202,68.0362018 L73.9788328,69.901088 L72.2338279,68.158457 L70.0810089,66.0031652 L70.8546983,65.2316518 C71.3492582,64.730366 71.3492582,63.9256182 70.8525223,63.4267062 L68.6219585,61.1939664 C79.9588526,46.2317507 78.8125618,24.8261128 65.169634,11.1810089 C50.258457,-3.72799209 26.0879327,-3.72571711 11.1790307,11.1810089 C-3.7256182,26.0877349 -3.72779426,50.2583581 11.1811078,65.1694362 C25.0790307,79.0675569 47.0301682,79.9986152 62.0167161,67.983185 L64.1585559,70.1206726 C64.6530168,70.6216617 65.4622156,70.6216617 65.9590504,70.1252226 L66.7305638,69.3536103 L70.6286845,73.2470821 L68.7616222,75.1163205 C68.0410485,75.8368942 68.0410485,77.0031652 68.7616222,77.721365 L89.6706231,98.6327399 C90.393274,99.3533136 91.5596439,99.3533136 92.2781405,98.6327399 L99.3645895,91.548368 C100.080712,90.8277943 100.080712,89.6615232 99.3601385,88.9409496 L99.3600396,88.9408506 Z M8.38308605,46.7459941 C5.38090999,36.2339268 8.00613254,24.4536103 16.283185,16.1742829 C28.4362018,4.02571711 48.1344214,4.02571711 60.2851632,16.1742829 C68.5621167,24.4536103 71.1852621,36.2339268 68.1830861,46.7459941 L8.38298714,46.7459941 L8.38308605,46.7459941 Z" id="Shape" fill="#DAB466"></path>
                    <path d="M38.192087,31.9435213 C35.0923838,31.9435213 32.5778437,34.4601385 32.5778437,37.5665678 C32.5778437,40.6728981 35.0923838,43.1873393 38.192087,43.1873393 C41.3006924,43.1873393 43.8150346,40.672997 43.8150346,37.5665678 C43.8150346,34.4601385 41.3006924,31.9434224 38.1919881,31.9434224 L38.192087,31.9435213 Z M39.5600396,37.9412463 C38.4492582,37.9412463 37.5534125,37.0410485 37.5534125,35.9367953 C37.5534125,34.8260138 38.4492582,33.9301682 39.5600396,33.9301682 C40.6709199,33.9301682 41.5689416,34.8260138 41.5689416,35.9367953 C41.5689416,37.0410485 40.6709199,37.9412463 39.5600396,37.9412463 Z M16.2454995,34.4512364 C16.1234421,34.8880317 15.6069238,35.1496538 15.0968348,35.0365974 L10.0060336,33.8658754 C9.49604352,33.7506429 9.20999011,33.2006924 9.36518299,32.6396637 C9.52265084,32.0765579 10.0569733,31.7439169 10.5558853,31.8947577 L15.5669634,33.3847676 C16.0658754,33.5355094 16.3718101,34.0144411 16.2454995,34.4512364 Z M19.1988131,27.3072206 C18.9748764,27.6974283 18.4671612,27.8326409 18.0059347,27.5665678 L13.4915925,24.9414441 C13.0436202,24.6862512 12.8707221,24.0388724 13.1634026,23.5355094 C13.5137488,23.0655786 14.1523244,22.92364 14.5824926,23.2184965 L18.9194857,26.1320475 C19.3497527,26.424728 19.4737883,26.9524233 19.1988131,27.3071217 L19.1988131,27.3072206 Z M24.3430267,20.3050445 C24.6622156,20.7196835 24.6489614,21.2961424 24.3118694,21.593274 C23.9793274,21.8904055 23.4205737,21.8149357 23.0702275,21.429179 L19.5891197,17.5356083 C19.2387735,17.1498516 19.3096934,16.5178042 19.7553907,16.1298714 C20.201088,15.7418398 20.8219585,15.763996 21.1411474,16.1787339 L24.3429278,20.3050445 L24.3430267,20.3050445 Z M31.3007913,16.6243323 C31.4604352,17.1209693 31.2474777,17.6332344 30.8263106,17.766271 C30.4004946,17.8948566 29.8950544,17.6088032 29.690999,17.1276954 L27.697725,12.2984174 C27.4959446,11.8172107 27.7886251,11.2762611 28.358457,11.0900099 C28.9238378,10.9060336 29.5137488,11.1632047 29.6732938,11.6620178 L31.3007913,16.6243323 Z M37.3849654,15.4779426 L37.189911,10.258457 C37.1654797,9.73748764 37.6288823,9.26735905 38.2230465,9.21414441 C38.8173096,9.26735905 39.2784372,9.73738872 39.2563798,10.258457 L39.0589515,15.4780415 C39.0346192,15.9991098 38.6621167,16.3825915 38.2230465,16.3293769 C37.7840752,16.3825915 37.4092977,16.0012859 37.3849654,15.4779426 Z M45.1454006,16.6243323 L46.7707221,11.6620178 C46.9326409,11.1632047 47.5200791,10.9059347 48.0877349,11.0900099 C48.6532146,11.2762611 48.9503462,11.8172107 48.7463897,12.2984174 L46.7507418,17.1276954 C46.5511375,17.6088032 46.0412463,17.8948566 45.6199802,17.766271 C45.1986152,17.6332344 44.9857567,17.1232443 45.1454006,16.6243323 Z M56.6885262,16.1298714 C57.1319486,16.5179031 57.2074184,17.1498516 56.8571711,17.5356083 L53.3737883,21.429179 C53.0234421,21.8149357 52.4667656,21.8904055 52.1320475,21.59545 C51.7973294,21.2961424 51.7838773,20.7196835 52.103363,20.3050445 L55.3049456,16.178635 C55.6242334,15.763996 56.2428289,15.7418398 56.6885262,16.1298714 Z M62.9568744,24.9413452 L58.4401583,27.5664688 C57.9812067,27.8304649 57.4713155,27.6974283 57.2518299,27.3072206 C56.9701286,26.9501484 57.0965381,26.424728 57.5289812,26.1320475 L61.8658754,23.2162216 C62.2961424,22.92364 62.9324431,23.0633037 63.2827893,23.5333333 C63.5753709,24.0388724 63.4025717,24.6863501 62.9568744,24.9413452 Z M67.0810089,32.6374876 C67.2363007,33.2006924 66.9502473,33.748368 66.4401583,33.8636993 L61.3492582,35.0343225 C60.839367,35.1496538 60.3249258,34.8880317 60.2006924,34.4512364 C60.0765579,34.0121662 60.3824926,33.5355094 60.8815035,33.3824926 L65.8903066,31.8924827 C66.3892186,31.7439169 66.921365,32.076459 67.0810089,32.6374876 Z M52.5023739,14.76182 C52.5023739,14.76182 44.7197824,32.7705242 44.6155292,33.0209693 C43.2208704,30.0854599 39.6333333,29.6574679 39.6333333,29.6574679 L52.5023739,14.76182 Z" id="Shape" fill="#545454"></path>
                </g>
            </g>
        </g>
    </g>
</svg>