<?xml version="1.0" encoding="UTF-8"?>
<svg width="512px" height="457px" viewBox="0 0 512 457" version="1.1" xmlns="http://www.w3.org/2000/svg" xmlns:xlink="http://www.w3.org/1999/xlink">
    <!-- Generator: Sketch 51.2 (57519) - http://www.bohemiancoding.com/sketch -->
    <title>Heart Pulse</title>
    <desc>Created with Sketch.</desc>
    <defs></defs>
    <g id="Page-1" stroke="none" stroke-width="1" fill="none" fill-rule="evenodd">
        <g id="Heart-Pulse" fill-rule="nonzero">
            <g id="Layer_1">
                <path d="M256.31827,448.027676 C224.034595,421.846486 6.91891892,241.85773 6.91891892,138.973405 C6.91891892,66.1587027 65.6467027,6.91891892 137.838703,6.91891892 C184.140108,6.91891892 226.082595,30.9552432 250.04973,71.2095135 L256,81.2004324 L261.95027,71.2095135 C285.903568,30.9552432 327.846054,6.91891892 374.161297,6.91891892 C446.353297,6.91891892 505.081081,66.1587027 505.081081,138.973405 C505.081081,269.408865 289.266162,425.029189 256.31827,448.027676 Z" id="Shape" fill="#F78F8F"></path>
                <path d="M374.161297,13.8378378 C442.534054,13.8378378 498.162162,69.9779459 498.162162,138.973405 C498.162162,261.382919 299.935135,408.645189 256.581189,439.379027 C181.95373,378.949189 13.8378378,224.781838 13.8378378,138.973405 C13.8378378,69.9779459 69.4659459,13.8378378 137.838703,13.8378378 C181.690811,13.8378378 221.405405,36.6010811 244.113297,74.752 L256,94.7338378 L267.886703,74.752 C290.594595,36.6010811 330.309189,13.8378378 374.161297,13.8378378 Z M374.161297,0 C323.929946,0 280.091676,27.1775135 256,67.667027 C231.908324,27.1775135 188.070054,0 137.838703,0 C61.7167568,0 0,62.2149189 0,138.973405 C0,254.214919 256,456.648649 256,456.648649 C256,456.648649 512,284.796541 512,138.973405 C512,62.2149189 450.283243,0 374.161297,0 Z" id="Shape" fill="#C74343"></path>
                <circle id="Oval" fill="#FFFFFF" cx="380.540541" cy="214.486486" r="34.5945946"></circle>
                <path d="M59.4058378,207.567568 L85.0611892,181.912216 C86.7089694,180.273365 89.0682917,179.56916 91.3447839,180.036703 C93.6212761,180.504247 95.5120685,182.081336 96.3805405,184.236973 L115.850378,232.918486 L152.396108,74.5444324 C153.143351,71.3478919 156.326054,69.3829189 159.315027,69.1753514 C162.601713,69.2634961 165.372444,71.6524565 165.943351,74.8903784 L202.973405,284.699676 L249.496216,156.755027 C250.60532,154.11274 253.137305,152.345737 256,152.216216 C258.885252,152.21838 261.46627,154.010753 262.476108,156.713514 L299.008,254.297946 L326.240865,210.805622 C327.508542,208.787952 329.725255,207.564577 332.108108,207.567568 L387.459459,207.567568 L387.459459,221.405405 L335.941189,221.405405 L303.29773,273.518703 C301.900555,275.749796 299.358336,276.994737 296.739168,276.730471 C294.12,276.466205 291.877709,274.738523 290.954378,272.273297 L256.096865,179.130811 L207.152432,313.731459 C206.15278,316.460079 203.554619,318.273264 200.648649,318.27027 C200.454919,318.27027 200.247351,318.27027 200.053622,318.242595 C196.934236,317.971108 194.38599,315.638527 193.840432,312.555243 L158.235676,110.799568 L124.360649,257.549838 C123.70093,260.516846 121.178691,262.703568 118.148119,262.935954 C115.117547,263.168341 112.291398,261.391737 111.187027,258.56 L87.4136216,199.126486 L67.155027,219.385081 C65.858345,220.678489 64.1017421,221.405016 62.2702703,221.405405" id="Shape" fill="#FFFFFF"></path>
                <path d="M326.240865,210.805622 L299.008,254.297946 L262.476108,156.713514 C261.46627,154.010753 258.885252,152.21838 256,152.216216 C253.132882,152.344823 250.598418,154.118949 249.496216,156.768865 L202.973405,284.713514 L165.943351,74.9042162 C165.372444,71.6662943 162.601713,69.2773339 159.315027,69.1891892 C156.326054,69.3967568 153.143351,71.3478919 152.396108,74.5582703 L115.850378,232.932324 L96.3805405,184.250811 C95.5175594,182.089981 93.6262593,180.507615 91.3470488,180.039513 C89.0678383,179.571411 86.7059694,180.280266 85.0611892,181.926054 L59.4058378,207.567568 L37.6942703,207.567568 C40.3788108,212.134054 43.2155676,216.742054 46.2598919,221.405405 L62.2702703,221.405405 C64.1107027,221.405405 65.8681081,220.672 67.1688649,219.385081 L87.4274595,199.126486 L111.200865,258.573838 C112.333759,261.371946 115.147038,263.115339 118.156953,262.884537 C121.166868,262.653735 123.68145,260.501797 124.374486,257.563676 L158.235676,110.813405 L193.840432,312.569081 C194.3485,315.682797 196.906146,318.053853 200.049363,318.325045 C203.19258,318.596237 206.11855,316.6983 207.152432,313.717622 L256.096865,179.116973 L290.954378,272.259459 C291.877709,274.724685 294.12,276.452367 296.739168,276.716633 C299.358336,276.980899 301.900555,275.735959 303.29773,273.504865 L335.941189,221.405405 L387.459459,221.405405 L387.459459,207.567568 L332.108108,207.567568 C329.725255,207.564577 327.508542,208.787952 326.240865,210.805622 Z" id="Shape" fill="#FFFFFF"></path>
                <path d="M374.161297,13.8378378 C442.534054,13.8378378 498.162162,69.9779459 498.162162,138.973405 C498.162162,261.382919 299.935135,408.645189 256.581189,439.379027 C181.95373,378.949189 13.8378378,224.781838 13.8378378,138.973405 C13.8378378,69.9779459 69.4659459,13.8378378 137.838703,13.8378378 C181.690811,13.8378378 221.405405,36.6010811 244.113297,74.752 L256,94.7338378 L267.886703,74.752 C290.594595,36.6010811 330.309189,13.8378378 374.161297,13.8378378 Z M374.161297,0 C323.929946,0 280.091676,27.1775135 256,67.667027 C231.908324,27.1775135 188.070054,0 137.838703,0 C61.7167568,0 0,62.2149189 0,138.973405 C0,254.214919 256,456.648649 256,456.648649 C256,456.648649 512,284.796541 512,138.973405 C512,62.2149189 450.283243,0 374.161297,0 Z" id="Shape" fill="#C74343"></path>
            </g>
        </g>
    </g>
</svg>