<?xml version="1.0" encoding="UTF-8"?>
<svg width="499px" height="512px" viewBox="0 0 499 512" version="1.1" xmlns="http://www.w3.org/2000/svg" xmlns:xlink="http://www.w3.org/1999/xlink">
    <!-- Generator: Sketch 51.2 (57519) - http://www.bohemiancoding.com/sketch -->
    <title>Syringe</title>
    <desc>Created with Sketch.</desc>
    <defs></defs>
    <g id="Page-1" stroke="none" stroke-width="1" fill="none" fill-rule="evenodd">
        <g id="Syringe" fill-rule="nonzero">
            <g id="Layer_1">
                <polygon id="Shape" fill="#8BB7F0" transform="translate(399.948800, 98.601692) rotate(-45.000000) translate(-399.948800, -98.601692) " points="353.013671 67.2285188 446.883929 67.2285188 446.883929 129.974864 353.013671 129.974864"></polygon>
                <path d="M410.947368,52.736 L445.790316,87.5789474 L388.944842,144.424421 L354.101895,109.581474 L410.947368,52.736 Z M410.947368,33.6842105 L335.050105,109.581474 L388.944842,163.476211 L464.842105,87.5789474 L410.947368,33.6842105 Z" id="Shape" fill="#4E7AB5"></path>
                <polygon id="Shape" fill="#C2E8FF" transform="translate(283.398111, 215.140754) rotate(-45.000000) translate(-283.398111, -215.140754) " points="147.860884 145.657631 418.935337 145.657631 418.935337 284.623877 147.860884 284.623877"></polygon>
                <path d="M330.105263,79.6833684 L418.842947,168.421053 L236.692211,350.571789 L147.954526,261.834105 L330.105263,79.6833684 Z M330.105263,60.6315789 L128.902737,261.834105 L236.692211,369.623579 L437.894737,168.421053 L330.105263,60.6315789 Z" id="Shape" fill="#7496C4"></path>
                <polygon id="Shape" fill="#7496C4" transform="translate(252.628211, 185.263158) rotate(-45.000000) translate(-252.628211, -185.263158) " points="243.102407 151.916109 262.154014 151.916109 262.154014 218.610207 243.102407 218.610207"></polygon>
                <polygon id="Shape" fill="#7496C4" transform="translate(293.049263, 144.843453) rotate(-45.000000) translate(-293.049263, -144.843453) " points="283.52346 111.496404 302.575067 111.496404 302.575067 178.190501 283.52346 178.190501"></polygon>
                <polygon id="Shape" fill="#7496C4" transform="translate(212.207158, 225.684211) rotate(-45.000000) translate(-212.207158, -225.684211) " points="202.681355 192.337162 221.732961 192.337162 221.732961 259.031259 202.681355 259.031259"></polygon>
                <polygon id="Shape" fill="#66798F" points="0 512 0 485.052632 121.263158 363.789474 134.736842 377.263158"></polygon>
                <polygon id="Shape" fill="#F78F8F" points="124.052211 384 114.526316 374.474105 114.526316 285.736421 148.210526 252.052211 246.474105 350.315789 212.789895 384"></polygon>
                <path d="M148.210526,261.578105 L236.948211,350.315789 L210.000842,377.263158 L126.841263,377.263158 L121.263158,371.685053 L121.263158,288.525474 L148.210526,261.578105 Z M148.210526,242.526316 L107.789474,282.947368 L107.789474,377.263158 L121.263158,390.736842 L215.578947,390.736842 L256,350.315789 L148.210526,242.526316 Z" id="Shape" fill="#C74343"></path>
                <g id="Group" transform="translate(363.789474, 0.000000)">
                    <polygon id="Shape" fill="#8BB7F0" transform="translate(70.155861, 64.579634) rotate(-45.000000) translate(-70.155861, -64.579634) " points="63.4190834 -14.4292927 68.9971352 -14.4292927 68.9971352 143.58856 63.4190834 143.58856"></polygon>
                    <polygon id="Shape" fill="#4E7AB5" points="13.4736842 0 0 13.4736842 121.263158 134.736842 134.736842 121.263158"></polygon>
                </g>
            </g>
        </g>
    </g>
</svg>