<?xml version="1.0" encoding="UTF-8"?>
<svg width="100px" height="100px" viewBox="0 0 100 100" version="1.1" xmlns="http://www.w3.org/2000/svg" xmlns:xlink="http://www.w3.org/1999/xlink">
    <!-- Generator: Sketch 51.2 (57519) - http://www.bohemiancoding.com/sketch -->
    <title>Think</title>
    <desc>Created with Sketch.</desc>
    <defs></defs>
    <g id="Page-1" stroke="none" stroke-width="1" fill="none" fill-rule="evenodd">
        <g id="Think">
            <g id="Think_Out_OF_the_Box">
                <g id="Think_Out_OF_the_Box_1_">
                    <path d="M49.8984405,1.11676413 C76.8038986,1.11676413 98.6202729,22.9547758 98.6202729,49.8865497 C98.6202729,76.8183236 76.8038986,98.6561404 49.8984405,98.6561404 C22.9929825,98.6561404 1.17582846,76.8185185 1.17582846,49.8867446 C1.17582846,22.9549708 22.9929825,1.11676413 49.8984405,1.11676413 Z" id="Background" fill="#33CC99" fill-rule="nonzero"></path>
                    <path d="M51.3604288,0.648732943 C57.4436647,0.765497076 62.1814815,6.67875244 62.1226121,11.8311891 C62.0060429,17.0415205 59.4904483,19.9103314 55.922807,21.6668616 L46.3300195,21.491423 C42.5871345,19.6764133 40.0723197,15.8124756 40.1888889,11.4210526 C40.305653,5.33235867 45.3360624,0.531578947 51.3604288,0.648732943 Z M46.2134503,26.8777778 L46.2134503,26.8191033 L46.3300195,21.6087719 L46.3300195,21.4916179 L46.3300195,21.6087719 L46.2134503,26.8777778 Z" id="Shape" fill="#FFCC29" fill-rule="nonzero"></path>
                    <path d="M55.9230019,21.6668616 L55.9230019,21.8426901 L55.8054581,27.8727096 C55.7475634,29.1612086 54.8701754,30.2150097 53.7586745,30.1561404 L48.1436647,30.0389864 C47.0908382,30.0389864 46.2134503,28.9851852 46.2134503,27.697076 L46.3300195,21.6083821 L46.3300195,21.4912281 L55.9230019,21.6668616 Z" id="Shape" fill="#BDBFC1" fill-rule="nonzero"></path>
                    <path d="M46.3103314,22.551462 L56.0467836,22.7518519 C56.394152,22.7590643 56.6693957,23.0436647 56.6623782,23.3879142 C56.6551657,23.7321637 56.3688109,24.0052632 56.0214425,23.9982456 L46.2849903,23.7976608 C45.9384016,23.7908382 45.6621832,23.505848 45.6693957,23.1615984 C45.6764133,22.8175439 45.9635478,22.5444444 46.3103314,22.551462 Z" id="Shape" fill="#A9ABAE" fill-rule="nonzero"></path>
                    <path d="M46.2602339,24.9758285 L55.9974659,25.1764133 C56.3440546,25.1836257 56.620078,25.4682261 56.6130604,25.8124756 C56.605848,26.1567251 56.3185185,26.4298246 55.9711501,26.422807 L46.2346979,26.2226121 C45.8871345,26.2153996 45.6118908,25.9304094 45.6191033,25.5865497 C45.6263158,25.2423002 45.9136452,24.9688109 46.2602339,24.9758285 Z" id="Shape" fill="#A9ABAE" fill-rule="nonzero"></path>
                    <path d="M46.21423,27.2481481 L55.9506823,27.4483431 C56.297271,27.4555556 56.5732943,27.7405458 56.5662768,28.0847953 C56.5590643,28.428655 56.2719298,28.7017544 55.9243665,28.6949318 L46.1879142,28.4945419 C45.8413255,28.4873294 45.5651072,28.202729 45.5723197,27.8584795 C45.5795322,27.51423 45.8668616,27.2411306 46.21423,27.2481481 Z" id="Shape" fill="#A9ABAE" fill-rule="nonzero"></path>
                    <polygon id="Shape" fill="#FFF212" fill-rule="nonzero" points="48.4364522 10.7769981 54.2853801 10.894152 54.6949318 10.894152 54.6949318 11.362768 54.4608187 21.6668616 53.6423002 21.608577 53.8175439 11.7725146 48.845809 11.6553606 48.6116959 21.5497076 47.734308 21.491423 48.0263158 11.1871345 48.0263158 10.7769981"></polygon>
                    <path d="M62.7660819,11.8896686 C62.8247563,8.96218324 61.4791423,6.03469786 59.5491228,3.92729045 C57.4438596,1.58538012 54.5189084,0.0631578947 51.3604288,0.00428849903 C44.9267057,-0.171150097 39.6042885,4.98089669 39.4867446,11.362768 C39.4280702,15.8124756 41.8270955,19.8520468 45.628655,21.9013645 L45.628655,22.0185185 C45.2779727,22.2528265 44.9853801,22.6625731 44.9853801,23.1309942 C44.9853801,23.5990253 45.2192982,24.0676413 45.628655,24.3019493 L45.628655,24.4773879 C45.2192982,24.7116959 44.9265107,25.1214425 44.9265107,25.5898635 C44.9265107,26.0578947 45.1606238,26.4680312 45.5697856,26.7019493 L45.5697856,26.7608187 C45.1604288,26.9362573 44.9265107,27.3460039 44.8684211,27.8729045 C44.8684211,28.4584795 45.2777778,28.985575 45.8625731,29.1025341 C46.2719298,30.0391813 47.0906433,30.6832359 48.1434698,30.7419103 L53.7584795,30.8590643 C54.7526316,30.8590643 55.6300195,30.2150097 56.0980507,29.3951267 C56.7415205,29.2779727 57.2093567,28.7510721 57.2682261,28.1070175 C57.2682261,27.6389864 56.9754386,27.1703704 56.6247563,26.9362573 C57.0341131,26.7608187 57.2682261,26.2922027 57.2682261,25.8239766 C57.3261209,25.2966862 56.9754386,24.828655 56.5074074,24.594347 C56.9754386,24.4189084 57.3261209,23.9502924 57.3261209,23.4233918 C57.3282852,22.902086 57.0334852,22.4250213 56.5662768,22.1937622 L56.5662768,22.0766082 C60.6606238,19.9690058 62.6495127,16.5734893 62.7660819,11.8896686 Z M56.0395712,22.7793372 C56.3910331,22.7793372 56.682846,23.0719298 56.682846,23.3645224 C56.682846,23.7159844 56.3910331,24.008577 56.0395712,24.008577 L55.8643275,24.008577 L55.8643275,25.179922 L55.9816764,25.179922 C56.3323587,25.179922 56.6251462,25.4725146 56.6251462,25.8239766 C56.6251462,26.1750487 56.3323587,26.4091618 55.9816764,26.4091618 L55.805653,26.4091618 L55.805653,27.462963 L55.9816764,27.462963 C56.2736842,27.462963 56.5664717,27.7559454 56.5664717,28.1070175 C56.5664717,28.4 56.2736842,28.6925926 55.9230019,28.6925926 L55.6302144,28.6925926 C55.3384016,29.5709552 54.5775828,30.1561404 53.7586745,30.1561404 L48.1436647,30.0389864 C47.3249513,30.0389864 46.5649123,29.3949318 46.3300195,28.5165692 L46.1555556,28.5165692 C45.862768,28.5165692 45.5699805,28.2239766 45.5699805,27.8725146 C45.5699805,27.5216374 45.862768,27.22846 46.2134503,27.22846 L46.2134503,26.8187135 L46.2721248,26.2335283 L46.2134503,26.2335283 C45.862768,26.2335283 45.628655,25.9405458 45.628655,25.5894737 C45.628655,25.2380117 45.9206628,24.9454191 46.2721248,25.0038986 L46.2721248,23.7746589 C45.9206628,23.7746589 45.6873294,23.4816764 45.6873294,23.1890838 C45.6873294,22.8376218 45.9793372,22.5450292 46.3298246,22.5450292 L46.3298246,21.6083821 L46.3298246,21.4912281 C42.5869396,19.6762183 40.0721248,15.8122807 40.188694,11.4208577 C40.3052632,5.33216374 45.3358674,0.531384016 51.3602339,0.648538012 C57.4434698,0.765302144 62.1812865,6.6785575 62.1224172,11.8309942 C62.005848,17.0413255 59.4902534,19.9101365 55.9226121,21.6666667 L55.9226121,21.8424951 L55.8639376,22.7202729 L56.0395712,22.7793372 Z" id="Shape" fill="#4E5A62" fill-rule="nonzero"></path>
                    <g id="Group" transform="translate(11.111111, 15.789474)" fill-rule="nonzero">
                        <path d="M4.80467836,0.608187135 C7.84619883,-0.153021442 11.0044834,2.18888889 11.6477583,4.76491228 C12.2910331,7.39980507 11.4725146,9.15633528 9.89298246,10.502729 L9.89298246,10.5615984 L5.03859649,11.7325536 C2.93235867,11.322807 1.17836257,9.7417154 0.652436647,7.517154 C-0.108382066,4.47231969 1.76296296,1.36939571 4.80467836,0.608187135 Z M5.74074074,14.4255361 L5.09649123,11.7906433 L5.09649123,11.7323587 L5.09649123,11.7906433 L5.74074074,14.4255361 Z" id="Shape" fill="#FFCC29"></path>
                        <path d="M9.89298246,10.5614035 L9.89298246,10.6196881 L10.6538012,13.6643275 C10.8290448,14.3083821 10.4785575,14.9522417 9.95165692,15.0693957 L7.14405458,15.7717349 C6.55925926,15.8888889 5.97387914,15.4791423 5.85730994,14.8350877 L5.09649123,11.7904483 L5.09649123,11.7321637 L5.03859649,11.7321637 L9.89298246,10.5614035 Z" id="Shape" fill="#BDBFC1"></path>
                        <path d="M5.20292398,12.2619883 L10.1025341,11.0553606 C10.2769981,11.0124756 10.4532164,11.1177388 10.4961014,11.2912281 C10.5374285,11.4653762 10.4304134,11.6402228 10.2565302,11.6826511 L5.35692008,12.8892788 C5.18313381,12.9326424 5.0070498,12.827114 4.96335283,12.6534113 C4.9214537,12.4791724 5.02869977,12.3039485 5.20292398,12.2619883 Z" id="Shape" fill="#A9ABAE"></path>
                        <path d="M5.50272904,13.4820663 L10.4015595,12.2754386 C10.5768031,12.2325536 10.7530214,12.3378168 10.7951267,12.511306 C10.8368429,12.6852672 10.7301063,12.860228 10.5563353,12.902729 L5.65672515,14.1093567 C5.48295597,14.1526056 5.30694799,14.0471229 5.26315789,13.8734893 C5.24292874,13.7898086 5.25681681,13.701518 5.30175928,13.6280889 C5.34670175,13.5546597 5.41900698,13.5021234 5.50272904,13.4820663 Z" id="Shape" fill="#A9ABAE"></path>
                        <path d="M5.78362573,14.6255361 L10.6832359,13.4189084 C10.8576998,13.3760234 11.0339181,13.4812865 11.0768031,13.654386 C11.1196881,13.8278752 11.0116959,14.002924 10.837232,14.045809 L5.93762183,15.2528265 C5.76383557,15.2961901 5.58775155,15.1906618 5.54405458,15.0169591 C5.5024994,14.8427746 5.60960651,14.6677778 5.78362573,14.6255361 Z" id="Shape" fill="#A9ABAE"></path>
                        <polygon id="Shape" fill="#FFF212" points="4.6871345 6.11169591 7.6122807 5.35048733 7.84619883 5.29220273 7.90487329 5.52612086 9.19161793 10.737037 8.72358674 10.7953216 7.55360624 5.87738791 5.03859649 6.46315789 6.20877193 11.4393762 5.7994152 11.5565302 4.51267057 6.3460039 4.4539961 6.11169591"></polygon>
                        <path d="M10.9465887,13.0787524 C11.1212476,12.9033138 11.1797271,12.6690058 11.1212476,12.4346979 C11.0633528,12.1421053 10.8292398,11.9666667 10.5953216,11.9077973 C10.7705653,11.7323587 10.8879142,11.4980507 10.8292398,11.2054581 C10.7705653,10.9124756 10.537232,10.737037 10.3025341,10.6785575 L10.3025341,10.619883 C12.0573099,9.03918129 12.5842105,7.10721248 11.9986355,4.70662768 C11.6479532,3.24307992 10.5953216,1.95516569 9.30838207,1.13508772 C7.96374269,0.256920078 6.32553606,-0.0941520468 4.68732943,0.256920078 C1.4711501,1.07680312 -0.517738791,4.35516569 0.301169591,7.57524366 C0.827095517,9.80038986 2.58187135,11.4980507 4.80487329,12.0249513 L4.80487329,12.0832359 C4.62962963,12.2590643 4.57076023,12.4933723 4.62962963,12.7272904 C4.68510053,12.9588019 4.86553241,13.1397607 5.09688109,13.1959064 L5.09688109,13.3130604 C4.92222222,13.488499 4.86354776,13.722807 4.92222222,13.957115 C4.97770041,14.1889026 5.1585353,14.3699634 5.39025341,14.425731 L5.39025341,14.4840156 C5.21403509,14.6011696 5.15536062,14.8354776 5.21403509,15.1280702 C5.27270955,15.4210526 5.56471735,15.5964912 5.85750487,15.5964912 C6.20896686,16.0062378 6.67699805,16.2405458 7.20292398,16.1233918 L10.0105263,15.4210526 C10.537232,15.3038986 10.8879142,14.8354776 11.0044834,14.3668616 C11.297271,14.2497076 11.4725146,13.8988304 11.4146199,13.5473684 C11.3584942,13.3159435 11.1779433,13.135167 10.9465887,13.0787524 Z M10.8290448,14.0740741 L10.7116959,14.0740741 C10.6538012,14.5424951 10.3610136,14.9522417 9.95165692,15.0693957 L7.14405458,15.7717349 C6.67680312,15.8888889 6.26666667,15.6545809 6.03255361,15.2448343 L5.91617934,15.2448343 C5.74093567,15.3035088 5.56471735,15.1863548 5.56471735,15.0105263 C5.50682261,14.8350877 5.62339181,14.6596491 5.79961014,14.6007797 L5.74093567,14.4253411 L5.68226121,14.1327485 C5.50701754,14.1327485 5.33157895,14.0740741 5.27290448,13.8984405 C5.21423002,13.7226121 5.33157895,13.5469786 5.50701754,13.4883041 L5.39044834,12.9031189 L5.33138402,12.9031189 C5.15536062,12.9614035 4.97992203,12.8444444 4.97992203,12.6688109 C4.92202729,12.4933723 5.03859649,12.3173489 5.21384016,12.2590643 L5.09649123,11.7906433 L5.09649123,11.7323587 L5.03859649,11.7323587 C2.93235867,11.3226121 1.17836257,9.74152047 0.652436647,7.51695906 C-0.108382066,4.47231969 1.76315789,1.36939571 4.80467836,0.608382066 C7.84619883,-0.152826511 11.0044834,2.18908382 11.6477583,4.76510721 C12.2910331,7.4 11.4725146,9.15653021 9.89298246,10.502924 L9.89298246,10.620078 L10.0105263,11.088499 L10.1278752,11.0298246 C10.3025341,11.0298246 10.4785575,11.1469786 10.4785575,11.2641326 C10.537232,11.4395712 10.419883,11.6155945 10.2436647,11.6738791 L10.18577,11.6738791 L10.3023392,12.3179337 L10.419883,12.2596491 C10.5951267,12.2596491 10.7705653,12.3179337 10.7705653,12.4939571 C10.8292398,12.6693957 10.7118908,12.8450292 10.537232,12.9037037 L10.4785575,12.9037037 L10.5953216,13.4306043 L10.7118908,13.4306043 C10.8292398,13.3723197 11.0633528,13.4888889 11.0633528,13.6649123 C11.1210526,13.839961 11.0044834,14.0157895 10.8290448,14.0740741 Z" id="Shape" fill="#4E5A62"></path>
                    </g>
                    <g id="Group" transform="translate(71.734893, 1.364522)" fill-rule="nonzero">
                        <path d="M8.63664717,0.747758285 C12.0288499,1.74307992 13.8424951,5.84152047 13.0237817,8.76842105 C12.2050682,11.6374269 10.3327485,12.9255361 8.05204678,13.3937622 L7.99317739,13.3937622 L2.61208577,11.8130604 C0.799220273,10.2323587 -0.0781676413,7.65633528 0.682066277,5.13859649 C1.61812865,1.74307992 5.24424951,-0.247758285 8.63664717,0.747758285 Z M1.73469786,14.8576998 L2.61208577,11.871345 L2.61208577,11.8130604 L2.61208577,11.871345 L1.73469786,14.8576998 Z" id="Shape" fill="#FFCC29"></path>
                        <path d="M7.99317739,13.3937622 L7.99317739,13.4524366 L6.99922027,16.9068226 C6.82397661,17.6093567 6.12183236,18.0191033 5.47836257,17.8434698 L2.37816764,16.9651072 C1.73469786,16.7896686 1.38401559,16.02846 1.61812865,15.325731 L2.6122807,11.871345 L2.6122807,11.8130604 L7.99317739,13.3937622 Z" id="Shape" fill="#BDBFC1"></path>
                        <path d="M2.43918129,12.4165692 L7.93528265,14.0122807 C8.02906663,14.0391615 8.10833033,14.1021984 8.15563529,14.1875228 C8.20294025,14.2728472 8.21441116,14.3734692 8.18752437,14.4672515 C8.13216374,14.6614035 7.92748538,14.7725146 7.73138402,14.7157895 L2.23528265,13.120078 C2.14151327,13.0932403 2.06225133,13.0302415 2.01494343,12.9449483 C1.96763554,12.8596552 1.95615935,12.7590589 1.98304094,12.6653021 C2.0104705,12.5717811 2.07396729,12.4930081 2.15953314,12.4463491 C2.24509899,12.3996901 2.34570829,12.3889762 2.43918129,12.4165692 Z" id="Shape" fill="#A9ABAE"></path>
                        <path d="M2.04327485,13.7847953 L7.53859649,15.3805068 C7.73398982,15.4364164 7.8472036,15.6399919 7.79161793,15.8354776 C7.76406566,15.9290807 7.70041514,16.0078816 7.61470102,16.0545051 C7.52898689,16.1011286 7.42824838,16.1117458 7.33469786,16.0840156 L1.83937622,14.4883041 C1.64400259,14.4324772 1.53071344,14.2290102 1.58615984,14.0335283 C1.64390637,13.8387782 1.84838798,13.7275123 2.04327485,13.7847953 Z" id="Shape" fill="#A9ABAE"></path>
                        <path d="M1.6711501,15.0676413 L7.16647173,16.6633528 C7.36181267,16.7190852 7.47505945,16.9225455 7.41949318,17.1179337 C7.39193278,17.2115489 7.32830149,17.2903755 7.24260584,17.337062 C7.1569102,17.3837486 7.05617463,17.3944684 6.9625731,17.3668616 L1.46725146,15.7711501 C1.27188433,15.7153291 1.15865407,15.5118112 1.21423002,15.3163743 C1.27179818,15.1215773 1.47630012,15.0102529 1.6711501,15.0676413 Z" id="Shape" fill="#A9ABAE"></path>
                        <polygon id="Shape" fill="#FFF212" points="5.41968811 6.0754386 8.7539961 7.01247563 8.98791423 7.07076023 8.9294347 7.36335283 7.2331384 13.1598441 6.70643275 12.9840156 8.34483431 7.42222222 5.53703704 6.60272904 3.89883041 12.1645224 3.43099415 12.0473684 5.12787524 6.25126706 5.18576998 5.95808967"></polygon>
                        <path d="M12.7896686,3.85068226 C11.9120858,2.21130604 10.5087719,0.864912281 8.7539961,0.396296296 C5.12768031,-0.657504873 1.32534113,1.39161793 0.27251462,5.02163743 C-0.42962963,7.53937622 0.27251462,10.1736842 2.14405458,11.9302144 L2.14405458,12.0473684 C1.91091618,12.105848 1.67699805,12.2816764 1.61812865,12.574269 C1.5005848,12.808577 1.61812865,13.1011696 1.79337232,13.2766082 L1.73469786,13.3937622 C1.5005848,13.4524366 1.26744639,13.6280702 1.20877193,13.9210526 C1.14990253,14.2136452 1.20877193,14.4479532 1.38401559,14.6816764 C1.14990253,14.7405458 0.915984405,14.9159844 0.857309942,15.2089669 C0.740545809,15.5598441 0.857309942,15.911306 1.14990253,16.0867446 C1.26744639,16.6723197 1.67680312,17.1409357 2.26140351,17.3163743 L5.41949318,18.2530214 C5.94639376,18.4288499 6.53099415,18.1945419 6.94035088,17.7849903 C7.34990253,17.8432749 7.70116959,17.6091618 7.81773879,17.2576998 C7.87660819,16.9651072 7.81773879,16.6725146 7.64249513,16.4968811 C7.87660819,16.4382066 8.11052632,16.2038986 8.16842105,15.9695906 C8.28596491,15.6187135 8.16842105,15.3255361 7.93528265,15.1500975 C8.22729045,15.0916179 8.46120858,14.8575049 8.57875244,14.5649123 C8.63664717,14.2719298 8.57875244,13.9793372 8.34483431,13.8037037 L8.34483431,13.6865497 C10.9762183,13.1596491 12.614425,11.5202729 13.4331384,8.88557505 C13.9011696,7.18791423 13.5497076,5.37290448 12.7896686,3.85068226 Z M13.0237817,8.76842105 C12.2050682,11.6374269 10.3327485,12.9255361 8.05204678,13.3937622 L7.99317739,13.3937622 L7.99317739,13.4524366 L7.87660819,13.9793372 L7.93528265,14.0376218 C8.11052632,14.0962963 8.22729045,14.2719298 8.16842105,14.4477583 C8.11052632,14.6816764 7.93528265,14.7988304 7.75906433,14.7403509 L7.64230019,14.6814815 L7.46705653,15.3842105 L7.5251462,15.3842105 C7.75906433,15.4424951 7.87660819,15.6185185 7.81773879,15.8526316 C7.75906433,16.0280702 7.5251462,16.1452242 7.34990253,16.0865497 L7.2331384,16.0865497 L7.05789474,16.6134503 L7.17465887,16.6721248 C7.34990253,16.7304094 7.46725146,16.9064327 7.408577,17.1405458 C7.34990253,17.3159844 7.17465887,17.4331384 6.94054581,17.3744639 L6.82397661,17.3161793 C6.53118908,17.7847953 6.00448343,18.0187135 5.4785575,17.8430799 L2.37816764,16.9651072 C1.85224172,16.7896686 1.55945419,16.3210526 1.55945419,15.794347 L1.44269006,15.794347 C1.26744639,15.7358674 1.14990253,15.5017544 1.20877193,15.325731 C1.26744639,15.1502924 1.5005848,15.0331384 1.67680312,15.0918129 L1.73469786,14.8575049 L1.85224172,14.5060429 C1.61812865,14.4477583 1.5005848,14.2134503 1.55945419,14.0376218 C1.61812865,13.8621832 1.85224172,13.7450292 2.02748538,13.8037037 L2.26140351,13.1009747 L2.20272904,13.1009747 C2.02748538,13.0426901 1.91072125,12.8666667 1.96861598,12.6912281 C2.02748538,12.4569201 2.26140351,12.339961 2.43664717,12.3986355 L2.61208577,11.871345 L2.61208577,11.8130604 C0.799220273,10.2323587 -0.0781676413,7.65633528 0.682066277,5.13859649 C1.61812865,1.74307992 5.24424951,-0.247758285 8.63664717,0.747758285 C12.0290448,1.74327485 13.8424951,5.84152047 13.0237817,8.76842105 Z" id="Shape" fill="#4E5A62"></path>
                    </g>
                    <g id="Group" transform="translate(0.000000, 20.467836)">
                        <polygon id="Shape" fill="#FFB74D" fill-rule="nonzero" points="18.0212476 37.9666667 64.2869396 42.7089669 62.2980507 78.305848 22.3495127 69.5818713"></polygon>
                        <polygon id="Shape" fill="#E6A545" fill-rule="nonzero" points="79.611501 32.5222222 64.2869396 42.7089669 62.2980507 78.305848 76.9206628 58.985575"></polygon>
                        <polygon id="Shape" fill="#E6A545" fill-rule="nonzero" points="45.862768 30.4727096 18.0212476 37.9666667 1.05925926 33.1076023 32.7025341 27.0183236"></polygon>
                        <polygon id="Shape" fill="#E6A545" fill-rule="nonzero" points="79.611501 32.5222222 83.0623782 22.2760234 50.2491228 21.2222222 45.862768 30.4727096"></polygon>
                        <polygon id="Shape" fill="#E6A545" fill-rule="nonzero" points="64.2869396 42.7089669 91.4851852 48.3296296 98.7376218 35.8590643 79.611501 32.5222222"></polygon>
                        <polygon id="Shape" points="18.0212476 37.9666667 64.2869396 42.7089669 79.611501 32.5222222 45.862768 30.4727096"></polygon>
                        <polygon id="Shape" fill="#CF953E" fill-rule="nonzero" points="45.862768 30.4727096 45.9206628 40.8356725 18.0212476 37.9666667"></polygon>
                        <polygon id="Shape" fill="#CF953E" fill-rule="nonzero" points="64.2869396 42.7089669 79.611501 32.5222222 45.862768 30.4727096 45.9206628 40.8356725"></polygon>
                        <path d="M56.0982456,32.4046784 L56.0982456,41.8892788 L54.9867446,41.7725146 L54.9867446,31.4095517 L61.7134503,31.4095517 L56.2736842,22.685575 L50.8346979,13.9623782 L45.3949318,22.685575 L39.9551657,31.4095517 L46.6818713,31.4095517 L46.6818713,40.894152 L45.5703704,40.7766082 L45.5703704,32.4044834 L39.9551657,32.4044834 C39.6046784,32.4044834 39.2539961,32.2290448 39.0191033,31.8779727 C38.8446394,31.5849903 38.8446394,31.2339181 39.0191033,30.8822612 L49.8988304,13.4939571 C50.0740741,13.1424951 50.425731,12.9670565 50.8348928,12.9670565 C51.2444444,12.9670565 51.5949318,13.1424951 51.7703704,13.4939571 L62.6499025,30.8822612 C62.8840156,31.2341131 62.8840156,31.5849903 62.6499025,31.8779727 C62.4746589,32.2290448 62.1231969,32.4044834 61.7138402,32.4044834 L56.0982456,32.4044834 L56.0982456,32.4046784 Z" id="Shape" fill="#4E5A62" fill-rule="nonzero"></path>
                        <polygon id="Shape" fill="#99CCCC" fill-rule="nonzero" points="50.8345029 13.9625731 56.2736842 22.68577 61.7134503 31.4097466 54.9867446 31.4097466 54.9867446 49.7350877 46.6816764 49.7350877 46.6816764 31.4097466 39.9549708 31.4097466 45.3947368 22.68577"></polygon>
                        <path d="M76.6865497,20.1684211 L71.8321637,36.97154 C71.6569201,37.4980507 71.0723197,37.7910331 70.4867446,37.674269 L62.474269,35.6834308 C61.8888889,35.5079922 61.5382066,34.9807018 61.7136452,34.4539961 L66.5678363,17.6504873 L61.1288499,16.3040936 C60.7194932,16.2452242 60.485575,15.9526316 60.3682261,15.6013645 C60.251462,15.2504873 60.3682261,14.8990253 60.6610136,14.6064327 L75.985575,0.437621832 C76.2773879,0.14502924 76.6869396,0.0278752437 77.0382066,0.14502924 C77.4475634,0.262183236 77.7395712,0.496296296 77.8569201,0.847368421 L83.4721248,20.2851852 C83.5307992,20.6366472 83.4721248,20.9877193 83.1793372,21.2805068 C82.8873294,21.514425 82.477193,21.6315789 82.1267057,21.514425 L76.6865497,20.1684211 Z M76.7452242,1.14074074 L79.611501,10.8592593 L82.4189084,20.519883 L75.9263158,18.9387914 L70.7793372,36.6785575 L62.7660819,34.688499 L67.9130604,16.9483431 L61.4204678,15.3672515 L69.0832359,8.22475634 L76.7452242,1.14074074 Z" id="Shape" fill="#4E5A62" fill-rule="nonzero"></path>
                        <polygon id="Shape" fill="#99CCCC" fill-rule="nonzero" points="76.7452242 1.14074074 79.611501 10.8592593 82.4191033 20.519883 75.9265107 18.9387914 70.7795322 36.6785575 62.7660819 34.688499 67.9132554 16.9483431 61.4206628 15.3672515 69.0832359 8.22475634"></polygon>
                        <path d="M32.5849903,27.8966862 L40.3054581,40.2504873 L38.9608187,40.1329435 L31.0649123,27.5452242 L36.9132554,24.4423002 L27.4964912,19.4072125 L18.079922,14.3723197 L18.079922,34.454191 L23.8703704,31.3508772 L28.6660819,39.0791423 L27.3214425,38.9623782 L23.4612086,32.7557505 L18.6068226,35.3317739 C18.2553606,35.5079922 17.8460039,35.5079922 17.5534113,35.3317739 C17.202729,35.1563353 16.968616,34.8641326 16.968616,34.454191 L16.968616,14.3723197 C16.968616,14.0210526 17.202729,13.6695906 17.5534113,13.494152 C17.8460039,13.3187135 18.2555556,13.3187135 18.6068226,13.494152 L37.4403509,23.5641326 C37.7910331,23.739961 37.9670565,24.0327485 37.9670565,24.4424951 C37.9670565,24.7937622 37.7910331,25.0865497 37.4403509,25.2623782 L32.5849903,27.8966862 Z" id="Shape" fill="#4E5A62" fill-rule="nonzero"></path>
                        <polygon id="Shape" fill="#99CCCC" fill-rule="nonzero" points="18.079922 14.3723197 27.4966862 19.4074074 36.9134503 24.4423002 31.0649123 27.5452242 41.008577 43.4116959 33.8138402 47.2756335 23.8703704 31.3508772 18.079922 34.454191 18.079922 24.4423002"></polygon>
                        <polygon id="Shape" fill="#E6A545" fill-rule="nonzero" points="3.691423 49.6175439 53.1152047 57.4044834 63.4095517 42.6500975 18.0212476 37.9666667"></polygon>
                        <path d="M99.6729045,35.3906433 C99.5563353,35.0984405 99.2635478,34.9222222 98.9130604,34.8641326 L81.0150097,31.7608187 L84.0567251,22.5692008 C84.174269,22.2762183 84.1153996,21.9836257 83.939961,21.6908382 C83.7639376,21.4565302 83.4721248,21.2810916 83.1793372,21.2810916 C83.4721248,20.9881092 83.5307992,20.637037 83.4721248,20.28577 L77.8569201,0.847953216 C77.7393762,0.496881092 77.4473684,0.262768031 77.0382066,0.145614035 C76.6867446,0.028460039 76.2773879,0.145614035 75.985575,0.438206628 L60.6610136,14.6070175 C60.3682261,14.8996101 60.251462,15.2510721 60.3682261,15.6019493 C60.48577,15.9534113 60.7196881,16.2460039 61.1288499,16.3046784 L66.5678363,17.6510721 L65.6912281,20.6957115 L56.0984405,20.4031189 L51.7701754,13.4945419 C51.5949318,13.1430799 51.2442495,12.9676413 50.8346979,12.9676413 C50.4253411,12.9676413 50.0738791,13.1430799 49.8986355,13.4945419 L40.7738791,28.0725146 L35.0421053,26.5506823 L37.4403509,25.262768 C37.7910331,25.0869396 37.9670565,24.794152 37.9670565,24.442885 C37.9670565,24.0331384 37.7910331,23.7403509 37.4403509,23.5645224 L18.6068226,13.4945419 C18.2553606,13.3191033 17.8460039,13.3191033 17.5534113,13.4945419 C17.202729,13.6699805 16.968616,14.0214425 16.968616,14.3727096 L16.968616,29.0095517 L0.883820663,32.1116959 C0.35711501,32.1703704 0.00643274854,32.580117 0.00643274854,33.0487329 C-0.0522417154,33.517154 0.298440546,33.9270955 0.766471735,34.0436647 L15.857115,38.4348928 L2.93060429,48.8567251 C2.63859649,49.0908382 2.52124756,49.5007797 2.63859649,49.9103314 C2.75516569,50.2614035 3.04795322,50.554386 3.51598441,50.6130604 L18.957115,53.07154 L21.2387914,69.6992203 C21.2966862,70.1676413 21.6481481,70.4598441 22.0575049,70.5775828 L62.0060429,79.3005848 C62.4738791,79.4183236 62.8834308,79.2419103 63.1752437,78.8908382 L77.7978558,59.5703704 C77.9153996,59.3951267 77.9730994,59.2194932 77.9730994,59.0432749 L79.260039,46.865692 L91.2510721,49.3249513 C91.7191033,49.4417154 92.2452242,49.2074074 92.4791423,48.7976608 L99.6729045,36.3270955 C99.8492972,36.0398641 99.8492972,35.6778747 99.6729045,35.3906433 Z M91.4851852,48.3296296 L78.2660819,45.5781676 L76.9206628,58.985575 L62.2980507,78.305848 L22.3495127,69.5818713 L19.9512671,52.1935673 L3.69122807,49.6175439 L18.0210526,37.9664717 L1.05925926,33.1076023 L18.079922,29.8288499 L18.079922,14.3723197 L27.4966862,19.4074074 L36.9134503,24.4424951 L31.7076023,27.194347 L32.7025341,27.0185185 L41.3003899,29.3019493 L45.3947368,22.6859649 L50.8345029,13.962768 L55.4547758,21.3980507 L66.5097466,21.7495127 L67.9130604,16.9487329 L61.4204678,15.3676413 L69.0832359,8.2251462 L76.7452242,1.1411306 L79.611501,10.8596491 L82.4189084,20.5202729 L75.9263158,18.9391813 L75.0489279,22.0421053 L83.0621832,22.2764133 L79.611306,32.5226121 L98.7374269,35.8594542 L91.4851852,48.3296296 Z M80.7808967,21.1639376 L76.4524366,21.0467836 L76.6865497,20.168616 L80.7808967,21.1639376 Z" id="Shape" fill="#4E5A62" fill-rule="nonzero"></path>
                        <polygon id="Shape" points="76.6865497 20.1684211 76.4524366 21.0467836 80.7808967 21.1639376"></polygon>
                    </g>
                </g>
            </g>
        </g>
    </g>
</svg>