<?xml version="1.0" encoding="UTF-8"?>
<svg width="100px" height="101px" viewBox="0 0 100 101" version="1.1" xmlns="http://www.w3.org/2000/svg" xmlns:xlink="http://www.w3.org/1999/xlink">
    <!-- Generator: Sketch 51.2 (57519) - http://www.bohemiancoding.com/sketch -->
    <title>Shape</title>
    <desc>Created with Sketch.</desc>
    <defs></defs>
    <g id="Page-1" stroke="none" stroke-width="1" fill="none" fill-rule="evenodd">
        <g id="Unlock" transform="translate(0.000000, 0.247265)" fill="#50E3C2" fill-rule="nonzero">
            <path d="M53.3333333,46.6666667 L53.3333333,26 C53.3333333,11.3333333 41.3333333,0 27.3333333,0 L25.3333333,0 C10.6666667,0 0,11.3333333 0,26 L0,40 L13.3333333,40 L13.3333333,26 C13.3333333,18.6666667 18,13.3333333 25.3333333,13.3333333 L27.3333333,13.3333333 C34,13.3333333 40,18.6666667 40,26 L40,46.6666667 L33.3333333,46.6666667 L34,80 C34,80 33.3333333,100 66.6666667,100 C100,100 100,80 100,80 L100,46.6666667 L53.3333333,46.6666667 Z M73.3333333,86.6666667 L66.6666667,86.6666667 L66.6666667,74.6666667 C62.6666667,74.6666667 60,70.6666667 60,67.3333333 C60,63.3333333 62.6666667,60 66.6666667,60 C70.6666667,60 73.3333333,62.6666667 73.3333333,66 L73.3333333,86.6666667 Z" id="Shape"></path>
        </g>
    </g>
</svg>