<?xml version="1.0" encoding="UTF-8"?>
<svg width="532px" height="451px" viewBox="0 0 532 451" version="1.1" xmlns="http://www.w3.org/2000/svg" xmlns:xlink="http://www.w3.org/1999/xlink">
    <!-- Generator: Sketch 51.2 (57519) - http://www.bohemiancoding.com/sketch -->
    <title>Add</title>
    <desc>Created with Sketch.</desc>
    <defs></defs>
    <g id="Page-1" stroke="none" stroke-width="1" fill="none" fill-rule="evenodd" stroke-linecap="round" stroke-linejoin="round">
        <g id="Add" transform="translate(10.000000, 10.000000)" stroke="#37A849" stroke-width="20">
            <g id="Layer_1">
                <path d="M314.311111,56.9051852 C314.311111,89.0474074 288.237037,145.272593 256,145.272593 C223.762963,145.272593 197.688889,89.1422222 197.688889,56.9051852 C198.950359,25.6408127 224.662781,0.944927055 255.952593,0.944927055 C287.242404,0.944927055 312.954826,25.6408127 314.216296,56.9051852 L314.311111,56.9051852 Z" id="Shape"></path>
                <path d="M135.964444,309.112593 C135.964446,242.818787 189.706194,189.07704 256,189.07704 C322.293806,189.07704 376.035554,242.818787 376.035556,309.112593" id="Shape"></path>
                <path d="M459.757037,95.4948148 C459.757037,122.706667 437.665185,171.346667 410.453333,171.346667 C383.241481,171.346667 361.14963,122.327407 361.14963,95.4948148 C361.14963,68.2389488 383.244875,46.1437037 410.500741,46.1437037 C437.756607,46.1437037 459.851852,68.2389488 459.851852,95.4948148 L459.757037,95.4948148 Z" id="Shape"></path>
                <path d="M349.013333,229.468148 C379.778051,206.180542 421.075965,202.320636 455.623286,219.503858 C490.170606,236.68708 512.009474,271.950098 512.000003,310.534815" id="Shape"></path>
                <path d="M52.242963,95.4948148 C52.242963,122.706667 74.3348148,171.346667 101.546667,171.346667 C128.758519,171.346667 150.85037,122.327407 150.85037,95.4948148 C150.85037,68.2389488 128.755125,46.1437037 101.499259,46.1437037 C74.2433932,46.1437037 52.1481481,68.2389488 52.1481481,95.4948148 L52.242963,95.4948148 Z" id="Shape"></path>
                <path d="M162.986667,229.468148 C132.221949,206.180542 90.9240349,202.320636 56.3767144,219.503858 C21.8293939,236.68708 -0.00947423523,271.950098 -3.0813727e-06,310.534815" id="Shape"></path>
                <path d="M140.705185,343.814815 C155.579948,395.181296 202.61796,430.530529 256.094815,430.530529 C309.57167,430.530529 356.609682,395.181296 371.484444,343.814815" id="Shape"></path>
                <path d="M256,258.481481 L256,372.259259" id="Shape"></path>
                <path d="M199.111111,315.37037 L312.888889,315.37037" id="Shape"></path>
            </g>
        </g>
    </g>
</svg>