<?xml version="1.0" encoding="UTF-8"?>
<svg width="84px" height="100px" viewBox="0 0 84 100" version="1.1" xmlns="http://www.w3.org/2000/svg" xmlns:xlink="http://www.w3.org/1999/xlink">
    <!-- Generator: Sketch 51.2 (57519) - http://www.bohemiancoding.com/sketch -->
    <title>Man, Mind, Idea, Settings, Gear, Preferences, Seo, Web</title>
    <desc>Created with Sketch.</desc>
    <defs></defs>
    <g id="Page-1" stroke="none" stroke-width="1" fill="none" fill-rule="evenodd">
        <g id="Man,-Mind,-Idea,-Settings,-Gear,-Preferences,-Seo,-Web" fill="#4A90E2" fill-rule="nonzero">
            <g id="svg2">
                <g id="layer1" transform="translate(0.000000, 0.113133)">
                    <g id="g16132">
                        <path d="M46.4559213,0.0544778568 C30.0065566,0.868935768 15.9530454,13.0079172 13.104363,29.7975068 C13.0693712,29.9969601 12.9164571,30.1441006 12.8856643,30.3442537 L0.310486605,55.2759103 C0.0498326722,55.81142 0.0794650043,56.4427394 0.389133055,56.9514798 C0.698801105,57.4602201 1.24597645,57.7765133 1.8413778,57.7909459 L6.87144888,57.7909459 L6.87144888,75.505544 C6.87154545,76.4717759 7.65480698,77.2550374 8.62103882,77.255134 L22.6177583,77.255134 L24.8047458,96.719322 C24.7417675,97.4327705 25.1199468,98.1125673 25.75935,98.4352722 C26.3987532,98.7579772 27.1702666,98.658427 27.7068124,98.1839867 C28.2433581,97.7095464 28.4365923,96.9560189 28.1945763,96.2819245 L25.8982395,75.2868453 C25.7873223,74.406878 25.035553,73.7490799 24.1486495,73.7559541 L10.3706288,73.7559541 L10.3706288,56.0413559 C10.3705322,55.0751241 9.58727066,54.2918626 8.62103882,54.291766 L4.68446145,54.291766 L16.2754948,31.4377474 C16.3409344,31.2625148 16.3778528,31.0779228 16.3848442,30.8910005 C19.0769732,13.2348394 35.4185981,1.19503554 53.1262329,3.88170585 C70.7584254,6.55647895 82.800678,22.7249652 80.244877,40.2950465 L64.8266156,73.9746528 C64.7160997,74.2521388 64.678455,74.5532959 64.7172663,74.8494478 L66.6855549,97.594117 C66.5564731,98.3100607 66.8838451,99.0311845 67.507777,99.4052788 C68.1317088,99.7793732 68.9220202,99.7283854 69.4927094,99.2772187 C70.0633986,98.826052 70.2953942,98.06884 70.0753855,97.3754183 L68.1070968,75.0681465 L83.5253581,41.4978896 C83.5805179,41.3574161 83.6172727,41.2103968 83.6347075,41.0604921 C86.61062,21.5424173 73.2329754,3.34983051 53.6729798,0.38252597 C51.2532794,0.0154182613 48.8058305,-0.0618733734 46.4559213,0.0544778568 Z M46.3465719,10.5520175 C45.5971797,10.797534 45.1046145,11.5139925 45.1437288,12.3016074 L45.1437288,15.0353417 C44.2078767,15.3304416 43.2833863,15.6813099 42.4099945,16.1288354 L40.5510552,14.1605467 C40.2214071,13.8198357 39.7676175,13.6274682 39.2935375,13.6274682 C38.8194574,13.6274682 38.3656678,13.8198357 38.0360197,14.1605467 L33.0059486,19.0812685 C32.6652377,19.4109166 32.4728704,19.8647062 32.4728704,20.3387862 C32.4728704,20.8128662 32.6652377,21.2666558 33.0059486,21.596304 L34.9742373,23.5645927 C34.5311501,24.4260278 34.1757139,25.2664695 33.8807436,26.1889776 L31.1470093,26.1889776 C30.6634231,26.1880836 30.2010296,26.3873642 29.8695961,26.7395123 C29.5381626,27.0916604 29.3672457,27.5652721 29.3974194,28.0479169 L29.3974194,34.9369273 C29.397516,35.9031592 30.1807775,36.6864207 31.1470093,36.6865172 L33.8807436,36.6865172 C34.1747657,37.617495 34.5295335,38.5511182 34.9742373,39.4202515 L33.0059486,41.3885402 C32.6652377,41.7181884 32.4728704,42.1719779 32.4728704,42.646058 C32.4728704,43.120138 32.6652377,43.5739275 33.0059486,43.9035757 L38.0360197,48.8242974 C38.3656678,49.1650085 38.8194574,49.3573759 39.2935375,49.3573759 C39.7676175,49.3573759 40.2214071,49.1650085 40.5510552,48.8242974 L42.4099945,46.8560087 C43.2818992,47.3055869 44.2089299,47.6518377 45.1437288,47.9495025 L45.1437288,50.7925861 C45.2016326,51.7158701 45.9682226,52.4345482 46.8933188,52.4328267 L53.8916785,52.4328267 C54.7743506,52.379108 55.4782002,51.6752583 55.5319191,50.7925861 L55.5319191,47.9495025 C56.4677712,47.6546581 57.3922616,47.3032774 58.2656534,46.8560087 L60.233942,48.8242974 C60.5635902,49.1650085 61.0173798,49.3573759 61.4914598,49.3573759 C61.9655399,49.3573759 62.4193294,49.1650085 62.7489776,48.8242974 L67.6696993,43.9035757 C68.0104102,43.5739275 68.2027775,43.120138 68.2027775,42.646058 C68.2027775,42.1719779 68.0104102,41.7181884 67.6696993,41.3885402 L65.81076,39.4202515 C66.2604921,38.5482944 66.606484,37.6213441 66.9042537,36.6865172 L69.637988,36.6865172 C70.6042197,36.6864207 71.3874813,35.9031592 71.3875779,34.9369273 L71.3875779,28.0479169 C71.4177515,27.5652721 71.2468346,27.0916604 70.9154012,26.7395123 C70.5839677,26.3873642 70.1215741,26.1880836 69.637988,26.1889776 L66.7949043,26.1889776 C66.5037306,25.2703186 66.2487138,24.4229485 65.81076,23.5645927 L67.6696993,21.596304 C68.0104102,21.2666558 68.2027775,20.8128662 68.2027775,20.3387862 C68.2027775,19.8647062 68.0104102,19.4109166 67.6696993,19.0812685 L62.7489776,14.1605467 C62.4193294,13.8198357 61.9655399,13.6274682 61.4914598,13.6274682 C61.0173798,13.6274682 60.5635902,13.8198357 60.233942,14.1605467 L58.2656534,16.1288354 C57.3937242,15.6790005 56.466718,15.3330079 55.5319191,15.0353417 L55.5319191,12.3016074 C55.5336405,11.3765111 54.8149624,10.6099211 53.8916785,10.5520175 L46.8933188,10.5520175 C46.7842107,10.5417444 46.6743787,10.5417444 46.5652706,10.5520175 C46.4924424,10.5474573 46.4194002,10.5474573 46.3465719,10.5520175 Z M48.6429087,13.941848 L52.1420886,13.941848 L52.1420886,16.1288354 C52.1162599,16.947214 52.6614057,17.674075 53.454281,17.8784254 C54.9831812,18.2268999 56.5001282,18.7942941 57.8282559,19.6280153 C58.5178045,20.079177 59.428688,19.9880887 60.0152433,19.4093166 L61.5461345,17.8784254 L63.9518207,20.3934609 L62.5302788,21.9243521 C61.9157279,22.483093 61.7786598,23.3968803 62.2022307,24.1113395 C63.0322817,25.4421119 63.6078373,26.8458079 63.9518207,28.375965 C64.111421,29.2124125 64.8500051,29.8125121 65.7014106,29.7975068 L67.888398,29.7975068 L67.888398,33.1873373 L65.7014106,33.1873373 C64.8500051,33.172332 64.111421,33.7724316 63.9518207,34.6088792 C63.6034248,36.1377548 63.0358753,37.5455554 62.2022307,38.8735046 C61.7786598,39.5879639 61.9157279,40.5017512 62.5302788,41.0604921 L63.9518207,42.5913833 L61.5461345,45.1064188 L60.0152433,43.5755276 C59.428688,42.9967555 58.5178045,42.9056672 57.8282559,43.3568289 C56.4974583,44.1867014 54.9845144,44.7625649 53.454281,45.1064188 C52.6614057,45.3107692 52.1162599,46.0376302 52.1420886,46.8560087 L52.1420886,49.0429962 L48.6429087,49.0429962 L48.6429087,46.8560087 C48.6579138,46.0046031 48.0578142,45.266019 47.2213669,45.1064188 C45.6924667,44.757946 44.2848446,44.190295 42.9567414,43.3568289 C42.2671928,42.9056672 41.3563092,42.9967555 40.769754,43.5755276 L39.2388628,45.1064188 L36.7238272,42.5913833 L38.2547184,41.1698414 C38.8334902,40.5832862 38.9245786,39.6724027 38.4734172,38.982854 C37.6433907,37.6523399 37.0678631,36.1390355 36.7238272,34.6088792 C36.5725371,33.8121996 35.8936812,33.2238578 35.0835867,33.1873373 L32.8965992,33.1873373 L32.8965992,29.7975068 L35.0835867,29.7975068 C35.8936812,29.7609864 36.5725371,29.1726446 36.7238272,28.375965 C37.0722511,26.8473476 37.6397481,25.4392891 38.4734172,24.1113395 C38.9245786,23.4217909 38.8334902,22.5109074 38.2547184,21.9243521 L36.7238272,20.3934609 L39.2388628,17.8784254 L40.769754,19.4093166 C41.3563092,19.9880887 42.2671928,20.079177 42.9567414,19.6280153 C44.2874865,18.7978863 45.691109,18.2225375 47.2213669,17.8784254 C48.0578142,17.7188252 48.6579138,16.980241 48.6429087,16.1288354 L48.6429087,13.941848 Z M50.3924986,24.1113395 C46.3251499,24.1113395 42.9567414,27.4795934 42.9567414,31.5470968 C42.9567414,35.614344 46.3250484,38.8735046 50.3924986,38.8735046 C54.4599488,38.8735046 57.7189065,35.614344 57.7189065,31.5470968 C57.7189065,27.4795934 54.4598473,24.1113395 50.3924986,24.1113395 Z M50.3924986,27.6105194 C52.5687961,27.6105194 54.329076,29.3707993 54.329076,31.5470968 C54.329076,33.7231388 52.5686946,35.3743248 50.3924986,35.3743248 C48.2163027,35.3743248 46.4559213,33.7231388 46.4559213,31.5470968 C46.4559213,29.3707993 48.2162012,27.6105194 50.3924986,27.6105194 Z" id="path8755-6"></path>
                    </g>
                </g>
            </g>
        </g>
    </g>
</svg>