<?xml version="1.0" encoding="UTF-8"?>
<svg width="100px" height="100px" viewBox="0 0 100 100" version="1.1" xmlns="http://www.w3.org/2000/svg" xmlns:xlink="http://www.w3.org/1999/xlink">
    <!-- Generator: Sketch 51.2 (57519) - http://www.bohemiancoding.com/sketch -->
    <title>Group 3</title>
    <desc>Created with Sketch.</desc>
    <defs></defs>
    <g id="Page-1" stroke="none" stroke-width="1" fill="none" fill-rule="evenodd">
        <g id="Group-3" fill-rule="nonzero">
            <circle id="Path" fill="#74B9FF" cx="50" cy="50" r="50"></circle>
            <g id="Man,-Mind,-Idea,-Settings,-Gear,-Preferences,-Seo,-Web" transform="translate(15.447154, 8.943089)" fill="#FFFFFF">
                <g id="svg2">
                    <g id="layer1" transform="translate(0.000000, 0.091978)">
                        <g id="g16132">
                            <path d="M37.7690417,0.0442909404 C24.3955745,0.706451844 12.9699556,10.5755425 10.6539537,24.2256153 C10.6255051,24.3877724 10.5011846,24.5073989 10.4761498,24.670125 L0.252428134,44.9397645 C0.0405143676,45.3751382 0.0646056945,45.888406 0.316368337,46.3020161 C0.56813098,46.7156261 1.01298899,46.9727751 1.49705512,46.9845088 L5.5865438,46.9845088 L5.5865438,61.3866211 C5.58662232,62.1721755 6.22342031,62.8089735 7.00897465,62.809052 L18.3884214,62.809052 L20.16646,78.6335951 C20.1152581,79.2136345 20.422721,79.7663148 20.942561,80.0286766 C21.4624009,80.2910383 22.0896477,80.2101033 22.5258637,79.8243795 C22.9620798,79.4386556 23.1191808,78.8260316 22.9224197,78.2779874 L21.0554792,61.2088173 C20.9653027,60.4933967 20.3541082,59.9586015 19.6330484,59.9641903 L8.4314055,59.9641903 L8.4314055,45.562078 C8.43132698,44.7765237 7.79452899,44.1397257 7.00897465,44.1396471 L3.80850525,44.1396471 L13.2321096,25.5591442 C13.2853125,25.4166787 13.3153275,25.2666039 13.3210115,25.1146346 C15.5097343,10.760032 28.7956082,0.971573609 43.1920593,3.15585841 C57.5271751,5.33047069 67.3176244,18.4755814 65.2397374,32.7602004 L52.7045656,60.1419942 C52.6147152,60.3675925 52.5841098,60.6124357 52.6156636,60.8532096 L54.2158983,79.3448106 C54.1109537,79.9268786 54.3771099,80.5131581 54.8843715,80.8172999 C55.3916331,81.1214416 56.0341628,81.0799881 56.4981377,80.7131859 C56.9621127,80.3463837 57.150727,79.7307642 56.9718581,79.1670067 L55.3716234,61.0310134 L67.9067952,33.7381216 C67.9516406,33.6239155 67.9815225,33.5043876 67.9956971,33.3825139 C70.4151382,17.5141604 59.5390044,2.72343944 43.6365689,0.310996724 C41.6693328,0.0125351718 39.679537,-0.0503035556 37.7690417,0.0442909404 Z M37.6801398,8.57887601 C37.0708778,8.77848292 36.6704183,9.36096949 36.7022185,10.0013069 L36.7022185,12.2238551 C35.9413631,12.4637736 35.189745,12.7490325 34.4796704,13.1128743 L32.9683376,11.5126396 C32.700331,11.2356388 32.3313963,11.0792425 31.9459654,11.0792425 C31.5605345,11.0792425 31.1915999,11.2356388 30.9235932,11.5126396 L26.8341046,15.5132264 C26.5571039,15.781233 26.4007077,16.1501677 26.4007077,16.5355986 C26.4007077,16.9210295 26.5571039,17.2899641 26.8341046,17.5579707 L28.4343393,19.1582054 C28.0741058,19.8585592 27.7851333,20.5418452 27.54532,21.2918517 L25.3227718,21.2918517 C24.9296123,21.2911249 24.5536826,21.4531417 24.2842245,21.7394409 C24.0147664,22.0257401 23.8758095,22.4107903 23.9003409,22.8031845 L23.9003409,28.4040059 C23.9004195,29.1895603 24.5372175,29.8263583 25.3227718,29.8264368 L27.54532,29.8264368 C27.7843623,30.5833293 28.0727915,31.3423725 28.4343393,32.048985 L26.8341046,33.6492197 C26.5571039,33.9172263 26.4007077,34.2861609 26.4007077,34.6715918 C26.4007077,35.0570227 26.5571039,35.4259574 26.8341046,35.693964 L30.9235932,39.6945508 C31.1915999,39.9715516 31.5605345,40.1279479 31.9459654,40.1279479 C32.3313963,40.1279479 32.700331,39.9715516 32.9683376,39.6945508 L34.4796704,38.0943161 C35.1885359,38.4598267 35.9422194,38.7413315 36.7022185,38.9833353 L36.7022185,41.2947855 C36.7492948,42.0454229 37.3725387,42.629714 38.1246494,42.6283144 L43.8143728,42.6283144 C44.5319923,42.5846406 45.1042278,42.0124051 45.1479017,41.2947855 L45.1479017,38.9833353 C45.9087571,38.7436244 46.6603753,38.4579491 47.3704499,38.0943161 L48.9706846,39.6945508 C49.2386912,39.9715516 49.6076258,40.1279479 49.9930568,40.1279479 C50.3784877,40.1279479 50.7474223,39.9715516 51.0154289,39.6945508 L55.0160157,35.693964 C55.2930164,35.4259574 55.4494126,35.0570227 55.4494126,34.6715918 C55.4494126,34.2861609 55.2930164,33.9172263 55.0160157,33.6492197 L53.5046829,32.048985 C53.8703188,31.3400767 54.151613,30.5864586 54.3937022,29.8264368 L56.6162504,29.8264368 C57.4018047,29.8263583 58.0386027,29.1895603 58.0386812,28.4040059 L58.0386812,22.8031845 C58.0632126,22.4107903 57.9242558,22.0257401 57.6547977,21.7394409 C57.3853396,21.4531417 57.0094099,21.2911249 56.6162504,21.2918517 L54.3048003,21.2918517 C54.0680736,20.5449745 53.860743,19.8560557 53.5046829,19.1582054 L55.0160157,17.5579707 C55.2930164,17.2899641 55.4494126,16.9210295 55.4494126,16.5355986 C55.4494126,16.1501677 55.2930164,15.781233 55.0160157,15.5132264 L51.0154289,11.5126396 C50.7474223,11.2356388 50.3784877,11.0792425 49.9930568,11.0792425 C49.6076258,11.0792425 49.2386912,11.2356388 48.9706846,11.5126396 L47.3704499,13.1128743 C46.6615644,12.7471548 45.9079008,12.46586 45.1479017,12.2238551 L45.1479017,10.0013069 C45.1493012,9.24919601 44.5650101,8.62595213 43.8143728,8.57887601 L38.1246494,8.57887601 C38.0359436,8.5705239 37.9466494,8.5705239 37.8579436,8.57887601 C37.7987336,8.57516851 37.7393497,8.57516851 37.6801398,8.57887601 Z M39.5470802,11.3348358 L42.3919419,11.3348358 L42.3919419,13.1128743 C42.370943,13.7782228 42.8141509,14.3691667 43.4587651,14.5353052 C44.7017733,14.8186178 45.9350635,15.2799139 47.0148422,15.957736 C47.5754508,16.3245342 48.3160065,16.2504786 48.7928807,15.7799322 L50.0375077,14.5353052 L51.9933501,16.5800495 L50.8376251,17.8246765 C50.3379901,18.2789374 50.2265527,19.0218539 50.5709193,19.6027151 C51.2457575,20.6846438 51.7136889,21.8258601 51.9933501,23.0698903 C52.1231065,23.7499289 52.7235814,24.2378148 53.415781,24.2256153 L55.1938195,24.2256153 L55.1938195,26.9815751 L53.415781,26.9815751 C52.7235814,26.9693756 52.1231065,27.4572615 51.9933501,28.1373001 C51.7101015,29.3802885 51.2486791,30.5248418 50.5709193,31.6044753 C50.2265527,32.1853365 50.3379901,32.928253 50.8376251,33.3825139 L51.9933501,34.6271409 L50.0375077,36.6718852 L48.7928807,35.4272582 C48.3160065,34.9567118 47.5754508,34.8826562 47.0148422,35.2494544 C45.9328929,35.9241475 44.7028572,36.3923292 43.4587651,36.6718852 C42.8141509,36.8380237 42.370943,37.4289676 42.3919419,38.0943161 L42.3919419,39.8723546 L39.5470802,39.8723546 L39.5470802,38.0943161 C39.5592795,37.4021164 39.0713937,36.8016415 38.3913552,36.6718852 C37.1483469,36.388574 36.0039387,35.9270691 34.92418,35.2494544 C34.3635714,34.8826562 33.6230156,34.9567118 33.1461414,35.4272582 L31.9015144,36.6718852 L29.8567701,34.6271409 L31.1013971,33.4714158 C31.5719433,32.9945416 31.6459988,32.2539859 31.2792009,31.6933773 C30.6043827,30.6116584 30.1364741,29.3813297 29.8567701,28.1373001 C29.73377,27.4895931 29.1818546,27.0112665 28.5232412,26.9815751 L26.7452026,26.9815751 L26.7452026,24.2256153 L28.5232412,24.2256153 C29.1818546,24.1959239 29.73377,23.7175972 29.8567701,23.0698903 C30.1400415,21.8271119 30.6014212,20.6823489 31.2792009,19.6027151 C31.6459988,19.0421064 31.5719433,18.3015507 31.1013971,17.8246765 L29.8567701,16.5800495 L31.9015144,14.5353052 L33.1461414,15.7799322 C33.6230156,16.2504786 34.3635714,16.3245342 34.92418,15.957736 C36.0060866,15.2828344 37.1472431,14.8150712 38.3913552,14.5353052 C39.0713937,14.4055489 39.5592795,13.805074 39.5470802,13.1128743 L39.5470802,11.3348358 Z M40.9695111,19.6027151 C37.6627235,19.6027151 34.92418,22.3411328 34.92418,25.6480462 C34.92418,28.9547512 37.662641,31.6044753 40.9695111,31.6044753 C44.2763812,31.6044753 46.9259402,28.9547512 46.9259402,25.6480462 C46.9259402,22.3411328 44.2762987,19.6027151 40.9695111,19.6027151 Z M40.9695111,22.4475768 C42.7388586,22.4475768 44.1699805,23.8786987 44.1699805,25.6480462 C44.1699805,27.417186 42.7387761,28.7596136 40.9695111,28.7596136 C39.2002461,28.7596136 37.7690417,27.417186 37.7690417,25.6480462 C37.7690417,23.8786987 39.2001636,22.4475768 40.9695111,22.4475768 Z" id="path8755-6"></path>
                        </g>
                    </g>
                </g>
            </g>
        </g>
    </g>
</svg>