<?xml version="1.0" encoding="UTF-8"?>
<svg width="100px" height="116px" viewBox="0 0 100 116" version="1.1" xmlns="http://www.w3.org/2000/svg" xmlns:xlink="http://www.w3.org/1999/xlink">
    <!-- Generator: Sketch 51.2 (57519) - http://www.bohemiancoding.com/sketch -->
    <title>Brain</title>
    <desc>Created with Sketch.</desc>
    <defs></defs>
    <g id="Page-1" stroke="none" stroke-width="1" fill="none" fill-rule="evenodd">
        <g id="Brain">
            <g id="Layer_1">
                <path d="M42.930303,113.636364 C41.2333333,113.633333 1.51515152,113.139394 1.51515152,74.8484848 C1.51515152,23.5787879 32.9454545,1.51515152 42.930303,1.51515152 C47.3575758,1.51515152 50,4.17575758 50,8.63636364 L50,106.515152 C50.0100696,110.432158 46.8472792,113.617995 42.930303,113.636364 Z" id="Shape" fill="#FFADAD" fill-rule="nonzero"></path>
                <path d="M42.930303,3.03030303 C47.7636364,3.03030303 48.4848485,6.54242424 48.4848485,8.63636364 L48.4848485,106.515152 C48.4848485,109.606061 45.9939394,112.121212 42.930303,112.121212 C41.3,112.121212 3.03030303,111.69697 3.03030303,74.8484848 C3.03030303,24.6363636 33.3121212,3.03030303 42.930303,3.03030303 Z M42.930303,0 C31.4818182,0 0,23.030303 0,74.8484848 C0,115.151515 42.930303,115.151515 42.930303,115.151515 C47.6854693,115.136475 51.5285608,111.270323 51.5151515,106.515152 L51.5151515,8.63636364 C51.5151515,3.86969697 48.6545455,0 42.930303,0 Z" id="Shape" fill="#C74343" fill-rule="nonzero"></path>
                <path d="M28.7878788,50 L34.8484848,50 C38.1956652,50 40.9090909,47.2865742 40.9090909,43.9393939 C40.9090909,40.5922136 38.1956652,37.8787879 34.8484848,37.8787879 L28.7878788,37.8787879" id="Shape" stroke="#C74343" stroke-linecap="round"></path>
                <path d="M34.8484848,25.7575758 L28.7878788,25.7575758 C25.4406985,25.7575758 22.7272727,28.4710015 22.7272727,31.8181818 C22.7272727,35.1653621 25.4406985,37.8787879 28.7878788,37.8787879 L34.8484848,37.8787879" id="Shape" stroke="#C74343" stroke-linecap="round"></path>
                <path d="M28.7878788,80.3030303 L22.7272727,80.3030303 C19.3800924,80.3030303 16.6666667,83.0164561 16.6666667,86.3636364 C16.6666667,89.7108167 19.3800924,92.4242424 22.7272727,92.4242424 L28.7878788,92.4242424" id="Shape" stroke="#C74343" stroke-linecap="round"></path>
                <path d="M31.8181818,101.515152 L36.3636364,101.515152 C38.8740216,101.515152 40.9090909,99.4800822 40.9090909,96.969697 C40.9090909,94.4593117 38.8740216,92.4242424 36.3636364,92.4242424 L25,92.4242424" id="Shape" stroke="#C74343" stroke-linecap="round"></path>
                <path d="M31.8181818,25.7575758 L36.3636364,25.7575758 C38.8740216,25.7575758 40.9090909,23.7225064 40.9090909,21.2121212 C40.9090909,18.701736 38.8740216,16.6666667 36.3636364,16.6666667 L31.8181818,16.6666667" id="Shape" stroke="#C74343" stroke-linecap="round"></path>
                <path d="M25.7575758,80.3030303 L33.3333333,80.3030303 C37.5173087,80.3030303 40.9090909,76.9112481 40.9090909,72.7272727 C40.9090909,68.5432973 37.5173087,65.1515152 33.3333333,65.1515152 L25.7575758,65.1515152" id="Shape" stroke="#C74343" stroke-linecap="round"></path>
                <path d="M32.5757576,50 L21.2121212,50 C17.0281458,50 13.6363636,53.3917822 13.6363636,57.5757576 C13.6363636,61.759733 17.0281458,65.1515152 21.2121212,65.1515152 L28.7878788,65.1515152" id="Shape" stroke="#C74343" stroke-linecap="round"></path>
                <path d="M57.069697,113.636364 C53.1527208,113.617995 49.9899304,110.432158 50,106.515152 L50,8.63636364 C50,4.17575758 52.6454545,1.51515152 57.069697,1.51515152 C67.0545455,1.51515152 98.4848485,23.5787879 98.4848485,74.8484848 C98.4848485,113.193939 58.7636364,113.636364 57.069697,113.636364 Z" id="Shape" fill="#FFADAD" fill-rule="nonzero"></path>
                <path d="M57.069697,3.03030303 C66.6878788,3.03030303 96.969697,24.6363636 96.969697,74.8484848 C96.969697,111.593939 58.6969697,112.118182 57.069697,112.121212 C53.9895165,112.102854 51.5050744,109.59537 51.5151515,106.515152 L51.5151515,8.63636364 C51.5151515,6.54242424 52.2363636,3.03030303 57.069697,3.03030303 Z M57.069697,0 C51.3454545,0 48.4848485,3.86969697 48.4848485,8.63636364 L48.4848485,106.515152 C48.4714392,111.270323 52.3145307,115.136475 57.069697,115.151515 C57.069697,115.151515 100,115.151515 100,74.8484848 C100,23.030303 68.5181818,0 57.069697,0 Z" id="Shape" fill="#C74343" fill-rule="nonzero"></path>
                <path d="M71.2121212,50 L65.1515152,50 C61.8043348,50 59.0909091,47.2865742 59.0909091,43.9393939 C59.0909091,40.5922136 61.8043348,37.8787879 65.1515152,37.8787879 L71.2121212,37.8787879" id="Shape" stroke="#C74343" stroke-linecap="round"></path>
                <path d="M65.1515152,25.7575758 L71.2121212,25.7575758 C74.5593015,25.7575758 77.2727273,28.4710015 77.2727273,31.8181818 C77.2727273,35.1653621 74.5593015,37.8787879 71.2121212,37.8787879 L65.1515152,37.8787879" id="Shape" stroke="#C74343" stroke-linecap="round"></path>
                <path d="M71.2121212,80.3030303 L77.2727273,80.3030303 C80.6199076,80.3030303 83.3333333,83.0164561 83.3333333,86.3636364 C83.3333333,89.7108167 80.6199076,92.4242424 77.2727273,92.4242424 L71.2121212,92.4242424" id="Shape" stroke="#C74343" stroke-linecap="round"></path>
                <path d="M68.1818182,101.515152 L63.6363636,101.515152 C61.1259784,101.515152 59.0909091,99.4800822 59.0909091,96.969697 C59.0909091,94.4593117 61.1259784,92.4242424 63.6363636,92.4242424 L75,92.4242424" id="Shape" stroke="#C74343" stroke-linecap="round"></path>
                <path d="M68.1818182,25.7575758 L63.6363636,25.7575758 C61.1259784,25.7575758 59.0909091,23.7225064 59.0909091,21.2121212 C59.0909091,18.701736 61.1259784,16.6666667 63.6363636,16.6666667 L68.1818182,16.6666667" id="Shape" stroke="#C74343" stroke-linecap="round"></path>
                <path d="M74.2424242,80.3030303 L66.6666667,80.3030303 C62.4826913,80.3030303 59.0909091,76.9112481 59.0909091,72.7272727 C59.0909091,68.5432973 62.4826913,65.1515152 66.6666667,65.1515152 L74.2424242,65.1515152" id="Shape" stroke="#C74343" stroke-linecap="round"></path>
                <path d="M67.4242424,50 L78.7878788,50 C82.9718542,50 86.3636364,53.3917822 86.3636364,57.5757576 C86.3636364,61.759733 82.9718542,65.1515152 78.7878788,65.1515152 L71.2121212,65.1515152" id="Shape" stroke="#C74343" stroke-linecap="round"></path>
            </g>
        </g>
    </g>
</svg>