<?xml version="1.0" encoding="UTF-8"?>
<svg width="100px" height="100px" viewBox="0 0 100 100" version="1.1" xmlns="http://www.w3.org/2000/svg" xmlns:xlink="http://www.w3.org/1999/xlink">
    <!-- Generator: Sketch 51.2 (57519) - http://www.bohemiancoding.com/sketch -->
    <title>Code</title>
    <desc>Created with Sketch.</desc>
    <defs>
        <polygon id="path-1" points="0.09375 100 0.09375 0.0625 100 0.0625 100 100"></polygon>
        <polygon id="path-3" points="0.09375 100 0.09375 0.0625 100 0.0625 100 100"></polygon>
    </defs>
    <g id="Page-1" stroke="none" stroke-width="1" fill="none" fill-rule="evenodd">
        <g id="Code">
            <g id="dev">
                <g id="Page-1">
                    <g id="dev">
                        <path d="M61.271875,20.51875 C59.6598989,19.9027894 57.853775,20.7100191 57.2375,22.321875 L36.925,75.446875 C36.508014,76.4937398 36.6869311,77.6840251 37.3932543,78.5620403 C38.0995774,79.4400556 39.2239028,79.869803 40.3357919,79.6867576 C41.4476811,79.5037122 42.3749112,78.7362262 42.7625,77.678125 L63.075,24.553125 C63.6909606,22.9411489 62.8837309,21.135025 61.271875,20.51875" id="Fill-1" fill="#FFFFFE" fill-rule="nonzero"></path>
                        <path d="M84.59375,45.08125 L67.9828125,34.840625 C67.0327093,34.2547652 65.8422253,34.2202825 64.8598043,34.7501661 C63.8773832,35.2800497 63.2522783,36.2937977 63.2199605,37.4095411 C63.1876427,38.5252845 63.7530218,39.5735153 64.703125,40.159375 L80.5203125,49.9109375 C80.5359632,49.9692812 80.5359632,50.0307188 80.5203125,50.0890625 L64.703125,59.840625 C63.7273634,60.4145227 63.1382606,61.4712419 63.1631551,62.6029882 C63.1880496,63.7347344 63.8230485,64.7645276 64.8231016,65.2949642 C65.8231547,65.8254008 67.0318761,65.7735323 67.9828125,65.159375 L84.59375,54.91875 L84.8515625,54.6609375 C87.4202178,52.0844932 87.4202178,47.9155068 84.8515625,45.3390625 L84.59375,45.08125" id="Fill-2" fill="#FFFFFE" fill-rule="nonzero"></path>
                        <g id="Group-6">
                            <g id="Fill-3-Clipped">
                                <mask id="mask-2" fill="white">
                                    <use xlink:href="#path-1"></use>
                                </mask>
                                <g id="path-1"></g>
                                <path d="M35.296875,59.840625 L19.4796875,50.0890625 C19.4640368,50.0307188 19.4640368,49.9692812 19.4796875,49.9109375 L35.296875,40.159375 C36.2726366,39.5854773 36.8617394,38.5287581 36.8368449,37.3970118 C36.8119504,36.2652656 36.1769515,35.2354724 35.1768984,34.7050358 C34.1768453,34.1745992 32.9681239,34.2264677 32.0171875,34.840625 L15.40625,45.08125 L15.1484375,45.3390625 C12.5797822,47.9155068 12.5797822,52.0844932 15.1484375,54.6609375 L15.40625,54.91875 L32.0171875,65.159375 C33.4859198,66.0650356 35.4107455,65.6085759 36.3164062,64.1398437 C37.2220668,62.6711115 36.7656072,60.7462857 35.296875,59.840625" id="Fill-3" fill="#FFFFFE" fill-rule="nonzero" mask="url(#mask-2)"></path>
                            </g>
                            <g id="Fill-5-Clipped">
                                <mask id="mask-4" fill="white">
                                    <use xlink:href="#path-3"></use>
                                </mask>
                                <g id="path-1"></g>
                                <path d="M84.8515625,54.6609375 L84.59375,54.91875 L67.9828125,65.159375 C66.5140802,66.0650356 64.5892545,65.6085759 63.6835938,64.1398437 C62.7779332,62.6711115 63.2343928,60.7462857 64.703125,59.840625 L80.5203125,50.0890625 C80.5359632,50.0307188 80.5359632,49.9692812 80.5203125,49.9109375 L64.703125,40.159375 C63.7273634,39.5854773 63.1382606,38.5287581 63.1631551,37.3970118 C63.1880496,36.2652656 63.8230485,35.2354724 64.8231016,34.7050358 C65.8231547,34.1745992 67.0318761,34.2264677 67.9828125,34.840625 L84.59375,45.08125 L84.8515625,45.3390625 C87.4202178,47.9155068 87.4202178,52.0844932 84.8515625,54.6609375 Z M42.7625,77.678125 C42.3749112,78.7362262 41.4476811,79.5037122 40.3357919,79.6867576 C39.2239028,79.869803 38.0995774,79.4400556 37.3932543,78.5620403 C36.6869311,77.6840251 36.508014,76.4937398 36.925,75.446875 L57.2375,22.321875 C57.6250888,21.2637738 58.5523189,20.4962878 59.6642081,20.3132424 C60.7760972,20.130197 61.9004226,20.5599444 62.6067457,21.4379597 C63.3130689,22.3159749 63.491986,23.5062602 63.075,24.553125 L42.7625,77.678125 Z M33.6546875,65.625 C33.0953125,65.625 32.528125,65.475 32.0171875,65.159375 L15.40625,54.91875 L15.1484375,54.6609375 C12.5797822,52.0844932 12.5797822,47.9155068 15.1484375,45.3390625 L15.40625,45.08125 L32.0171875,34.840625 C33.4859198,33.9349643 35.4107456,34.391424 36.3164062,35.8601563 C37.2220669,37.3288885 36.7656073,39.2537143 35.296875,40.159375 L19.4796875,49.9109375 C19.4640368,49.9692812 19.4640368,50.0307188 19.4796875,50.0890625 L35.296875,59.840625 C36.4862177,60.5745872 37.0436213,62.0090105 36.6619309,63.3534617 C36.2802404,64.6979128 35.0522698,65.6254674 33.6546875,65.625 Z M50,0 C22.3859375,0 0,22.3859375 0,50 C0,77.6140625 22.3859375,100 50,100 C77.6140625,100 100,77.6140625 100,50 C100,22.3859375 77.6140625,0 50,0 Z" id="Fill-5" fill="#4C5665" fill-rule="nonzero" mask="url(#mask-4)"></path>
                            </g>
                        </g>
                    </g>
                </g>
            </g>
        </g>
    </g>
</svg>