<?xml version="1.0" encoding="UTF-8"?>
<svg width="89px" height="101px" viewBox="0 0 89 101" version="1.1" xmlns="http://www.w3.org/2000/svg" xmlns:xlink="http://www.w3.org/1999/xlink">
    <!-- Generator: Sketch 51.2 (57519) - http://www.bohemiancoding.com/sketch -->
    <title>Gift</title>
    <desc>Created with Sketch.</desc>
    <defs></defs>
    <g id="Page-1" stroke="none" stroke-width="1" fill="none" fill-rule="evenodd">
        <g id="Gift" transform="translate(0.000000, 1.000000)">
            <g id="Layer_1">
                <polyline id="Shape" fill="#74B9FF" fill-rule="nonzero" points="14.6258503 41.8367347 0.113378685 41.8367347 0.113378685 27.324263 89.0022676 27.324263 89.0022676 41.8367347 74.4897959 41.8367347"></polyline>
                <polyline id="Shape" fill="#74B9FF" fill-rule="nonzero" points="83.5600907 41.8367347 83.5600907 99.8866213 5.55555556 99.8866213 5.55555556 41.8367347"></polyline>
                <polygon id="Shape" fill="#ED491F" fill-rule="nonzero" points="38.2086168 41.8367347 50.9070295 41.8367347 50.9070295 99.8866213 38.2086168 99.8866213"></polygon>
                <polygon id="Shape" fill="#ED491F" fill-rule="nonzero" points="32.7664399 27.324263 56.3492063 27.324263 56.3492063 41.8367347 32.7664399 41.8367347"></polygon>
                <path d="M58.6054422,0 C51.0913639,1.61120802e-15 45,6.09136395 45,13.6054422 L45,18.1405896 C45,13.1312041 49.0609093,9.07029478 54.0702948,9.07029478 C59.0796803,9.07029478 63.1405896,13.1312041 63.1405896,18.1405896 C63.1405896,23.1499751 59.0796803,27.2108844 54.0702948,27.2108844 L58.6054422,27.2108844 C66.1195204,27.2108844 72.2108844,21.1195204 72.2108844,13.6054422 C72.2108844,6.09136395 66.1195204,1.61120802e-15 58.6054422,0 Z" id="Shape" fill="#ED491F" fill-rule="nonzero"></path>
                <path d="M30.952381,0.113378685 C23.4383027,0.113378685 17.3469388,6.20474263 17.3469388,13.7188209 C17.3469388,21.2328991 23.4383027,27.324263 30.952381,27.324263 L35.4875283,27.324263 C30.4781429,27.324263 26.4172336,23.2633537 26.4172336,18.2539683 C26.4172336,13.2445828 30.4781429,9.18367347 35.4875283,9.18367347 C40.4969138,9.18367347 44.5578231,13.2445828 44.5578231,18.2539683 L44.5578231,13.7188209 C44.5578231,6.20474263 38.4664592,0.113378685 30.952381,0.113378685 Z" id="Shape" fill="#ED491F" fill-rule="nonzero"></path>
                <path d="M61.7913832,41.8367347 L27.324263,41.8367347" id="Shape"></path>
                <path d="M48.185941,27.324263 L50.9070295,27.324263 C56.9182921,27.324263 61.7913832,32.1973542 61.7913832,38.2086168 L61.7913832,58.1632653 L68.1405896,53.6281179 L74.4897959,58.1632653 L74.4897959,38.2086168 C74.4897959,32.1973542 69.6167048,27.324263 63.6054422,27.324263 L60.8843537,27.324263" id="Shape" fill="#ED491F" fill-rule="nonzero"></path>
                <path d="M40.9297052,27.324263 L38.2086168,27.324263 C32.1973542,27.324263 27.324263,32.1973542 27.324263,38.2086168 L27.324263,49.0929705 L20.9750567,44.5578231 L14.6258503,49.0929705 L14.6258503,38.2086168 C14.6258503,32.1973542 19.4989415,27.324263 25.5102041,27.324263 L28.2312925,27.324263" id="Shape" fill="#ED491F" fill-rule="nonzero"></path>
                <path d="M44.5578231,27.324263 L30.952381,27.324263 C23.4383027,27.324263 17.3469388,21.2328991 17.3469388,13.7188209 C17.3469388,6.20474263 23.4383027,0.113378685 30.952381,0.113378685 C38.4664592,0.113378685 44.5578231,6.20474263 44.5578231,13.7188209 L44.5578231,27.324263 Z" id="Shape" stroke="#E74C3C"></path>
                <path d="M44.5578231,27.324263 L35.4875283,27.324263 C30.4781429,27.324263 26.4172336,23.2633537 26.4172336,18.2539683 C26.4172336,13.2445828 30.4781429,9.18367347 35.4875283,9.18367347 C40.4969138,9.18367347 44.5578231,13.2445828 44.5578231,18.2539683 L44.5578231,27.324263 Z" id="Shape"></path>
                <path d="M44.5578231,27.324263 L53.6281179,27.324263 C58.6375034,27.324263 62.6984127,23.2633537 62.6984127,18.2539683 C62.6984127,13.2445828 58.6375034,9.18367347 53.6281179,9.18367347 C48.6187324,9.18367347 44.5578231,13.2445828 44.5578231,18.2539683 L44.5578231,27.324263 Z" id="Shape"></path>
                <path d="M40.9297052,27.324263 L38.2086168,27.324263 C32.1973542,27.324263 27.324263,32.1973542 27.324263,38.2086168 L27.324263,49.0929705 L20.9750567,44.5578231 L14.6258503,49.0929705 L14.6258503,38.2086168 C14.6258503,32.1973542 19.4989415,27.324263 25.5102041,27.324263 L28.2312925,27.324263" id="Shape"></path>
                <path d="M48.185941,27.324263 L50.9070295,27.324263 C56.9182921,27.324263 61.7913832,32.1973542 61.7913832,38.2086168 L61.7913832,58.1632653 L68.1405896,53.6281179 L74.4897959,58.1632653 L74.4897959,38.2086168 C74.4897959,32.1973542 69.6167048,27.324263 63.6054422,27.324263 L60.8843537,27.324263" id="Shape"></path>
                <path d="M58.6054422,27.2108844 L45,27.2108844 L45,13.6054422 C45,6.09136395 51.0913639,1.61120802e-15 58.6054422,0 C66.1195204,-1.61120802e-15 72.2108844,6.09136395 72.2108844,13.6054422 C72.2108844,17.2138298 70.777458,20.6744272 68.2259426,23.2259426 C65.6744272,25.777458 62.2138298,27.2108844 58.6054422,27.2108844 Z" id="Shape" stroke="#E74C3C"></path>
                <polyline id="Shape" points="83.5600907 41.8367347 83.5600907 99.8866213 5.55555556 99.8866213 5.55555556 41.8367347"></polyline>
                <path d="M61.7913832,41.8367347 L27.324263,41.8367347" id="Shape"></path>
                <polyline id="Shape" points="14.6258503 41.8367347 0.113378685 41.8367347 0.113378685 27.324263 89.0022676 27.324263 89.0022676 41.8367347 74.4897959 41.8367347"></polyline>
                <polygon id="Shape" points="38.2086168 41.8367347 50.9070295 41.8367347 50.9070295 99.8866213 38.2086168 99.8866213"></polygon>
                <polygon id="Shape" points="32.7664399 27.324263 56.3492063 27.324263 56.3492063 41.8367347 32.7664399 41.8367347"></polygon>
            </g>
        </g>
    </g>
</svg>