<?xml version="1.0" encoding="UTF-8"?>
<svg width="100px" height="101px" viewBox="0 0 100 101" version="1.1" xmlns="http://www.w3.org/2000/svg" xmlns:xlink="http://www.w3.org/1999/xlink">
    <!-- Generator: Sketch 51.2 (57519) - http://www.bohemiancoding.com/sketch -->
    <title>Database, Storage, Table, Data, Download, Server, Directory</title>
    <desc>Created with Sketch.</desc>
    <defs>
        <linearGradient x1="14.3027955%" y1="2.5141565%" x2="90.2740572%" y2="91.7645299%" id="linearGradient-1">
            <stop stop-color="#16FF6A" offset="0%"></stop>
            <stop stop-color="#0090A5" offset="100%"></stop>
        </linearGradient>
    </defs>
    <g id="Page-1" stroke="none" stroke-width="1" fill="none" fill-rule="evenodd">
        <g id="Database,-Storage,-Table,-Data,-Download,-Server,-Directory" transform="translate(0.000000, -3.000000)" fill-rule="nonzero">
            <g id="svg4812">
                <g id="layer1" transform="translate(0.000000, 1.993125)">
                    <g id="g3020">
                        <rect id="rect3088-8" fill="url(#linearGradient-1)" x="-3.96728531e-06" y="1.131875" width="100" height="100" rx="6.7626715"></rect>
                        <path d="M35.7753437,25.5840625 C27.0544375,25.5840625 19.953125,32.259375 19.953125,40.4571875 C19.953125,48.655 27.0544375,55.330625 35.7753437,55.330625 C44.4962187,55.330625 51.722125,48.655 51.722125,40.4571875 C51.722125,32.259375 44.4962187,25.5840625 35.7753437,25.5840625 Z M34.0311562,32.1425 L37.5195312,32.1425 L37.5195312,44.205 L40.75875,41.16 L43.250375,43.385 L37.0211875,49.3578125 C36.772125,49.7090625 36.2736875,49.82625 35.7753437,49.82625 C35.2769687,49.82625 34.90325,49.591875 34.5294687,49.3578125 L34.0311562,48.655 L28.4248437,43.5021875 L30.9165312,41.16 L34.0311562,44.0878125 L34.0311562,32.1425 Z M54.4629688,35.4215625 C54.8367187,36.826875 55.085875,38.2321875 55.2104375,39.7546875 C55.4595,39.1690625 56.0825625,38.700625 56.8300625,38.700625 C57.8267188,38.700625 58.5742813,39.4034375 58.5742813,40.3403125 C58.5742813,41.2771875 57.8267188,41.9796875 56.8300625,41.9796875 C56.0825625,41.9796875 55.4596563,41.51125 55.2104375,40.925625 C55.2104375,42.448125 54.8367188,43.970625 54.4629688,45.25875 L76.140625,45.25875 L76.140625,38.700625 C76.140625,36.826875 74.645625,35.4215625 72.65225,35.4215625 L54.4629688,35.4215625 Z M63.931375,38.700625 C64.8034687,38.700625 65.6755312,39.4034375 65.6755312,40.3403125 C65.6755312,41.2771875 64.8034687,41.9796875 63.931375,41.9796875 C62.9346875,41.9796875 62.0625937,41.2771875 62.0625937,40.3403125 C62.0625937,39.4034375 62.9346875,38.700625 63.931375,38.700625 Z M70.9080937,38.700625 C71.90475,38.700625 72.65225,39.4034375 72.65225,40.3403125 C72.65225,41.2771875 71.90475,41.9796875 70.9080937,41.9796875 C69.9114375,41.9796875 69.1639375,41.2771875 69.1639375,40.3403125 C69.1639375,39.4034375 69.9114375,38.700625 70.9080937,38.700625 Z M53.0925312,48.655 C50.227125,54.0421875 44.4962187,57.906875 37.7686562,58.4925 L76.140625,58.4925 L76.140625,48.655 L53.0925312,48.655 Z M56.8300625,51.8171875 C57.8267187,51.8171875 58.5742812,52.5196875 58.5742812,53.4565625 C58.5742812,54.3934375 57.8267187,55.09625 56.8300625,55.09625 C55.8334062,55.09625 55.085875,54.3934375 55.085875,53.4565625 C55.085875,52.5196875 55.8334062,51.8171875 56.8300625,51.8171875 Z M63.931375,51.8171875 C64.8034687,51.8171875 65.6755312,52.5196875 65.6755312,53.4565625 C65.6755312,54.3934375 64.8034687,55.09625 63.931375,55.09625 C62.9346875,55.09625 62.0625937,54.3934375 62.0625937,53.4565625 C62.0625937,52.5196875 62.9346875,51.8171875 63.931375,51.8171875 Z M70.9080937,51.8171875 C71.90475,51.8171875 72.65225,52.5196875 72.65225,53.4565625 C72.65225,54.3934375 71.90475,55.09625 70.9080937,55.09625 C69.9114375,55.09625 69.1639375,54.3934375 69.1639375,53.4565625 C69.1639375,52.5196875 69.9114375,51.8171875 70.9080937,51.8171875 Z M34.0311562,61.7715625 L34.0311562,68.446875 C34.0311562,70.20375 35.5261875,71.7259375 37.5195312,71.7259375 L37.5195312,73.365625 C37.5195312,74.3025 38.2670625,75.0053125 39.2636875,75.0053125 C40.2603437,75.0053125 41.007875,74.3025 41.007875,73.365625 L41.007875,71.7259375 L69.1639375,71.7259375 L69.1639375,73.365625 C69.1639375,74.3025 69.9114375,75.0053125 70.9080937,75.0053125 C71.90475,75.0053125 72.65225,74.3025 72.65225,73.365625 L72.65225,71.7259375 C74.645625,71.7259375 76.140625,70.20375 76.140625,68.446875 L76.140625,61.7715625 L34.0311562,61.7715625 Z M56.8300625,65.1678125 C57.8267187,65.1678125 58.5742812,65.870625 58.5742812,66.8075 C58.5742812,67.744375 57.8267187,68.446875 56.8300625,68.446875 C55.8334062,68.446875 55.085875,67.744375 55.085875,66.8075 C55.085875,65.870625 55.8334062,65.1678125 56.8300625,65.1678125 Z M63.931375,65.1678125 C64.8034687,65.1678125 65.6755312,65.870625 65.6755312,66.8075 C65.6755312,67.744375 64.8034687,68.446875 63.931375,68.446875 C62.9346875,68.446875 62.0625937,67.744375 62.0625937,66.8075 C62.0625937,65.870625 62.9346875,65.1678125 63.931375,65.1678125 Z M70.9080937,65.1678125 C71.90475,65.1678125 72.65225,65.870625 72.65225,66.8075 C72.65225,67.744375 71.90475,68.446875 70.9080937,68.446875 C69.9114375,68.446875 69.1639375,67.744375 69.1639375,66.8075 C69.1639375,65.870625 69.9114375,65.1678125 70.9080937,65.1678125 Z" id="path3013-4" fill="#FFFFFF"></path>
                    </g>
                </g>
            </g>
        </g>
    </g>
</svg>