<?xml version="1.0" encoding="UTF-8"?>
<svg width="323px" height="186px" viewBox="0 0 323 186" version="1.1" xmlns="http://www.w3.org/2000/svg" xmlns:xlink="http://www.w3.org/1999/xlink">
    <!-- Generator: Sketch 51.2 (57519) - http://www.bohemiancoding.com/sketch -->
    <title>generic@3x</title>
    <desc>Created with Sketch.</desc>
    <defs></defs>
    <g id="Page-1" stroke="none" stroke-width="1" fill="none" fill-rule="evenodd">
        <g id="generic" transform="translate(-2.000000, -1.000000)" fill="#CCCCCC">
            <text id="Generic-Rx" font-family="AvenirNext-Bold, Avenir Next" font-size="64" font-weight="bold" letter-spacing="-1.543529">
                <tspan x="0.289645" y="185">Generic Rx</tspan>
            </text>
            <g id="Medical,-Treatment,-Pill,-Bottle,-Medicine,-Spirit" transform="translate(118.000000, 0.000000)" fill-rule="nonzero">
                <g id="svg4679">
                    <g id="layer1" transform="translate(0.000000, 0.920453)">
                        <path d="M15.9413933,0.663073684 C15.8463846,0.657110045 15.7510969,0.657110045 15.6560882,0.663073684 L9.72710918,0.663073684 C4.37882402,0.663073684 1.83157895e-05,4.73009474 1.83157895e-05,10.0920421 L1.83157895e-05,23.0605368 L1.83157895e-05,30.5146053 C-0.00501852632,31.7848053 1.02389613,32.8159842 2.29136799,32.8114053 L4.51139141,32.8114053 L4.51139141,109.960716 C4.51139141,115.321747 8.89022916,119.711126 14.2384836,119.711126 L72.7704311,119.711126 C78.1186828,119.711126 82.4976722,115.321747 82.4975256,109.960716 L82.4975256,32.8114053 L84.7175504,32.8114053 C85.9815322,32.8109474 87.004785,31.7811421 86.9999817,30.5146053 L86.9999817,23.0605368 L86.9999817,10.0920421 L86.9912817,10.1744632 C87.1725164,4.7246 82.6223019,0.682763158 77.2731024,0.682763158 L70.9964095,0.682763158 C70.9043657,0.677166922 70.8120681,0.677166922 70.7200243,0.682763158 C70.6427968,0.678826795 70.5654196,0.678826795 70.4881922,0.682763158 L57.3017807,0.682763158 C57.2097369,0.677166922 57.1174393,0.677166922 57.0253955,0.682763158 C56.948168,0.678826795 56.8707909,0.678826795 56.7935634,0.682763158 L43.6695676,0.682763158 C43.5567914,0.674350286 43.4435475,0.674350286 43.3307713,0.682763158 C43.2357596,0.676799136 43.1404687,0.676799136 43.0454571,0.682763158 L29.9749571,0.682763158 C29.8621809,0.674350286 29.748937,0.674350286 29.6361608,0.682763158 C29.5411491,0.676799136 29.4458583,0.676799136 29.3508466,0.682763158 L16.280343,0.682763158 C16.1675653,0.674350058 16.0543198,0.674350058 15.9415421,0.682763158 L15.9413933,0.663073684 Z M9.72711009,5.25667368 L13.6946224,5.25667368 L13.6946224,21.2459 C13.6829868,22.0710368 14.1154535,22.8385353 14.8264239,23.2545076 C15.5373942,23.6704798 16.4167186,23.6704798 17.1276889,23.2545076 C17.8386593,22.8385353 18.271126,22.0710368 18.2594904,21.2459 L18.2594904,5.25667368 L27.3892255,5.25667368 L27.3892255,21.2459 C27.3776372,22.0710064 27.8101147,22.8384562 28.5210662,23.2543993 C29.2320177,23.6703424 30.111305,23.6703424 30.8222565,23.2543993 C31.533208,22.8384562 31.9656856,22.0710064 31.9540972,21.2459 L31.9540972,5.25667368 L41.0838314,5.25667368 L41.0838314,21.2459 C41.072184,22.0710444 41.504648,22.838555 42.2156231,23.2545346 C42.9265982,23.6705141 43.8059318,23.6705141 44.5169068,23.2545346 C45.2278819,22.838555 45.6603459,22.0710444 45.6486985,21.2459 L45.6486985,5.25667368 L54.7784327,5.25667368 L54.7784327,21.2550579 C54.7667818,22.0802046 55.199245,22.8477189 55.9102216,23.2637007 C56.6211981,23.6796824 57.5005345,23.6796824 58.211511,23.2637007 C58.9224875,22.8477189 59.3549508,22.0802046 59.3432998,21.2550579 L59.3432998,5.25667368 L68.4730386,5.25667368 L68.4730386,21.2550579 C68.4613877,22.0802046 68.8938509,22.8477189 69.6048275,23.2637007 C70.315804,23.6796824 71.1951404,23.6796824 71.9061169,23.2637007 C72.6170934,22.8477189 73.0495567,22.0802046 73.0379057,21.2550579 L73.0379057,5.25667368 L77.2728872,5.25667368 C80.1703077,5.25667368 82.5375548,7.19952105 82.4440298,10.0119105 L82.4261719,10.0897526 L82.4261719,23.0582474 L82.4261719,28.2329158 L4.57377453,28.2329158 L4.57377453,23.0582474 L4.57377453,10.0897526 C4.57377453,7.18441053 6.8287431,5.25438421 9.72708262,5.25438421 L9.72711009,5.25667368 Z M9.08517556,32.8114053 L77.9237387,32.8114053 L77.9237387,55.5930421 L9.08517556,55.5930421 L9.08517556,32.8114053 Z M9.08517556,60.1692421 L77.9237387,60.1692421 L77.9237387,87.6163684 L9.08517556,87.6163684 L9.08517556,60.1692421 Z M25.1067943,64.7454421 C22.0202083,64.6996526 22.0202083,69.3651421 25.1067943,69.3216421 L61.6257357,69.3216421 C64.7123217,69.3674316 64.7123217,64.7019421 61.6257357,64.7454421 L25.1067943,64.7454421 Z M25.1067943,78.4735842 C22.0202083,78.4277947 22.0202083,83.0932842 25.1067943,83.0493263 L61.6257357,83.0493263 C64.7123217,83.0951158 64.7123217,78.4300842 61.6257357,78.4735842 L25.1067943,78.4735842 Z M9.08517556,92.2012684 L77.9237387,92.2012684 L77.9237387,109.960716 C77.9237387,112.866058 75.6687079,115.134926 72.7704311,115.134926 L14.2384836,115.134926 C11.3402078,115.134926 9.08517556,112.866058 9.08517556,109.960716 L9.08517556,92.2012684 Z" id="path9168"></path>
                    </g>
                </g>
            </g>
        </g>
    </g>
</svg>