<?xml version="1.0" encoding="UTF-8"?>
<svg width="293px" height="206px" viewBox="0 0 293 206" version="1.1" xmlns="http://www.w3.org/2000/svg" xmlns:xlink="http://www.w3.org/1999/xlink">
    <!-- Generator: Sketch 51.2 (57519) - http://www.bohemiancoding.com/sketch -->
    <title>Group 5@3x</title>
    <desc>Created with Sketch.</desc>
    <defs></defs>
    <g id="Page-1" stroke="none" stroke-width="1" fill="none" fill-rule="evenodd">
        <g id="Group-5" transform="translate(-1.000000, 0.000000)" fill="#CCCCCC">
            <text id="Screening" font-family="AvenirNext-Bold, Avenir Next" font-size="64" font-weight="bold" letter-spacing="-1.543529">
                <tspan x="0.2458805" y="190">Screening</tspan>
            </text>
            <path d="M197.952941,10.2117647 L196.494118,8.75294118 C191.388235,2.91764706 183.364706,0 176.070588,0 C168.776471,0 160.752941,2.91764706 154.917647,8.75294118 L98.7529412,64.9176471 C87.0823529,76.5882353 87.0823529,94.8235294 98.7529412,106.494118 L100.211765,107.952941 C105.317647,113.788235 113.341176,116.705882 120.635294,116.705882 C127.929412,116.705882 135.952941,113.788235 141.788235,107.952941 L198.682353,51.0588235 C209.623529,40.1176471 209.623529,21.1529412 197.952941,10.2117647 Z M192.847059,46.6823529 L164.4,75.1294118 L138.870588,48.8705882 L111.152941,76.5882353 C103.129412,84.6117647 103.129412,94.8235294 103.858824,102.117647 C95.1058824,93.3647059 95.1058824,79.5058824 103.858824,70.7529412 L160.752941,13.8588235 C164.4,9.48235294 170.235294,7.29411765 176.070588,7.29411765 C181.905882,7.29411765 187.741176,9.48235294 192.117647,13.8588235 L193.576471,15.3176471 C197.223529,18.9647059 199.411765,24.8 199.411765,30.6352941 C199.411765,36.4705882 197.223529,42.3058824 192.847059,46.6823529 Z" id="Shape" fill-rule="nonzero"></path>
        </g>
    </g>
</svg>