<?xml version="1.0" encoding="UTF-8"?>
<svg width="263px" height="171px" viewBox="0 0 263 171" version="1.1" xmlns="http://www.w3.org/2000/svg" xmlns:xlink="http://www.w3.org/1999/xlink">
    <!-- Generator: Sketch 51.2 (57519) - http://www.bohemiancoding.com/sketch -->
    <title>Statin@3x</title>
    <desc>Created with Sketch.</desc>
    <defs></defs>
    <g id="Page-1" stroke="none" stroke-width="1" fill="none" fill-rule="evenodd">
        <g id="Statin" transform="translate(-1.000000, 0.000000)" fill="#CCCCCC">
            <text id="Statin-Rx" font-family="AvenirNext-Bold, Avenir Next" font-size="64" font-weight="bold" letter-spacing="-1.543529">
                <tspan x="0.2178805" y="169">Statin Rx</tspan>
            </text>
            <g id="Health,-Fitness,-Care,-Safe,-Fresh,-Heart" transform="translate(63.000000, 0.000000)" fill-rule="nonzero">
                <g id="svg2">
                    <g id="layer1" transform="translate(0.000000, 0.070475)">
                        <path d="M34.2958631,0.408729355 C15.7056131,0.408729355 0.176912601,15.2474834 0.480923584,33.8332321 C0.725636292,48.7936082 11.8001241,63.1553623 24.0161215,75.344308 C36.2321189,87.5332538 50.1892119,97.7413125 57.5605415,103.108209 L59.9952172,104.725524 L62.4298928,103.108209 C69.7955177,97.7456254 83.9750054,87.2895784 96.2448323,75.0747556 C97.4630704,73.8619852 98.5780004,72.549157 99.761586,71.3010214 L96.5153518,64.0231055 L95.9743128,62.6753433 C94.0539099,64.8800666 92.147877,67.028723 90.0228835,69.1446019 C86.7020612,72.4499617 83.36199,75.7117619 80.0136614,78.5789373 C72.5265494,84.9912664 65.2669959,90.0877483 59.9952172,93.9434265 C53.5125342,89.1984409 44.3209381,82.2646896 35.1074217,73.7269934 C33.5027068,72.2399265 31.8245734,70.7274138 30.2380704,69.1446019 C18.644847,57.5767049 9.30948685,44.3444834 9.1375481,33.8332321 C8.9126793,20.0864888 20.3766411,9.03440747 34.2958631,9.03440747 C43.8649772,9.03440747 51.9453554,14.166686 56.2079439,21.9729247 L59.9952172,28.9812881 L63.7824904,21.9729247 C68.0450789,14.166686 76.1254649,9.03440747 85.6945712,9.03440747 C87.5071125,9.03440747 90.545908,9.52585549 92.0686862,9.97784102 C102.939675,12.6957922 110.852886,22.1540639 110.852886,33.8332321 L117.615874,23.5902393 C113.188019,10.1850729 100.646007,0.408729355 85.6945712,0.408729355 C74.9284061,0.408729355 66.14906,6.04733514 59.9952172,13.8863514 C53.8413734,6.04733514 45.0620326,0.408729355 34.2958631,0.408729355 Z M91.375481,19.6648821 L77.5620785,51.7753162 L69.209788,39.2748222 L58.4059146,60.7884762 L43.7640462,60.7884762 L43.7640462,69.4141543 L63.7486759,69.4141543 L70.2749588,56.4250958 L79.2190101,69.818483 L91.375481,41.5491703 L103.6334,70.020643 L113.862414,53.8980421 L118.444339,69.4141543 L134.929123,69.4141543 L134.929123,60.7884762 L124.919901,60.7884762 L116.770503,33.1930446 L105.104351,51.5731519 L91.375481,19.6648821 Z" id="path3832"></path>
                    </g>
                </g>
            </g>
        </g>
    </g>
</svg>